<?xml version="1.0" encoding="UTF-8" standalone="no"?>
<svg
   viewBox="0 0 50 50"
   width="50px"
   height="50px"
   version="1.1"
   id="svg1"
   sodipodi:docname="icons8-tik-tok.svg"
   inkscape:version="1.3.2 (091e20e, 2023-11-25, custom)"
   xmlns:inkscape="http://www.inkscape.org/namespaces/inkscape"
   xmlns:sodipodi="http://sodipodi.sourceforge.net/DTD/sodipodi-0.dtd"
   xmlns="http://www.w3.org/2000/svg"
   xmlns:svg="http://www.w3.org/2000/svg">
  <defs
     id="defs1" />
  <sodipodi:namedview
     id="namedview1"
     pagecolor="#ffffff"
     bordercolor="#000000"
     borderopacity="0.25"
     inkscape:showpageshadow="2"
     inkscape:pageopacity="0.0"
     inkscape:pagecheckerboard="0"
     inkscape:deskcolor="#d1d1d1"
     inkscape:zoom="23.46"
     inkscape:cx="25"
     inkscape:cy="25"
     inkscape:window-width="2560"
     inkscape:window-height="1369"
     inkscape:window-x="-8"
     inkscape:window-y="-8"
     inkscape:window-maximized="1"
     inkscape:current-layer="svg1" />
  <path
     d="M41,4H9C6.243,4,4,6.243,4,9v32c0,2.757,2.243,5,5,5h32c2.757,0,5-2.243,5-5V9C46,6.243,43.757,4,41,4z M37.006,22.323 c-0.227,0.021-0.457,0.035-0.69,0.035c-2.623,0-4.928-1.349-6.269-3.388c0,5.349,0,11.435,0,11.537c0,4.709-3.818,8.527-8.527,8.527 s-8.527-3.818-8.527-8.527s3.818-8.527,8.527-8.527c0.178,0,0.352,0.016,0.527,0.027v4.202c-0.175-0.021-0.347-0.053-0.527-0.053 c-2.404,0-4.352,1.948-4.352,4.352s1.948,4.352,4.352,4.352s4.527-1.894,4.527-4.298c0-0.095,0.042-19.594,0.042-19.594h4.016 c0.378,3.591,3.277,6.425,6.901,6.685V22.323z"
     id="path1" />
  <path
     style="fill:#ffffff;stroke-width:0.0426257"
     d="m 20.417732,38.938228 c -1.923935,-0.2639 -3.667391,-1.148773 -5.009982,-2.542766 -1.40802,-1.461926 -2.205281,-3.248903 -2.36601,-5.303158 -0.219412,-2.804275 1.094351,-5.68089 3.364097,-7.366027 1.312303,-0.974298 2.739605,-1.528459 4.346761,-1.687664 0.500488,-0.04958 0.955497,-0.05633 1.151707,-0.01709 l 0.133206,0.02664 v 2.051448 2.051449 l -0.543479,0.0014 c -0.298913,7.85e-4 -0.658567,0.02595 -0.799232,0.05593 -1.415764,0.301715 -2.539868,1.180937 -3.13535,2.452326 -0.644512,1.37607 -0.521279,3.002033 0.323784,4.272085 0.679179,1.020742 1.739638,1.696447 2.972399,1.893955 0.50115,0.08029 1.358728,0.03152 1.86389,-0.106012 1.015575,-0.276487 1.913902,-0.882406 2.523737,-1.702251 0.464723,-0.62476 0.723019,-1.301231 0.800284,-2.09592 0.02505,-0.257661 0.04171,-4.034407 0.04249,-9.631046 7e-4,-5.063939 0.01375,-9.451726 0.02899,-9.750639 l 0.02772,-0.543479 h 1.972453 1.972451 l 0.02999,0.245098 c 0.04741,0.387536 0.259909,1.212164 0.417523,1.620278 0.450532,1.166578 1.232628,2.27255 2.146658,3.035621 0.54514,0.455104 0.900883,0.689257 1.529542,1.006754 0.761775,0.384726 1.673172,0.655109 2.475561,0.734422 l 0.290922,0.02876 0.01102,2.307045 0.01102,2.307046 -0.13357,0.02671 c -0.07346,0.01469 -0.318192,0.02656 -0.543842,0.02636 -2.343462,-0.002 -4.562489,-1.11649 -5.982679,-3.004765 -0.14106,-0.187553 -0.272756,-0.347218 -0.292657,-0.354811 -0.0199,-0.0076 -0.04297,2.831281 -0.05126,6.30861 -0.01635,6.855849 -7.85e-4,6.386292 -0.243403,7.342409 -0.524968,2.068808 -1.920441,3.962873 -3.762681,5.107055 -1.033206,0.641707 -2.338472,1.093485 -3.534991,1.223531 -0.545911,0.05933 -1.531728,0.04997 -2.03706,-0.01934 z"
     id="path2" />
</svg>
