<?xml version="1.0" encoding="UTF-8" standalone="no"?>
<svg
   viewBox="0 0 50 50"
   width="50px"
   height="50px"
   version="1.1"
   id="svg1"
   sodipodi:docname="icons8-facebook.svg"
   inkscape:version="1.3.2 (091e20e, 2023-11-25, custom)"
   xmlns:inkscape="http://www.inkscape.org/namespaces/inkscape"
   xmlns:sodipodi="http://sodipodi.sourceforge.net/DTD/sodipodi-0.dtd"
   xmlns="http://www.w3.org/2000/svg"
   xmlns:svg="http://www.w3.org/2000/svg">
  <defs
     id="defs1" />
  <sodipodi:namedview
     id="namedview1"
     pagecolor="#ffffff"
     bordercolor="#000000"
     borderopacity="0.25"
     inkscape:showpageshadow="2"
     inkscape:pageopacity="0.0"
     inkscape:pagecheckerboard="0"
     inkscape:deskcolor="#d1d1d1"
     inkscape:zoom="23.46"
     inkscape:cx="25"
     inkscape:cy="25"
     inkscape:window-width="2560"
     inkscape:window-height="1369"
     inkscape:window-x="-8"
     inkscape:window-y="-8"
     inkscape:window-maximized="1"
     inkscape:current-layer="svg1" />
  <path
     d="M 40.531116,3.1048593 H 8.5311164 c -2.7599996,0 -4.9999996,2.2400005 -4.9999996,5.0000005 V 40.10486 c 0,2.76 2.24,5 4.9999996,5 H 40.531116 c 2.76,0 5,-2.24 5,-5 V 8.1048598 c 0,-2.76 -2.24,-5.0000005 -5,-5.0000005 z m -4,15.0000007 h -2 c -2.14,0 -3,0.5 -3,2 v 3 h 5 l -1,5 h -4 v 15 h -5 v -15 h -4 v -5 h 4 v -3 c 0,-4 2,-7 6,-7 2.9,0 4,1 4,1 z"
     id="path1" />
  <path
     style="fill:#ffffff;stroke-width:0.0426257"
     d="M 26.55584,35.592498 V 28.090367 H 24.55243 22.54902 V 25.618073 23.14578 h 1.999908 1.999908 l 0.01823,-2.078005 c 0.01492,-1.700934 0.03153,-2.158454 0.09153,-2.52135 0.438588,-2.652783 1.746429,-4.408829 3.793071,-5.092979 0.736331,-0.24614 1.115325,-0.298723 2.157036,-0.299273 0.706603,-3.73e-4 1.084139,0.01915 1.434145,0.07415 0.877824,0.137957 1.680797,0.396469 2.192514,0.705868 l 0.273596,0.165424 0.01108,1.986849 0.01108,1.986848 -1.14066,6.75e-4 c -1.751916,0.001 -2.403405,0.0767 -2.980167,0.346134 -0.365546,0.170762 -0.664209,0.503937 -0.789779,0.88104 -0.09103,0.273373 -0.09567,0.360157 -0.110469,2.06499 l -0.01545,1.779625 h 2.496527 c 1.37309,0 2.496527,0.01488 2.496527,0.03307 0,0.03433 -0.918508,4.64642 -0.959041,4.815611 l -0.02298,0.09591 H 33.503028 31.50043 v 7.502131 7.502131 H 29.028133 26.55584 Z"
     id="path2" />
  <path
     style="fill:#ffffff;stroke-width:0.0426257"
     d="M 26.55584,35.592498 V 28.090367 H 24.55243 22.54902 V 25.618073 23.14578 h 1.999908 1.999908 l 0.01823,-2.078005 c 0.01492,-1.700934 0.03153,-2.158454 0.09153,-2.52135 0.492543,-2.97913 2.012579,-4.75074 4.543457,-5.295422 0.388801,-0.08368 0.573505,-0.09644 1.40665,-0.09723 0.700198,-6.62e-4 1.085643,0.01886 1.427962,0.07234 0.871019,0.136064 1.687535,0.39902 2.198697,0.708083 l 0.273596,0.165424 0.01107,1.981674 0.01107,1.981675 -1.46035,0.02137 c -1.582706,0.02316 -1.937525,0.06167 -2.504499,0.271824 -0.571249,0.211742 -0.915922,0.648958 -1.020348,1.29431 -0.02563,0.158379 -0.04497,0.966373 -0.04516,1.886189 l -3.22e-4,1.609122 h 2.493606 c 1.371484,0 2.493607,0.01488 2.493607,0.03307 0,0.03433 -0.918508,4.64642 -0.959041,4.815611 l -0.02298,0.09591 h -2.002598 -2.002598 v 7.502131 7.502131 H 29.028133 26.55584 Z"
     id="path3" />
  <path
     style="fill:#ffffff;stroke-width:0.0426257"
     d="M 26.55584,35.592498 V 28.090367 H 24.55243 22.54902 V 25.618073 23.14578 h 2.00341 2.00341 v -1.804191 c 0,-1.930662 0.03012,-2.431319 0.196615,-3.268273 0.463245,-2.328661 1.764363,-3.959873 3.682328,-4.616535 0.710025,-0.243094 1.132815,-0.302024 2.173913,-0.303008 0.700198,-6.62e-4 1.085643,0.01886 1.427962,0.07234 0.871019,0.136064 1.687535,0.39902 2.198697,0.708083 l 0.273596,0.165424 0.01107,1.981182 0.01107,1.981182 -1.481663,0.02457 c -1.559004,0.02586 -1.893239,0.05996 -2.423908,0.247299 -0.498402,0.175951 -0.865848,0.545953 -1.025974,1.033111 -0.0619,0.188318 -0.07455,0.472815 -0.08892,1.999188 l -0.01676,1.779625 h 2.496882 c 1.373285,0 2.496883,0.01488 2.496883,0.03307 0,0.03433 -0.918508,4.64642 -0.959041,4.815611 l -0.02298,0.09591 h -2.002598 -2.002598 v 7.502131 7.502131 H 29.028133 26.55584 Z"
     id="path4" />
</svg>
