<?xml version="1.0" encoding="UTF-8" standalone="no"?>
<svg
   height="48"
   viewBox="0 -960 960 960"
   width="48"
   version="1.1"
   id="svg1"
   sodipodi:docname="shopping_cart_FILL0_wght400_GRAD0_opsz48.svg"
   inkscape:version="1.3.2 (091e20e, 2023-11-25, custom)"
   xmlns:inkscape="http://www.inkscape.org/namespaces/inkscape"
   xmlns:sodipodi="http://sodipodi.sourceforge.net/DTD/sodipodi-0.dtd"
   xmlns="http://www.w3.org/2000/svg"
   xmlns:svg="http://www.w3.org/2000/svg">
  <defs
     id="defs1" />
  <sodipodi:namedview
     id="namedview1"
     pagecolor="#ffffff"
     bordercolor="#000000"
     borderopacity="0.25"
     inkscape:showpageshadow="2"
     inkscape:pageopacity="0.0"
     inkscape:pagecheckerboard="0"
     inkscape:deskcolor="#d1d1d1"
     showgrid="false"
     inkscape:zoom="45.254834"
     inkscape:cx="29.289689"
     inkscape:cy="10.352485"
     inkscape:window-width="2560"
     inkscape:window-height="1369"
     inkscape:window-x="-8"
     inkscape:window-y="-8"
     inkscape:window-maximized="1"
     inkscape:current-layer="svg1" />
  <path
     d="M286.788-81Q257-81 236-102.212q-21-21.213-21-51Q215-183 236.212-204q21.213-21 51-21Q317-225 338-203.788q21 21.213 21 51Q359-123 337.788-102q-21.213 21-51 21Zm400 0Q657-81 636-102.212q-21-21.213-21-51Q615-183 636.212-204q21.213-21 51-21Q717-225 738-203.788q21 21.213 21 51Q759-123 737.788-102q-21.213 21-51 21ZM235-741l110 228h288l125-228H235Zm-30-60h589.074q22.964 0 34.945 21Q841-759 829-738L694-495q-11 19-28.559 30.5Q647.881-453 627-453H324l-56 104h491v60H277q-42 0-60.5-28t.5-63l64-118-152-322H51v-60h117l37 79Zm140 288h288-288Z"
     id="path1" />
  <path
     style="fill:#ffffff;fill-opacity:1;stroke-width:20.6949"
     d="m 204.91048,-804.97186 30.69054,66.92581 522.05522,-0.3953 30.39064,-65.24599 z"
     id="path2" />
</svg>
