<?xml version="1.0" encoding="UTF-8" standalone="no"?>
<svg
   version="1.1"
   id="Layer_1"
   x="0px"
   y="0px"
   width="100%"
   viewBox="0 0 736 352"
   enable-background="new 0 0 736 352"
   xml:space="preserve"
   sodipodi:docname="botas jusaino.svg"
   inkscape:version="1.3.2 (091e20e, 2023-11-25, custom)"
   xmlns:inkscape="http://www.inkscape.org/namespaces/inkscape"
   xmlns:sodipodi="http://sodipodi.sourceforge.net/DTD/sodipodi-0.dtd"
   xmlns="http://www.w3.org/2000/svg"
   xmlns:svg="http://www.w3.org/2000/svg"><defs
   id="defs7" /><sodipodi:namedview
   id="namedview7"
   pagecolor="#ffffff"
   bordercolor="#000000"
   borderopacity="0.25"
   inkscape:showpageshadow="2"
   inkscape:pageopacity="0.0"
   inkscape:pagecheckerboard="0"
   inkscape:deskcolor="#d1d1d1"
   showgrid="false"
   inkscape:zoom="2.7839674"
   inkscape:cx="370.8736"
   inkscape:cy="235.81454"
   inkscape:window-width="2560"
   inkscape:window-height="1369"
   inkscape:window-x="-8"
   inkscape:window-y="-8"
   inkscape:window-maximized="1"
   inkscape:current-layer="Layer_1" />
<path
   fill="#000000"
   opacity="1.000000"
   stroke="none"
   d=" M495.468658,353.000000   C481.540436,350.141754 468.828308,345.440613 457.380493,337.659363   C439.778503,325.695068 423.554565,312.234100 411.515350,294.404114   C408.835022,290.434570 406.826813,286.011139 404.369385,281.542542   C400.844971,283.179749 398.784088,286.079102 396.406830,288.487610   C374.501068,310.681091 348.710175,326.149872 318.385803,333.806091   C306.502472,336.806366 294.498932,338.158661 282.398132,335.197113   C276.999695,333.875885 272.121613,331.313507 267.890930,327.665863   C266.580688,326.536194 264.839325,325.429993 265.978668,322.929077   C266.613342,323.132629 267.341095,323.161835 267.773010,323.534210   C281.256927,335.158264 296.920105,334.273804 312.766022,331.019165   C344.890320,324.420990 371.024231,307.240051 393.739838,284.262421   C395.073029,282.913818 396.785034,281.631958 396.760681,279.367249   C395.183716,277.825439 393.247803,278.428558 391.485626,278.338135   C366.559296,277.058990 342.050232,280.385345 317.578857,284.683899   C296.314728,288.419128 275.319824,293.698578 253.777481,295.851044   C224.800735,298.746277 195.964401,298.802521 167.557693,291.301880   C154.977905,287.980286 143.269470,282.891632 134.737747,272.486450   C132.677673,269.973938 130.113129,269.784210 127.528839,270.409058   C118.575272,272.573853 110.023369,270.559113 101.448502,268.370667   C97.759888,267.429291 94.056320,266.546539 89.698326,265.474457   C91.333328,258.781799 89.769791,251.803741 90.650780,244.136520   C93.360901,246.121201 93.819252,248.599213 94.717453,250.776367   C99.041756,261.258026 107.317513,266.145355 118.453773,264.835999   C122.751106,264.330750 125.050064,262.204407 125.088013,257.681091   C125.129898,252.687790 125.412888,247.695984 125.619858,242.704742   C125.748161,239.610443 125.515640,236.763794 122.571487,234.761093   C120.855278,233.593674 120.534668,231.701691 122.822426,230.990494   C125.972305,230.011276 125.661552,227.725815 125.668114,225.411728   C125.683235,220.078812 125.539627,214.741562 125.710175,209.414078   C125.868935,204.454849 126.531754,199.407227 118.843185,198.944794   C123.093224,196.049728 151.503357,196.267075 155.925171,199.208374   C147.245636,200.115402 149.425217,206.201035 149.363922,211.200592   C149.296509,216.699371 149.442276,222.201691 149.321548,227.698654   C149.193375,233.534317 154.032593,231.756302 156.879913,232.460800   C160.030518,233.240326 161.053253,231.042938 161.066162,227.991180   C161.097137,220.664886 161.277451,213.334610 161.621185,206.016434   C161.770081,202.845932 159.682724,201.712631 157.457596,200.528793   C159.968109,197.415878 186.666397,198.168655 191.762512,200.422089   C183.450989,201.746094 184.515472,207.729980 184.404114,213.046783   C184.302948,217.877563 184.628159,222.727997 184.313873,227.540298   C184.043442,231.681366 185.947922,233.265762 189.694183,233.643570   C194.060608,234.083923 198.097031,235.692612 202.003830,237.573822   C203.858795,238.467026 206.083206,239.182159 206.377625,241.831390   C204.461441,243.058151 203.198517,241.429230 201.738678,240.942627   C198.272049,239.787125 194.909683,238.179688 191.362335,237.439377   C186.500046,236.424667 184.502502,238.278320 184.371826,243.129150   C184.318008,245.127502 184.313431,247.130264 184.376953,249.128143   C184.680054,258.664795 188.236115,262.859528 197.535156,265.286438   C204.545868,267.116119 211.409851,266.597534 218.213654,264.560120   C224.480850,262.683380 228.377289,257.414978 228.641129,250.819321   C228.687729,249.654373 228.590591,248.481277 228.677414,247.320740   C229.057083,242.245575 229.117371,237.364838 222.561981,236.558060   C222.693436,235.610168 222.685165,235.060059 222.784607,235.039871   C229.009796,233.774643 229.193619,229.305145 228.810989,224.250580   C228.535263,220.607971 228.827850,216.922791 228.857422,213.256516   C228.923233,205.096313 228.920792,205.096298 221.927383,200.728516   C224.856857,198.086655 244.307785,198.184677 249.385681,201.605530   C240.204239,202.026215 241.248657,208.444626 240.762955,213.958191   C240.573227,216.111984 240.259933,218.294067 240.420105,220.432007   C240.856415,226.256073 237.066574,233.967712 247.969070,235.282928   C245.142746,238.028275 241.064194,237.822433 240.578995,241.311569   C240.192001,244.094528 240.244904,246.968307 240.379684,249.788513   C240.759293,257.731659 237.138504,263.134064 230.134491,266.513092   C218.014114,272.360565 205.151672,272.984100 192.055099,271.904510   C185.025925,271.325043 178.261734,269.699280 171.948624,266.472809   C164.562363,262.697937 159.648438,257.371887 160.709061,248.331879   C160.844131,247.180817 160.832397,245.990753 160.715439,244.836288   C160.437332,242.090530 161.963882,238.263107 157.420670,237.737228   C153.237289,237.253006 149.322144,240.175140 148.885651,244.192169   C147.977661,252.548416 146.161774,260.335297 138.169556,265.052948   C140.406738,270.179443 144.206787,273.049103 148.359055,275.541321   C161.254013,283.280914 175.755798,285.574280 190.276611,287.576813   C203.012802,289.333252 215.867722,289.113586 228.678604,288.683502   C246.975418,288.069183 265.127716,285.783112 283.249420,283.288910   C317.015961,278.641479 350.696808,273.091431 384.963684,273.752869   C386.430054,273.781189 387.984283,273.608093 389.360199,273.131866   C393.059631,271.851227 394.361389,269.946503 391.639862,266.139954   C388.258728,261.410858 385.372437,256.316895 382.445068,251.280151   C381.351501,249.398575 380.141022,248.575775 378.025269,249.276428   C371.343445,251.489151 364.767731,250.059982 358.418549,248.105728   C354.441986,246.881744 352.570648,248.018860 351.080444,251.530914   C349.072388,256.263428 346.769531,260.870850 344.685699,265.333771   C345.739075,267.817596 347.734863,267.580353 349.499634,267.801575   C351.203918,268.015167 352.383759,268.867065 352.430084,270.628510   C352.480316,272.540497 351.115021,273.214813 349.442261,273.212433   C341.277985,273.200745 333.113281,273.180878 324.950073,273.066681   C323.364532,273.044495 321.993134,272.298248 321.877686,270.420410   C321.756805,268.455353 323.044586,267.791107 324.717194,267.714752   C329.911682,267.477539 332.720886,264.217377 334.799286,259.940491   C336.910583,255.595963 339.969604,251.482300 341.010406,246.903137   C342.435669,240.632446 346.567566,236.092300 349.245026,230.665863   C352.119171,224.840881 355.055847,219.046661 357.983612,213.248291   C361.491058,206.301941 361.499451,206.306183 355.188660,202.992249   C358.177094,200.765274 386.065094,200.594131 391.071777,202.772171   C391.027863,203.083099 391.046722,203.638992 390.929230,203.669479   C385.450012,205.091446 384.922791,207.829910 387.716156,212.612747   C390.555634,217.474548 392.703766,222.785461 394.734253,228.061508   C396.716248,233.211502 399.533264,237.036270 407.485809,236.946472   C400.251312,241.472168 403.062500,245.679871 405.102722,249.764679   C406.943848,253.450928 407.892944,257.587280 410.429718,260.866089   C422.636169,252.325424 427.396820,240.550232 426.683746,226.119705   C426.454559,221.482437 426.694092,216.821472 427.400635,212.168686   C427.950073,208.550400 426.615021,205.612488 422.388977,204.917267   C422.119263,205.224747 421.711914,205.491928 421.745483,205.680603   C422.197235,208.217926 421.985901,210.418716 418.939972,211.063065   C417.684570,211.328659 416.554871,210.808533 416.106323,209.553619   C415.125153,206.808548 416.753754,205.177658 418.767914,203.747040   C420.220093,202.715515 421.929169,202.340256 423.537598,202.732117   C431.306641,204.624817 438.879028,202.604660 446.522583,201.843597   C448.490204,201.647675 450.503326,201.801239 451.827179,203.916046   C443.814148,208.784500 448.712189,216.356110 446.903503,224.095322   C452.450348,220.452438 457.007050,217.874374 461.045654,214.647781   C463.366669,212.793411 462.037750,208.024200 459.252899,206.577103   C458.118317,205.987534 456.577484,206.158157 455.736450,204.455139   C456.748932,202.665726 458.630676,202.752350 460.361725,202.739517   C469.496613,202.671738 478.019623,200.968048 486.540283,197.010910   C503.394958,189.183334 521.254578,185.478210 539.980103,188.718430   C544.904175,189.570480 549.705200,190.971741 554.324158,192.938171   C562.725403,196.514801 566.407288,200.079926 571.993835,210.333282   C578.847473,206.710876 586.102844,203.901550 593.900818,203.195496   C614.031921,201.372757 631.671509,205.956314 643.854919,223.601776   C645.346252,225.761703 646.592529,228.253296 647.271362,230.774521   C648.360474,234.819626 649.111084,238.843933 655.063416,239.883316   C648.869080,241.966034 648.358582,247.333282 646.138611,251.644958   C638.168823,267.124237 624.722717,274.489075 607.966797,276.144714   C596.709778,277.256989 585.690002,275.826660 575.467407,270.414612   C565.109680,264.931030 557.886597,256.767120 554.511169,245.495667   C553.198364,241.111694 551.388855,240.025146 546.965576,242.080307   C539.458191,245.568359 539.328247,245.289047 539.334778,253.716675   C539.338806,258.882996 539.466614,264.053436 539.292236,269.213715   C539.214050,271.528198 540.572510,274.847168 537.453491,275.813965   C534.183472,276.827637 530.551941,277.077332 527.604248,274.234711   C520.288452,267.179596 513.021301,260.069061 505.542145,253.189987   C499.949188,248.045715 494.763641,242.174622 486.707306,240.759048   C487.946228,236.639786 481.947449,229.295258 474.296173,225.808472   C474.296173,231.882019 474.320251,237.644455 474.289948,243.406616   C474.253998,250.239243 474.265015,257.074310 474.070282,263.903015   C473.968719,267.463928 474.855804,269.777466 478.966766,269.680695   C481.105255,269.630371 483.159729,270.157867 483.077759,272.875793   C482.995361,275.608673 480.703369,275.259705 478.961975,275.267578   C471.462982,275.301514 463.963287,275.258911 456.464417,275.185120   C454.466522,275.165466 452.081085,275.222076 452.011963,272.410553   C451.938385,269.420319 454.454468,269.687103 456.382660,269.709167   C460.227783,269.753204 461.805573,267.939056 461.655945,264.168854   C461.523895,260.841400 461.476593,257.492706 461.694489,254.173233   C462.080658,248.290146 461.857300,242.750412 455.461456,239.786804   C457.230469,236.824631 462.427521,238.193069 461.803680,233.383804   C461.408905,230.340363 461.729950,227.204086 461.729950,223.897720   C452.196350,227.117035 447.343811,233.484848 447.314087,242.134125   C447.294067,247.966980 447.271790,253.799850 447.271332,259.632721   C447.270966,264.205414 446.015137,269.118164 452.260834,272.574890   C438.323334,275.506256 425.693481,270.876984 412.937653,273.769653   C413.939178,276.001404 415.778778,276.302521 417.465302,276.546234   C431.126068,278.520447 443.816345,283.570984 456.264404,289.156311   C463.567169,292.433044 469.652039,297.441925 471.765015,305.752716   C472.842865,309.992096 472.740234,314.079681 468.893982,317.196838   C466.753571,315.569763 467.603699,313.947479 467.773956,312.621735   C468.575287,306.382294 466.252899,301.489471 461.487091,297.702026   C448.939178,287.730011 433.722412,284.779083 418.790680,281.104401   C418.446716,281.440826 418.102753,281.777222 417.758789,282.113617   C421.149536,287.055634 424.162354,292.315582 428.001831,296.880188   C439.619415,310.691772 452.048889,323.895447 467.567047,333.283356   C487.586670,345.394501 509.119293,351.241394 532.441345,343.755157   C540.036560,341.317108 546.923462,337.551483 549.559937,329.081848   C552.108887,320.893250 549.201843,313.953613 544.231628,307.758881   C536.930542,298.658997 527.440552,292.701080 516.231873,289.476807   C515.121582,289.157440 514.012878,288.822632 512.932800,288.416718   C512.702881,288.330292 512.601318,287.902405 512.308228,287.408936   C513.972717,286.248016 515.845947,286.583130 517.478577,286.962189   C533.331360,290.643097 546.112915,298.730988 553.520203,313.648468   C559.910950,326.518799 556.330811,337.697052 544.155334,345.450226   C538.425049,349.099213 531.893005,350.502289 525.299622,352.800049   C515.312439,353.000000 505.624878,353.000000 495.468658,353.000000  M580.900269,236.317871   C582.211975,238.225830 585.262329,236.972305 586.564514,239.688492   C582.816406,241.592819 579.673157,243.901764 580.339294,249.004730   C581.853577,260.604401 585.036194,271.769775 603.333435,271.003906   C611.605347,270.657684 616.958252,267.426025 619.806641,259.914307   C622.385437,253.113342 625.700256,246.126328 617.891785,240.271698   C617.755249,240.169296 617.927551,239.654953 617.994507,238.890915   C624.074829,238.257553 622.993835,233.676208 622.554993,229.597610   C621.998413,224.424072 620.055176,219.619507 617.988220,214.894180   C617.010010,212.657852 615.193115,211.087341 612.873657,210.421555   C606.268494,208.525558 599.617859,207.241837 592.808594,209.625946   C589.213806,210.884552 586.039062,212.767883 584.519775,216.335739   C581.907288,222.470490 579.969971,228.814621 580.900269,236.317871  M504.622009,227.878143   C509.709595,231.974854 513.491760,237.961151 520.778320,238.886932   C521.920654,239.032074 523.035339,239.741013 522.595398,241.316727   C522.101562,243.085571 522.519165,244.473083 524.540894,244.431656   C526.589783,244.389664 526.637024,242.621628 526.647705,241.101898   C526.696045,234.277695 526.433838,227.438080 526.809875,220.633102   C527.186157,213.823090 527.086670,207.577744 519.219910,204.867844   C519.055359,204.811188 519.050964,204.289764 518.983337,203.982178   C525.574097,200.874557 544.573181,202.286972 547.841736,206.309464   C544.153687,207.713303 539.750427,208.361557 539.701477,213.670120   C539.638672,220.481201 539.508179,227.291672 539.450500,234.102768   C539.435608,235.860641 539.836792,237.359726 541.955688,237.833862   C546.057007,238.751602 553.874756,234.950409 555.229919,230.968994   C556.986938,225.806747 559.731873,221.325150 563.624084,217.573502   C565.725769,215.547699 565.918640,213.440063 565.000793,210.793152   C562.960632,204.909531 558.272888,201.874390 553.079834,199.412048   C538.926208,192.700928 524.402466,191.561386 509.467255,196.646362   C500.852264,199.579483 492.339050,202.693863 485.871368,206.880005   C492.012299,213.784195 498.063110,220.587097 504.622009,227.878143  M369.897186,224.734741   C369.264557,223.425827 369.017731,221.862305 367.123871,220.878540   C363.324127,226.283539 360.647461,232.282043 357.983887,238.287659   C357.620819,239.106323 357.698334,239.845535 358.237640,240.601913   C361.148499,244.684677 372.336090,246.246643 376.236389,243.078094   C375.823273,239.814728 371.815979,240.588013 370.648743,238.307526   C370.932434,236.170044 373.971466,237.214706 374.057709,234.505081   C372.896027,231.767944 371.542297,228.578293 369.897186,224.734741  M417.655029,265.825775   C417.070953,266.873138 415.557343,267.601898 416.458679,269.182220   C422.635651,268.254089 423.532257,267.090698 421.971375,261.983063   C419.865234,262.157959 419.182861,264.012634 417.655029,265.825775  z"
   id="path1" />
<path
   fill="#000000"
   opacity="1.000000"
   stroke="none"
   d=" M271.102417,273.235840   C268.177246,272.297729 265.689423,271.334106 263.140472,270.575653   C260.863556,269.898193 258.571198,269.532135 256.723663,271.734772   C254.917557,273.888031 252.503616,273.620392 250.311951,272.739716   C248.144730,271.868866 248.807877,269.627686 248.770111,267.883911   C248.697998,264.555023 248.805115,261.222687 248.800751,257.891815   C248.798370,256.080322 248.668472,254.495239 247.257065,252.881821   C244.599136,249.843414 245.780716,247.315903 249.765732,246.784958   C252.203720,246.460129 254.340240,247.240814 256.348633,248.590317   C259.457397,250.679214 261.907349,253.455887 263.794464,256.576508   C271.009674,268.507996 291.229675,272.409790 303.271912,267.172302   C304.481079,266.646423 305.683960,265.988098 306.701935,265.160248   C312.511566,260.435638 311.830872,255.074524 304.906616,252.230606   C295.351471,248.306122 285.196350,246.276627 275.350586,243.261276   C269.132568,241.356918 262.959290,239.487579 257.564148,235.617569   C247.045197,228.072159 246.994827,214.753937 257.908997,207.812363   C269.458160,200.466904 282.199127,199.390106 295.385529,202.129150   C298.468781,202.769592 301.506104,203.629715 304.568665,204.371796   C306.738739,204.897614 308.703552,204.701172 310.789246,203.573395   C317.272797,200.067688 321.165955,202.388550 321.401398,209.406296   C321.566193,214.318069 320.478607,219.285889 322.729248,224.153152   C323.874451,226.629776 321.312378,227.672806 319.278320,227.841553   C314.663483,228.224396 311.583801,225.997345 309.108429,222.057663   C301.041168,209.218002 285.342896,203.993393 271.654510,209.281448   C269.777771,210.006454 267.958374,210.787231 266.648560,212.425583   C263.692261,216.123306 264.060272,218.747864 267.810547,221.671356   C272.871185,225.616364 279.083374,226.382141 284.974426,228.025116   C295.036041,230.831253 305.538696,232.191376 314.916260,237.229538   C316.220612,237.930313 317.463043,237.236816 318.765930,237.032043   C322.308441,236.475327 325.936646,235.846771 329.098206,238.061020   C328.997101,239.771545 327.980377,239.972900 327.006378,240.229797   C323.740692,241.091156 322.915161,242.806885 324.128174,246.164001   C327.453613,255.367401 325.317627,261.753998 317.555481,267.601196   C306.155823,276.188507 293.118347,276.209503 279.836853,274.850708   C277.038666,274.564423 274.286530,273.828369 271.102417,273.235840  z"
   id="path2" />
<path
   fill="#000000"
   opacity="1.000000"
   stroke="none"
   d=" M245.668076,116.837692   C245.098099,111.380966 247.082047,106.129463 243.516373,101.407097   C242.329590,99.835304 245.494476,98.534378 245.517868,96.652275   C245.579941,91.657150 245.591095,86.661255 245.596527,81.665634   C245.598557,79.803787 244.314270,79.227806 242.765808,78.721863   C238.891464,77.455978 237.091751,72.978439 238.868362,67.972549   C240.322739,63.874634 244.291550,65.289047 246.460907,66.353035   C249.857193,68.018784 252.607590,67.218681 255.903595,66.660027   C263.120148,65.436867 270.536896,64.634499 277.060394,69.290703   C279.872925,71.298149 281.816620,73.972885 281.331665,77.762230   C280.969666,80.590637 282.028656,82.934502 284.364471,84.849884   C279.570526,89.355247 283.479095,98.116486 274.661041,100.627563   C285.413116,103.529617 280.461304,114.603622 286.132233,120.252586   C286.333801,121.179176 285.168701,121.662750 284.777832,122.534264   C279.371857,134.587570 272.848724,138.537659 260.068695,137.122238   C254.993286,136.560135 250.043228,135.138641 244.818634,136.162415   C242.408325,136.634735 239.618454,135.813461 239.905685,132.735916   C240.196701,129.618011 237.144669,124.960648 242.918686,123.733322   C247.109818,122.842453 245.151566,119.612053 245.668076,116.837692  M263.248810,104.281029   C255.331665,104.189926 255.331909,104.189926 255.340820,111.963806   C255.343491,114.293381 255.431549,116.627007 255.323578,118.951485   C255.195953,121.699280 256.364441,122.981857 259.133270,122.852692   C260.627808,122.782982 262.128082,122.846748 263.625275,122.821587   C269.735321,122.718910 273.506897,119.201920 273.571411,113.560600   C273.632751,108.194969 270.066071,104.693626 263.248810,104.281029  M270.973297,93.442123   C273.285950,89.127808 272.902344,84.994560 269.511963,81.533051   C265.865051,77.809654 261.077606,79.494385 256.696655,79.525925   C255.613235,79.533730 254.802017,80.471970 254.692398,81.478485   C254.169571,86.278687 254.182114,91.096451 254.710617,95.897095   C254.804474,96.749664 255.603058,97.201233 256.438538,97.511078   C260.353455,98.962921 267.650757,97.224915 270.973297,93.442123  z"
   id="path3" />
<path
   fill="#000000"
   opacity="1.000000"
   stroke="none"
   d=" M294.046082,84.302795   C294.261505,82.017632 294.518555,80.201218 294.610931,78.376472   C295.054504,69.613922 297.891937,66.502937 306.712769,65.820480   C310.847656,65.500572 315.042511,65.530037 319.183289,65.805527   C326.590973,66.298370 330.402466,70.082993 330.873810,77.501457   C331.242828,83.308777 331.232971,89.144028 331.271210,94.967659   C331.341156,105.621086 331.300903,116.275208 331.349548,126.928833   C331.372986,132.064133 328.548462,134.906708 323.918243,136.228439   C317.152496,138.159805 310.372925,137.431396 303.722595,135.731842   C299.344482,134.612976 296.689850,131.447891 295.709381,127.021439   C295.314789,125.240082 294.917725,123.407501 294.919128,121.598541   C294.928711,109.312775 292.680328,97.082924 294.046082,84.302795  M305.155884,80.889717   C303.957825,82.699585 304.370209,84.746689 304.366028,86.706650   C304.355164,91.803398 305.748993,97.114822 305.333527,101.823181   C304.868866,107.088676 304.749146,112.281410 305.014923,117.483917   C305.303619,123.134956 306.768036,123.802902 314.420288,123.690681   C319.002808,123.623474 321.044830,121.804115 320.794220,117.035126   C320.501160,111.457581 319.801666,105.754539 320.065887,100.346306   C320.321075,95.122993 320.393890,89.825264 320.725586,84.572517   C320.956116,80.922195 318.928253,78.963875 315.572937,78.416527   C312.099976,77.849991 308.596771,77.704597 305.155884,80.889717  z"
   id="path4" />
<path
   fill="#000000"
   opacity="1.000000"
   stroke="none"
   d=" M417.943939,94.065422   C417.948547,97.567383 420.313477,99.049049 422.329010,100.617783   C419.357391,111.164490 423.543427,122.754440 430.692474,124.091011   C431.779663,128.289917 431.721405,132.518295 430.388794,137.074463   C425.415039,135.989044 420.374695,135.946518 415.294342,137.189484   C412.242523,137.936142 410.426544,136.279434 410.798096,133.041977   C411.218018,129.383194 408.383606,124.220963 415.040344,123.206390   C415.305664,123.165962 415.674591,122.805763 415.730194,122.539238   C416.571747,118.507301 414.078583,115.251328 413.111176,111.640678   C412.412872,109.034309 410.190674,109.347260 408.183594,109.494812   C403.467224,109.841522 398.926544,110.039070 398.677460,116.740211   C398.535309,120.563751 396.852997,124.491867 403.135406,124.051910   C403.284271,128.534286 404.094727,132.467072 403.365021,136.290405   C402.298676,137.465561 401.097290,137.365250 399.991119,137.009079   C396.209412,135.791428 392.527649,136.030991 388.706970,137.044998   C384.905884,138.053787 382.472015,136.831528 383.026550,132.274353   C383.345703,129.651321 383.522247,127.010933 383.794647,124.031731   C388.482025,124.394798 389.405029,121.219376 389.800873,117.756691   C390.420044,112.340385 394.005066,107.236855 391.195251,101.405739   C390.422729,99.802574 393.073547,98.868141 393.525604,97.260620   C395.266632,91.069855 397.010620,84.879929 398.889954,78.205055   C393.532715,77.777466 392.226166,75.089462 392.582733,70.555962   C393.053040,64.576477 393.765533,63.605602 399.427704,65.507660   C403.936096,67.022133 408.227386,66.697464 412.654083,65.530022   C414.969513,64.919380 417.627655,63.535709 418.887512,67.147522   C420.304840,71.210793 418.975433,76.128571 416.148834,77.410103   C415.708862,77.609581 415.292023,77.860016 414.472626,78.294777   C415.582703,83.390366 416.704529,88.539986 417.943939,94.065422  M409.639526,95.704445   C408.532501,92.715782 408.839722,89.227150 406.264923,86.009323   C403.421936,90.000343 403.642212,94.430519 402.579926,98.380852   C401.385040,102.824249 402.779449,104.177734 407.337463,103.635223   C413.035675,102.957008 409.871704,99.207016 409.639526,95.704445  z"
   id="path5" />
<path
   fill="#000000"
   opacity="1.000000"
   stroke="none"
   d=" M459.317932,66.199661   C460.642548,66.036911 461.621826,65.859543 462.548004,65.532021   C467.541718,63.766186 468.948425,64.597031 469.095551,69.817894   C469.268982,75.973801 469.097778,82.140739 469.332672,88.293098   C469.466339,91.793869 467.973724,93.045761 464.656158,93.080605   C461.454163,93.114235 459.455139,92.187386 459.708374,88.566788   C459.777863,87.573257 459.711182,86.569778 459.698578,85.570969   C459.611267,78.658997 455.580139,75.867653 449.015137,78.171318   C444.850433,79.632721 443.194397,83.110626 445.591949,86.772278   C448.736755,91.575142 451.827393,96.744957 458.277069,97.892029   C459.339752,98.081024 459.770050,98.787621 460.443329,99.573723   C466.955811,107.177666 476.773956,112.875443 475.242462,125.059090   C474.548065,130.583298 471.739441,134.730881 466.003265,136.222198   C460.615906,137.622833 455.181549,138.248413 449.863403,136.038437   C447.601624,135.098541 445.650940,135.638275 443.638641,136.545990   C439.963379,138.203812 438.291656,136.630600 438.016144,132.986786   C437.577362,127.183075 437.245728,121.371048 436.779816,115.569695   C436.527893,112.433067 437.743042,110.959076 440.989441,110.898026   C444.250549,110.836693 445.274445,112.298035 445.381134,115.422195   C445.661469,123.631836 446.836334,124.740700 453.978394,124.783836   C457.074707,124.802544 460.246460,124.702995 461.783966,121.549843   C463.480774,118.069885 463.277649,114.387573 461.114197,111.090561   C459.271240,108.281944 456.709869,106.096832 453.993530,104.152596   C450.532257,101.675171 447.069092,99.335327 443.785278,96.491920   C436.511353,90.193466 434.909393,82.694923 435.834625,74.094528   C436.578644,67.177979 445.767090,62.117664 453.307465,64.119209   C455.228912,64.629250 457.070038,65.442047 459.317932,66.199661  z"
   id="path6" />
<path
   fill="#000000"
   opacity="1.000000"
   stroke="none"
   d=" M369.595337,137.247543   C364.506500,136.213135 359.937103,135.459152 355.042938,137.049683   C352.864624,137.757584 349.164612,138.813538 348.077850,134.612656   C346.649078,129.089752 348.217285,124.789268 352.349487,123.671631   C354.899750,122.981857 354.742950,121.181313 354.665955,119.399193   C354.410919,113.495369 353.474121,107.322449 353.744385,101.778664   C354.052063,95.468018 354.136108,88.986893 354.619598,82.605011   C354.738281,81.038170 355.128235,79.258926 353.797028,77.891075   C347.876831,78.761894 345.592834,81.300842 345.360535,87.423439   C345.258270,90.119164 345.688934,92.959526 341.585083,92.967041   C337.186829,92.975090 337.629761,89.917305 337.632965,87.063515   C337.639343,81.404480 337.745239,75.742531 337.595703,70.087456   C337.501678,66.531425 339.123627,64.915092 342.403931,65.832428   C347.480225,67.252014 352.271637,66.107895 357.147522,65.057671   C359.445618,64.562675 361.777283,64.579323 364.079926,65.140549   C367.995880,66.094994 371.965363,66.686386 375.909790,65.574730   C379.862152,64.460838 381.068054,66.272690 381.095734,69.820168   C381.142456,75.810883 381.218933,81.801811 381.347382,87.791260   C381.402649,90.367348 381.154816,92.341988 377.729065,92.332405   C374.607361,92.323662 373.578522,90.874573 373.679443,88.057945   C373.751770,86.040092 373.460602,84.086067 372.633545,82.214569   C371.379517,79.376839 369.201508,77.985107 365.210632,77.333466   C365.210632,82.938698 364.833832,88.043770 365.294739,93.072060   C366.081177,101.651703 364.639557,110.175697 365.141937,118.736557   C365.317261,121.724030 365.607086,124.104469 369.410126,123.892159   C369.875977,123.866158 370.419678,124.061569 370.825195,124.316658   C373.661224,126.100571 373.054626,135.214111 369.595337,137.247543  z"
   id="path7" />
<path
   style="fill:#391515;fill-opacity:1;stroke-width:0.3592"
   d="m 350.33036,137.2108 c -1.87601,-0.75566 -3.07732,-5.03772 -2.3262,-8.29172 0.60031,-2.6007 1.54001,-3.71621 4.18207,-4.96452 2.04822,-0.96774 2.33417,-1.23056 2.54154,-2.33596 0.12852,-0.68505 -0.0404,-4.85129 -0.37544,-9.25833 -0.38821,-5.10692 -0.53201,-9.64109 -0.39652,-12.502779 0.11692,-2.469497 0.39308,-8.086907 0.61368,-12.483134 0.3566,-7.106226 0.33842,-8.088803 -0.1638,-8.855286 -0.50833,-0.775811 -0.70568,-0.830515 -1.97075,-0.546273 -4.69708,1.055363 -6.77684,3.500896 -7.10691,8.356806 -0.38067,5.600375 -0.81539,6.343895 -3.70917,6.343895 -1.35628,0 -2.01257,-0.20352 -2.7772,-0.861222 l -1.00123,-0.861222 -0.041,-10.722966 c -0.0225,-5.89763 0.10207,-11.329546 0.2769,-12.070924 0.19138,-0.811518 0.6811,-1.585948 1.23057,-1.945973 0.81788,-0.535901 1.16152,-0.547734 3.30849,-0.113923 3.32296,0.671431 7.8541,0.545043 12.06161,-0.336437 4.17666,-0.875015 6.78954,-0.936253 10.15649,-0.238036 4.61745,0.957535 6.99614,1.045692 10.33553,0.383048 3.56547,-0.707505 4.60961,-0.476358 5.28635,1.170268 0.2584,0.62875 0.46851,4.90816 0.57356,11.68227 0.19788,12.759865 0.15973,12.940645 -2.79177,13.229166 -3.20671,0.313469 -4.12292,-0.683928 -4.41374,-4.804852 -0.36584,-5.18399 -2.00243,-7.910298 -5.54394,-9.235346 -3.60363,-1.34829 -3.24165,-3.658828 -3.24958,20.742743 -0.004,11.804197 0.1387,22.049497 0.31673,22.767327 0.41997,1.69335 1.02271,2.1555 3.27562,2.51164 2.34229,0.37027 3.0482,1.08792 3.58433,3.6439 0.53535,2.55233 -0.0457,5.87887 -1.38512,7.93013 -0.86369,1.32266 -0.96681,1.37263 -2.40077,1.16327 -0.82408,-0.12031 -3.52501,-0.31576 -6.00208,-0.43434 -3.91487,-0.18739 -4.85721,-0.1164 -7.2069,0.54293 -2.92744,0.82144 -3.67444,0.88201 -4.88138,0.39585 z"
   id="path17" /><path
   style="fill:#391515;fill-opacity:1;stroke-width:0.3592"
   d="m 310.16886,136.8407 c -8.08144,-1.25578 -11.12186,-2.81683 -13.07466,-6.71298 -1.30271,-2.59912 -1.82128,-5.87117 -2.18816,-13.80681 -0.19486,-4.21467 -0.51534,-10.00681 -0.71219,-12.87142 -0.19686,-2.86462 -0.36,-7.390534 -0.36255,-10.057592 -0.006,-6.052536 1.19922,-18.625367 2.01161,-20.988932 0.80154,-2.332014 3.08125,-4.602442 5.37838,-5.356499 5.47639,-1.797674 18.79692,-1.708496 23.12836,0.154839 2.36152,1.015899 4.70606,3.610004 5.54129,6.13113 0.96972,2.927103 1.32967,13.780456 1.21327,36.582644 -0.10019,19.62497 -0.11382,19.95796 -0.87501,21.37238 -1.36217,2.53111 -3.50501,3.97195 -7.48835,5.03516 -2.59676,0.69311 -9.5908,0.98133 -12.57199,0.51808 z m 8.32178,-13.80143 c 0.6048,-0.35727 1.40283,-1.153 1.7734,-1.76829 0.76474,-1.26975 0.79813,-3.41721 0.19579,-12.59153 -0.23225,-3.53743 -0.22951,-8.31194 0.008,-14.008787 0.1982,-4.753296 0.29947,-9.751631 0.22505,-11.10741 -0.12586,-2.292719 -0.22507,-2.547297 -1.41901,-3.641461 -1.45237,-1.331004 -3.80661,-1.984739 -7.05733,-1.95971 -3.23911,0.02494 -6.75018,1.641322 -7.59557,3.496751 -0.54508,1.196307 -0.46646,7.123976 0.1707,12.870769 0.45575,4.110638 0.48133,5.972488 0.14976,10.900048 -0.44124,6.55747 -0.16947,14.28647 0.56475,16.06111 0.84173,2.03448 2.85866,2.64296 8.27371,2.49605 2.7057,-0.0734 3.88677,-0.26083 4.71071,-0.74754 z"
   id="path18" /><path
   style="fill:#391515;fill-opacity:1;stroke-width:0.3592"
   d="m 256.82772,136.48489 c -3.28297,-0.5163 -5.91127,-0.68215 -9.777,-0.61698 -6.81344,0.11488 -6.7117,0.19166 -7.21176,-5.44333 -0.43113,-4.85814 -0.18014,-5.42883 2.80082,-6.3685 1.09202,-0.34423 2.21953,-0.88448 2.50558,-1.20056 0.41766,-0.46151 0.53127,-2.16375 0.57689,-8.64336 0.059,-8.37424 -0.14451,-10.04852 -1.46071,-12.01987 -0.95085,-1.42415 -0.89733,-1.9185 0.36799,-3.398829 l 1.063,-1.24363 v -8.475906 c 0,-6.227392 -0.11911,-8.632024 -0.449,-9.064403 -0.24695,-0.323674 -1.48736,-1.122357 -2.75647,-1.774852 -1.84923,-0.950756 -2.4734,-1.50074 -3.143,-2.769448 -1.51156,-2.864004 -0.9591,-7.522556 1.09731,-9.252905 1.27895,-1.076173 2.88282,-1.00935 5.70165,0.237551 2.64063,1.168079 4.61186,1.2405 9.9663,0.366153 6.99245,-1.141823 11.92476,-1.096761 15.58617,0.142397 1.55902,0.527631 3.70837,1.539314 4.77633,2.248185 3.491,2.317195 4.78147,4.726128 4.78147,8.925613 0,2.910469 0.47144,4.286216 2.04606,5.97089 0.57507,0.615263 0.74813,1.033885 0.49266,1.19177 -0.77422,0.478496 -1.84341,3.114746 -2.59042,6.38706 -1.16794,5.116211 -2.46988,7.095942 -5.51589,8.387444 l -1.4368,0.60921 1.47798,0.50118 c 2.04572,0.69369 4.21031,2.64902 5.15326,4.65507 0.43604,0.92763 1.18516,3.58383 1.66472,5.90266 0.93613,4.52656 1.5523,6.3014 2.75007,7.92147 0.75837,1.02576 0.7584,1.02658 0.0435,1.83736 -0.39338,0.44613 -0.91725,1.28418 -1.16418,1.86236 -1.7919,4.1958 -5.56368,8.98984 -8.61174,10.94577 -4.34427,2.78772 -10.39521,3.49195 -18.73478,2.18043 z m 11.85359,-14.49369 c 1.75695,-0.92759 3.16631,-2.31083 4.06958,-3.99413 0.61394,-1.14411 0.77187,-2.05875 0.7753,-4.48999 0.004,-2.7028 -0.11133,-3.24993 -1.00334,-4.76744 -1.96641,-3.3453 -5.50952,-4.706 -11.75184,-4.51321 -4.60668,0.14228 -5.0085,0.38336 -5.41641,3.24963 -0.41003,2.88117 -0.37325,12.31416 0.0525,13.46102 0.68559,1.84685 1.14069,1.96974 6.80861,1.83848 4.20889,-0.0975 5.44966,-0.24799 6.4656,-0.78436 z m -3.84475,-24.65163 c 4.76225,-1.470909 7.18378,-4.032986 7.6651,-8.109989 0.43544,-3.688402 -1.5829,-7.497914 -4.89795,-9.24462 -1.96741,-1.036631 -1.99548,-1.040095 -6.7709,-0.835581 -5.01418,0.214739 -5.61056,0.404239 -6.20669,1.972173 -0.44243,1.163676 -0.42483,13.724913 0.0209,14.897197 0.1934,0.508673 0.80359,1.169912 1.35598,1.46942 1.49246,0.809213 5.97678,0.733778 8.83359,-0.1486 z"
   id="path19" /><path
   style="fill:#391515;fill-opacity:1;stroke-width:0.3592"
   d="m 285.20449,275.09056 c -6.49045,-0.40295 -12.06034,-1.44299 -17.93996,-3.34986 -7.52607,-2.44083 -8.14902,-2.44033 -10.85993,0.009 -0.75622,0.68319 -1.73817,1.26731 -2.18211,1.29804 -2.30143,0.15928 -4.3979,-0.48355 -4.95169,-1.51832 -0.19001,-0.35503 -0.34547,-4.05577 -0.34547,-8.22386 0,-8.0827 -0.0866,-8.59116 -1.92231,-11.28719 -1.23159,-1.80879 -1.20566,-2.81497 0.10087,-3.91434 2.34955,-1.97702 6.29435,-1.43053 10.04939,1.39218 2.50454,1.8827 4.10734,3.6607 6.31161,7.00154 4.88273,7.40038 13.21263,11.8527 24.11089,12.88723 12.3725,1.17448 23.13188,-3.82263 23.13188,-10.74341 0,-2.51331 -1.53087,-4.53032 -4.62776,-6.09732 -2.50773,-1.26889 -10.73255,-3.9222 -20.51621,-6.61847 -5.43289,-1.49725 -11.89849,-3.3883 -14.36798,-4.20234 -10.99682,-3.62497 -16.7003,-7.56173 -19.67486,-13.58035 -1.28932,-2.60876 -1.33832,-2.84668 -1.33832,-6.49813 0,-3.52426 0.0812,-3.96166 1.1572,-6.23336 3.43776,-7.25795 14.58723,-13.09919 27.25284,-14.27785 6.41235,-0.59672 13.21953,0.19873 23.07115,2.69599 4.79769,1.21615 6.34748,1.17968 9.52254,-0.22409 4.71091,-2.0828 7.575,-1.65149 9.06598,1.36529 0.58295,1.17954 0.71793,2.50168 0.89356,8.753 0.17724,6.30824 0.3176,7.66604 0.97937,9.4739 0.90624,2.47574 0.6781,3.24274 -1.19769,4.02649 -2.48496,1.03829 -6.08484,0.33561 -8.50633,-1.66039 -0.71471,-0.58912 -2.17799,-2.32224 -3.25172,-3.85137 -3.88476,-5.53237 -7.34457,-8.64363 -12.48827,-11.23016 -7.41483,-3.72858 -16.02815,-4.37322 -23.77113,-1.77909 -4.04397,1.35486 -5.42418,2.17927 -6.77853,4.0489 -1.40999,1.94644 -1.91486,3.90586 -1.4047,5.45168 0.87665,2.65629 5.91709,6.07542 11.3181,7.67753 1.38292,0.41021 8.03692,2.12456 14.78666,3.80965 13.39523,3.34417 17.09733,4.47487 21.90856,6.69136 l 3.17594,1.46312 2.15519,-0.47662 c 3.2196,-0.71202 8.34291,-0.62535 9.79422,0.16568 1.01567,0.55359 1.12117,0.73724 0.78471,1.36592 -0.2138,0.39949 -0.66103,0.81174 -0.99383,0.91611 -2.37808,0.74578 -3.43431,1.4423 -3.90865,2.57757 -0.46651,1.11651 -0.42551,1.50069 0.49967,4.682 0.79837,2.74527 1.00521,4.17501 0.99507,6.87807 -0.0117,3.11346 -0.11683,3.62747 -1.2003,5.8675 -1.99792,4.1306 -6.44559,8.09038 -12.52124,11.14771 -6.97743,3.51113 -15.25749,4.80781 -26.31641,4.12123 z"
   id="path20" /><path
   style="fill:#391515;fill-opacity:1;stroke-width:0.3592"
   d="m 490.48707,351.68073 c -16.85943,-4.27012 -27.79063,-9.78508 -44.28662,-22.34328 -7.63853,-5.81513 -11.0388,-8.74404 -17.44037,-15.02277 -8.84853,-8.67871 -15.98016,-17.56171 -19.80766,-24.67197 -0.9418,-1.74956 -2.34874,-4.35158 -3.12655,-5.78227 l -1.41418,-2.60125 -1.14386,0.58839 c -0.62913,0.32362 -4.37666,3.75714 -8.32786,7.63005 -7.59846,7.44791 -12.81353,11.97421 -19.57638,16.99087 -17.01693,12.62314 -35.76932,21.59152 -56.20488,26.88015 -8.25056,2.13521 -13.21402,2.90322 -20.18435,3.12319 -13.95643,0.44043 -23.72479,-2.47975 -31.22491,-9.33444 -1.33037,-1.21588 -1.94174,-2.04958 -1.94174,-2.64787 0,-1.44389 0.94756,-1.39661 2.96795,0.14812 6.4272,4.91403 12.41111,7.36077 20.3706,8.32924 14.45285,1.75854 38.40064,-3.90309 57.98669,-13.70896 11.26363,-5.6392 23.29278,-13.72624 33.79824,-22.72212 4.85635,-4.15852 14.56198,-13.49325 15.31747,-14.73211 1.06365,-1.74419 0.87813,-2.65401 -0.67335,-3.30226 -1.16592,-0.48715 -3.3036,-0.53694 -16.43338,-0.38277 -25.83208,0.30333 -41.78785,2.35463 -85.8597,11.03828 -22.26328,4.38662 -31.42971,5.81732 -44.7161,6.97928 -30.69921,2.68481 -55.82069,1.24662 -78.8124,-4.51198 -15.49619,-3.88123 -25.88507,-9.36446 -33.32474,-17.58871 -1.44492,-1.59731 -3.06362,-3.13218 -3.5971,-3.41081 -1.11052,-0.58004 -4.45931,-0.65283 -6.57323,-0.14288 -0.79024,0.19063 -3.05319,0.44961 -5.02879,0.57552 -4.89231,0.31177 -9.60764,-0.41967 -21.582747,-3.34792 l -9.729159,-2.37905 0.284525,-1.46755 c 0.156489,-0.80714 0.302926,-5.18525 0.325416,-9.72913 0.02249,-4.54387 0.162346,-8.57146 0.310793,-8.95019 0.243829,-0.62209 0.361953,-0.56793 1.222758,0.56065 0.52407,0.68709 1.532575,2.68725 2.241121,4.4448 4.044913,10.03339 10.849053,14.90033 20.831173,14.90033 5.56337,0 7.97854,-1.00077 9.53538,-3.95119 0.67453,-1.27831 1.29996,-20.78007 0.73301,-22.85593 -0.27214,-0.99643 -0.99809,-2.05791 -2.2109,-3.2328 -2.23109,-2.1613 -2.21699,-2.87341 0.08,-4.04143 1.02081,-0.51909 1.82675,-1.2252 2.04992,-1.796 0.21911,-0.56042 0.40253,-5.94954 0.4538,-13.33299 0.0746,-10.74329 0.009,-12.56792 -0.49332,-13.71145 -0.68207,-1.5529 -1.88765,-2.42452 -4.14692,-2.99818 l -1.64071,-0.41659 1.61232,-0.40599 c 7.02502,-1.76891 31.5348,-1.30856 33.47206,0.62869 0.26764,0.26765 0.1798,0.38033 -0.2965,0.38033 -0.37226,0 -1.39411,0.34723 -2.27077,0.77162 -1.22457,0.5928 -1.75417,1.13382 -2.28534,2.33461 -0.64816,1.46527 -0.68472,2.38223 -0.58486,14.66624 l 0.10653,13.10324 0.92915,0.92871 c 0.81897,0.8186 1.38399,0.97304 4.76512,1.30249 4.49575,0.43806 5.36308,0.12747 5.93394,-2.12498 0.18789,-0.74138 0.45155,-7.0157 0.58592,-13.94294 l 0.2443,-12.59499 -0.8962,-1.06506 c -0.4929,-0.58579 -1.31596,-1.28972 -1.82902,-1.5643 -1.25035,-0.66917 -1.17863,-0.90903 0.41418,-1.38527 4.97702,-1.48813 19.95903,-1.50332 28.98732,-0.0294 l 2.49634,0.40755 -2.18863,0.99349 c -1.80424,0.81901 -2.36885,1.3001 -3.21475,2.73924 l -1.02611,1.74575 -0.11114,12.27916 c -0.14068,15.54468 -0.38974,14.90724 6.27369,16.05716 7.16915,1.23719 16.10802,5.60544 15.45914,7.55459 -0.23767,0.71395 -1.26156,0.6188 -3.281,-0.30491 -4.06798,-1.86074 -11.48979,-4.15604 -13.43847,-4.15604 -4.28536,0 -5.08423,1.48494 -5.07651,9.43626 0.01,10.15942 1.9166,14.20584 8.07668,17.14003 4.32978,2.06237 7.62365,2.67971 14.18839,2.6592 5.19671,-0.0162 6.35107,-0.13228 9.37114,-0.94206 1.89439,-0.50794 4.23817,-1.33022 5.20839,-1.82728 3.38084,-1.73206 6.4082,-5.71048 7.30429,-9.59895 0.20294,-0.88067 0.37294,-4.09601 0.37777,-7.1452 0.008,-4.82127 -0.0849,-5.73745 -0.70965,-7.02807 -0.729,-1.50592 -2.40701,-2.72368 -4.40016,-3.19328 -1.47297,-0.34704 -1.21007,-1.20121 0.53018,-1.72261 2.1958,-0.65787 4.07247,-2.6764 4.4946,-4.83434 0.18764,-0.95925 0.31714,-6.51246 0.28776,-12.34048 -0.0639,-12.68673 0.015,-12.38936 -4.03501,-15.20493 l -2.64599,-1.83951 1.31895,-0.45663 c 4.95068,-1.71397 19.0403,-1.27358 23.84156,0.7452 l 1.103,0.46378 -1.87449,0.43268 c -2.1293,0.49151 -4.00815,1.77321 -4.776,3.25806 -0.85861,1.66036 -1.232,5.04166 -1.65305,14.96941 -0.38425,9.05984 -0.37245,9.48303 0.30705,11.01917 0.87946,1.98817 2.59621,3.32812 5.07757,3.96315 l 1.91034,0.48889 -1.57135,0.91281 c -0.86424,0.50204 -2.25499,1.25817 -3.09054,1.68028 -2.43296,1.22909 -2.64527,1.9741 -2.75839,9.67951 -0.0837,5.70151 -0.20898,7.01108 -0.83627,8.74198 -2.05513,5.67076 -6.71594,9.35108 -15.58568,12.30694 -9.87293,3.29017 -21.4575,4.13842 -34.43761,2.52162 -12.99098,-1.61817 -23.60926,-7.17409 -27.04696,-14.15209 l -1.15021,-2.33473 -0.17959,-7.7677 c -0.19985,-8.64326 -0.21392,-8.69325 -2.63096,-9.34409 -3.66251,-0.98622 -8.08404,1.31911 -9.17104,4.78165 -0.20314,0.64709 -0.54975,2.46964 -0.77023,4.05012 -1.26976,9.10183 -4.35899,14.57861 -10.36237,18.37105 -0.069,0.0436 0.33512,0.93875 0.898,1.98928 2.98648,5.5738 12.1276,11.40138 23.80462,15.17575 5.1211,1.65529 9.94613,2.80214 16.62664,3.95195 15.01161,2.5837 24.39935,3.25981 40.87327,2.94375 21.76249,-0.41753 37.21112,-1.88116 72.55832,-6.87429 44.80169,-6.32867 61.41779,-7.9378 84.95071,-8.22676 11.59111,-0.14233 12.99878,-0.37777 14.7579,-2.46837 1.36679,-1.62433 1.01501,-2.83651 -2.30042,-7.92717 -1.56292,-2.39976 -4.01222,-6.35306 -5.44289,-8.7851 -1.43067,-2.43204 -2.93774,-4.73541 -3.34904,-5.11859 -0.80493,-0.74991 -2.52562,-0.90747 -3.95896,-0.36252 -0.48343,0.18381 -2.13379,0.50872 -3.66746,0.72203 -3.47353,0.48312 -7.40376,0.0511 -12.99327,-1.42826 -7.00496,-1.85399 -7.5877,-1.62391 -10.29631,4.06524 -6.58741,13.8361 -6.13623,12.71081 -5.49109,13.69542 0.57242,0.87362 2.47746,1.64291 4.07847,1.64696 1.32201,0.003 2.54927,0.75741 2.99872,1.84248 0.35221,0.85033 0.32447,1.18411 -0.15986,1.9233 -0.32233,0.49193 -0.9477,0.98445 -1.3897,1.09448 -0.44201,0.11004 -6.64633,0.15301 -13.78736,0.0955 -12.18172,-0.0981 -13.03039,-0.14683 -13.73939,-0.78884 -0.47913,-0.43385 -0.75568,-1.12095 -0.75568,-1.87751 0,-1.46808 0.89007,-2.10915 3.4124,-2.45776 2.66852,-0.36881 4.4799,-1.3121 6.29436,-3.27782 2.26643,-2.45538 7.92504,-13.07682 9.16646,-17.20581 1.12993,-3.75818 2.59485,-6.85531 5.34679,-11.30414 2.37445,-3.83859 13.66975,-26.32655 13.98785,-27.84862 0.32466,-1.5534 -0.3981,-2.66511 -2.58703,-3.97924 -1.05354,-0.6325 -1.77266,-1.2383 -1.59804,-1.34622 0.17461,-0.10792 1.4407,-0.4086 2.81352,-0.66817 3.55874,-0.67289 26.42486,-0.58847 29.40834,0.10858 2.36105,0.55162 2.91946,1.17811 1.39032,1.55979 -3.06898,0.76604 -4.5736,3.10727 -3.69935,5.75628 0.24387,0.73894 1.46521,3.3055 2.71409,5.70345 1.24887,2.39796 3.2548,6.77705 4.45761,9.73132 1.20281,2.95426 2.58392,6.04879 3.06912,6.87673 1.66878,2.84756 4.53163,4.60159 8.21758,5.0348 l 2.05612,0.24166 -1.28674,1.06064 c -3.00753,2.47906 -3.41118,5.72419 -1.24502,10.00919 0.63858,1.26321 1.83887,3.93524 2.6673,5.93783 0.82843,2.0026 1.94417,4.38834 2.4794,5.30165 1.15,1.96233 1.03528,1.99311 4.9098,-1.31737 5.03381,-4.30101 8.79226,-9.91295 10.72245,-16.0103 1.5681,-4.95351 1.8919,-7.61 1.86438,-15.29564 -0.0134,-3.739 0.20704,-8.99606 0.48985,-11.68235 0.32819,-3.11735 0.40172,-5.3829 0.20325,-6.26289 -0.37725,-1.67267 -1.85636,-3.29632 -3.49578,-3.83738 -1.85036,-0.61067 -2.26074,-0.27724 -2.26074,1.8368 0,1.54912 -0.16353,1.99844 -1.04997,2.88487 -1.03549,1.0355 -2.56108,1.36945 -3.50735,0.76776 -0.68836,-0.43769 -1.2373,-2.27612 -1.00095,-3.35221 0.21642,-0.98539 2.25282,-3.10094 3.76281,-3.90906 0.95989,-0.51372 3.13725,-0.52087 5.70588,-0.0187 3.05942,0.59807 7.26776,0.4487 15.1224,-0.53675 7.59393,-0.95274 8.64075,-0.91035 10.09856,0.40895 0.58215,0.52684 0.52863,0.64637 -0.84243,1.88131 -2.69479,2.42724 -2.96538,3.50626 -2.96538,11.82512 0,4.00049 0.05,7.2737 0.11106,7.2738 0.21931,3.5e-4 9.27555,-5.85666 11.48182,-7.42573 3.32335,-2.36351 3.67311,-2.83132 3.67311,-4.91285 0,-1.2412 -0.26502,-2.23874 -0.86822,-3.26804 -0.87135,-1.48683 -1.37265,-1.85385 -3.91884,-2.8691 -2.74065,-1.09281 -0.93406,-2.70276 3.04278,-2.71159 5.77292,-0.0128 13.71008,-1.28902 19.23647,-3.09301 1.47466,-0.48138 5.45639,-2.06298 8.84827,-3.51468 13.67437,-5.85246 22.87419,-8.03782 35.27531,-8.37941 8.03106,-0.22122 12.39702,0.14125 18.80299,1.56107 9.87098,2.18782 17.98153,6.06997 22.16645,10.61011 1.49553,1.62243 4.26801,5.60581 6.01886,8.64762 0.54017,0.93841 1.06014,1.7062 1.15551,1.7062 0.0954,0 1.33694,-0.58593 2.75898,-1.30206 9.0755,-4.57034 19.11107,-6.63195 29.73619,-6.1087 14.25947,0.70222 24.49699,4.91562 33.22431,13.67391 4.91123,4.92864 7.49424,8.89228 9.24623,14.18847 1.80653,5.46091 2.65769,6.86504 4.82183,7.95417 0.94965,0.47794 1.80616,0.92151 1.90329,0.98572 0.0971,0.0642 -0.12705,0.28668 -0.49821,0.49438 -1.25372,0.70161 -3.49289,2.9199 -4.06945,4.03148 -0.31512,0.60753 -1.25763,2.68029 -2.09445,4.60613 -7.93361,18.25778 -25.10001,27.89609 -48.26939,27.10146 -9.00539,-0.30885 -15.27615,-1.88607 -22.78744,-5.73148 -10.44391,-5.34678 -17.4858,-13.4307 -21.06929,-24.18707 -1.96209,-5.88957 -3.60223,-6.45874 -9.86667,-3.42401 -4.00885,1.94205 -5.11924,2.92545 -5.58904,4.94984 -0.17633,0.75995 -0.32447,7.05447 -0.32917,13.98783 -0.01,14.13371 0.1426,13.33853 -2.70258,14.11655 -2.1468,0.58705 -4.84783,0.46572 -6.4656,-0.29043 -0.83776,-0.39157 -4.65662,-3.77688 -9.15959,-8.1197 -9.3023,-8.97147 -20.37132,-19.32951 -22.73094,-21.27084 -2.52977,-2.08135 -5.86178,-3.95528 -8.60922,-4.84188 -2.29292,-0.73992 -2.4246,-0.84196 -2.42489,-1.8791 -4.3e-4,-1.69096 -1.83942,-5.18653 -3.9328,-7.47549 -1.70045,-1.85932 -6.75899,-5.56401 -8.3695,-6.12952 -0.59232,-0.20798 -0.63373,0.78964 -0.71753,17.27898 -0.11893,23.39633 -0.1212,23.10645 0.1885,24.23016 0.38482,1.39602 1.81177,2.18701 4.43533,2.45856 3.08211,0.31901 4.0859,1.01476 4.0859,2.83209 0,2.55343 0.14051,2.5292 -14.53771,2.50621 -14.03899,-0.022 -15.18628,-0.15406 -15.76876,-1.81508 -0.83075,-2.369 0.61937,-3.55264 4.35246,-3.55264 2.23519,0 3.75996,-0.73217 4.42495,-2.12477 0.58625,-1.22773 0.84763,-18.14428 0.32029,-20.72936 -0.50596,-2.48034 -2.14413,-4.95458 -4.10277,-6.19672 -1.50397,-0.9538 -1.57168,-1.06155 -0.99265,-1.58018 0.34178,-0.30612 1.53716,-0.95985 2.65639,-1.45274 1.11926,-0.49289 2.21033,-1.22376 2.42459,-1.62416 0.56,-1.04634 0.52968,-12.26962 -0.0331,-12.26962 -0.23251,0 -1.76608,0.6502 -3.40791,1.44489 -3.67737,1.77996 -7.09721,4.86406 -8.67406,7.82252 -2.05929,3.86363 -2.16906,4.83152 -2.26086,19.9358 -0.083,13.6554 -0.0764,13.79599 0.72731,15.45618 0.44608,0.92149 1.45694,2.22829 2.24635,2.90399 l 1.43529,1.22856 -2.09546,0.299 c -2.73151,0.38976 -12.72772,0.38094 -22.21064,-0.0196 -7.44117,-0.31431 -13.50615,0.0489 -14.32792,0.85815 -0.42914,0.42258 1.61147,2.42912 2.6977,2.65267 0.46983,0.0967 3.35964,0.66118 6.42182,1.25442 8.87386,1.71916 17.58907,4.59335 29.5566,9.74748 7.81543,3.3659 10.6702,5.0618 13.89743,8.25587 4.21966,4.17631 6.48248,9.13233 6.46681,14.16378 -0.009,2.81464 -0.74185,4.86769 -2.2256,6.23276 -0.82824,0.76199 -0.92713,0.77718 -1.39437,0.21409 -0.37472,-0.45157 -0.50292,-1.80687 -0.50292,-5.3162 0,-4.63756 -0.019,-4.74875 -1.23195,-7.21847 -1.53503,-3.12549 -4.12501,-5.75304 -8.62689,-8.75209 -7.94517,-5.29289 -15.25706,-8.09696 -31.96267,-12.25757 -5.82428,-1.45056 -7.39418,-1.72796 -7.81284,-1.3805 -0.28817,0.23916 -0.45489,0.69889 -0.37049,1.02163 0.20343,0.7779 6.3447,9.97572 8.63545,12.93337 2.63632,3.4038 7.66006,9.14666 13.03073,14.89597 15.48675,16.57857 32.33239,27.83999 50.18037,33.54588 15.00628,4.79742 29.87959,4.69066 44.33561,-0.31826 10.32426,-3.57729 15.87978,-9.92654 16.5109,-18.86988 0.37845,-5.36223 -1.46597,-10.74956 -5.48002,-16.00662 -6.81362,-8.92351 -16.01991,-15.19679 -27.63865,-18.83328 -2.37072,-0.742 -4.42857,-1.52628 -4.57301,-1.74284 -0.15776,-0.23654 0.16627,-0.57401 0.81161,-0.84519 1.39111,-0.58458 4.79363,0.0877 10.68152,2.11045 13.39825,4.60292 23.39367,13.16211 29.02638,24.85563 5.02046,10.42249 3.72393,19.43214 -3.86114,26.83119 -4.46701,4.35744 -8.06468,6.304 -17.61605,9.53129 l -6.85906,2.3176 -15.29949,-0.0263 -15.29954,-0.0263 z m 117.09907,-81.02775 c 7.17659,-1.51343 10.54017,-5.03859 13.87692,-14.54366 1.03112,-2.93719 1.19872,-3.8876 1.20368,-6.82479 0.005,-3.05806 -0.0936,-3.58024 -0.95145,-5.0288 -0.52648,-0.88901 -1.53673,-2.17343 -2.245,-2.85426 -1.51047,-1.45194 -1.69958,-2.53373 -0.44289,-2.53373 1.40422,0 3.23686,-1.495 3.75888,-3.06633 0.92088,-2.77185 -0.4801,-10.74321 -3.01627,-17.16231 -2.6167,-6.62282 -3.58998,-7.573 -9.3338,-9.11206 -3.12698,-0.83787 -4.27954,-0.95961 -9.31566,-0.98392 -5.13386,-0.0248 -6.00658,0.0618 -8.17761,0.81168 -3.58025,1.23655 -6.54164,3.34887 -7.81805,5.57657 -2.54228,4.43685 -4.66303,12.52827 -4.65304,17.75291 0.007,3.61314 0.40755,4.3417 2.81767,5.1239 1.05874,0.3436 2.16062,0.86041 2.44866,1.14845 0.45884,0.45883 0.30676,0.66295 -1.22727,1.64733 -4.29316,2.75491 -5.02118,4.9569 -3.85088,11.64727 1.16011,6.63215 2.77726,10.42668 5.78948,13.58469 3.43542,3.60165 8.17409,5.28027 15.03024,5.32426 1.97559,0.0127 4.72347,-0.21556 6.10639,-0.5072 z M 419.01637,268.8432 c 1.17511,-0.30607 2.51912,-0.91222 2.9867,-1.347 0.75968,-0.70637 0.83025,-1.01469 0.6632,-2.89743 -0.22425,-2.52744 -0.59632,-3.02598 -1.8366,-2.46086 -0.89728,0.40883 -3.88974,3.89717 -4.59212,5.35309 -0.38653,0.80123 -0.18505,1.90871 0.34726,1.90871 0.16225,0 1.25645,-0.25043 2.43156,-0.55651 z m -45.82979,-24.25715 c 4.07067,-0.873 4.12877,-2.75868 0.14303,-4.64185 -2.67198,-1.26245 -2.94349,-2.0621 -1.01276,-2.9828 2.35491,-1.12298 2.32586,-1.57462 -0.53762,-8.35873 -1.57782,-3.73814 -2.96132,-6.47991 -3.59328,-7.12104 l -1.02763,-1.04253 -1.60368,2.47933 c -3.07108,4.74798 -7.79183,14.72389 -7.79183,16.46575 0,3.56465 8.96286,6.58749 15.42377,5.20187 z m 152.56936,-0.25332 c 1.0567,-0.6719 1.18989,-2.5254 1.18989,-16.55837 0,-15.82283 -0.0971,-16.66045 -2.26077,-19.49718 -0.67777,-0.88862 -1.98803,-1.95595 -3.1338,-2.55281 -2.6463,-1.37851 -2.76982,-1.55887 -1.37351,-2.00501 4.47965,-1.43126 15.47224,-1.4746 21.05312,-0.083 2.9727,0.74123 5.83014,1.95532 5.83014,2.47713 0,0.15263 -0.89165,0.58059 -1.98142,0.95102 -2.41738,0.82169 -4.66931,2.67763 -5.14518,4.24044 -0.51204,1.68154 -0.82296,23.36911 -0.35431,24.71349 0.72023,2.06604 3.42913,2.65453 7.14631,1.55248 4.43762,-1.31565 7.73615,-3.96814 8.94177,-7.19046 1.66956,-4.46229 3.99506,-8.2074 7.49323,-12.0675 2.4723,-2.72805 2.88488,-3.96777 2.22959,-6.69925 -1.1567,-4.82169 -4.99798,-8.79399 -11.6848,-12.08335 -11.32632,-5.57161 -23.43501,-7.41705 -35.2349,-5.37001 -7.62857,1.32339 -22.79182,6.84006 -29.78023,10.83459 -1.58048,0.90339 -2.9333,1.69373 -3.00629,1.75631 -0.22593,0.19372 16.81062,19.19085 20.05505,22.36302 6.91815,6.76405 10.01467,8.92761 14.00078,9.78248 2.42653,0.5204 2.8529,0.99677 2.63358,2.94255 -0.13122,1.16435 -0.0213,1.72338 0.42712,2.17179 0.62443,0.62445 2.20743,0.79677 2.95463,0.32164 z"
   id="path21" /><path
   style="fill:#391515;fill-opacity:1;stroke-width:0.3592"
   d="m 384.61755,136.65199 c -1.30052,-0.70565 -1.49616,-1.68564 -1.20421,-6.03193 0.41351,-6.15573 0.4346,-6.22336 2.01962,-6.47681 2.62346,-0.41951 3.92563,-2.15158 4.4857,-5.96658 0.13051,-0.88902 0.70731,-3.39443 1.28176,-5.56759 1.18938,-4.49943 1.37574,-8.39242 0.50186,-10.48391 -0.58802,-1.40734 -0.59663,-1.38195 1.25621,-3.704477 0.60539,-0.758853 6.36038,-20.082711 6.0358,-20.266732 -0.0567,-0.03215 -0.91132,-0.257269 -1.89912,-0.500254 -3.62709,-0.892215 -4.86739,-3.49371 -4.13333,-8.669541 0.61286,-4.321185 1.1894,-4.645274 5.97918,-3.361034 4.63655,1.243154 8.99459,1.280495 13.65382,0.11699 4.1085,-1.025977 4.96727,-0.854826 5.88805,1.173481 0.99697,2.196114 0.92367,5.335383 -0.17992,7.70578 -0.71106,1.52728 -1.18397,2.031108 -2.51218,2.6764 -1.12603,0.547071 -1.58313,0.968425 -1.46596,1.351334 0.0936,0.306018 0.90737,4.031653 1.80826,8.279189 2.28479,10.772286 2.14079,10.348825 4.17301,12.272335 l 1.77065,1.675949 -0.35902,1.55685 c -0.99621,4.31987 -0.1222,12.01933 1.78981,15.76718 1.15392,2.26189 3.77931,4.88607 5.57405,5.57148 1.4588,0.55712 1.58678,0.71408 1.84437,2.26201 0.39147,2.35248 0.2702,6.87674 -0.2415,9.00974 l -0.43429,1.81034 -1.49112,-0.26797 c -2.47182,-0.44421 -10.31144,-0.3034 -12.70732,0.22825 -2.66597,0.59158 -4.13154,0.17693 -4.71935,-1.33523 -0.32234,-0.82923 -0.58438,-5.88591 -0.4519,-8.7206 0.0579,-1.23858 1.6199,-2.75896 3.12453,-3.04123 1.79798,-0.3373 2.07371,-0.88545 1.83988,-3.65769 -0.21318,-2.52735 -2.70092,-9.64386 -3.5699,-10.21217 -0.99465,-0.65049 -2.33505,-0.73773 -5.7061,-0.37134 -6.44508,0.70048 -7.82843,2.26369 -8.1294,9.18639 -0.16182,3.7223 -0.12122,4.0536 0.57318,4.67714 0.41104,0.3691 1.46705,0.75221 2.34669,0.85135 l 1.59935,0.18028 0.23934,3.63864 c 0.13163,2.00126 0.18627,4.68783 0.12142,5.97016 -0.10575,2.09109 -0.21254,2.37671 -1.03558,2.76979 -0.73696,0.35196 -1.30282,0.33577 -2.87359,-0.0823 -2.50256,-0.66599 -7.09444,-0.6648 -9.85832,0.003 -2.71682,0.656 -3.70141,0.65275 -4.93443,-0.0163 z m 24.68916,-33.35843 c 0.7843,-0.3277 1.31423,-0.8393 1.45649,-1.40607 0.30137,-1.20078 -2.23178,-12.163854 -3.31172,-14.332585 -0.46729,-0.938409 -0.9968,-1.706198 -1.17669,-1.706198 -0.76698,0 -2.26722,4.293713 -3.26614,9.347733 -0.58536,2.961603 -1.06429,5.71417 -1.06429,6.11682 0,0.40264 0.39676,1.12883 0.88167,1.61375 0.74267,0.74267 1.22585,0.88168 3.06474,0.88168 1.20068,0 2.73786,-0.23181 3.41594,-0.51513 z"
   id="path22" /><path
   style="fill:#391515;fill-opacity:1;stroke-width:0.3592"
   d="m 451.87311,136.43163 c -3.50235,-1.0972 -5.24012,-1.1685 -7.68923,-0.31552 -1.16689,0.40642 -2.58124,0.73894 -3.14299,0.73894 -1.28885,0 -2.35693,-1.05035 -2.62779,-2.58416 -0.3848,-2.17907 -1.54374,-19.74412 -1.35451,-20.52905 0.53216,-2.20734 3.43783,-3.30996 5.95307,-2.25902 1.63071,0.68135 1.87585,1.29959 2.33585,5.89103 0.6608,6.59559 1.63375,7.44801 8.5012,7.44801 5.34048,0 6.68075,-0.54062 8.07763,-3.25824 0.75857,-1.4758 0.9011,-2.24325 0.89448,-4.81624 -0.006,-2.5156 -0.15922,-3.34729 -0.85761,-4.66985 -1.39459,-2.64093 -4.89894,-5.94585 -10.9881,-10.36275 -10.10062,-7.326706 -13.4776,-11.611531 -14.76921,-18.73967 -0.6951,-3.836172 -0.45364,-9.059876 0.52061,-11.262313 1.41593,-3.200959 4.6255,-5.833603 8.6138,-7.065465 3.41282,-1.054109 5.8806,-0.924938 10.43057,0.545969 l 3.88448,1.255771 2.66427,-0.708517 c 2.79206,-0.742503 4.54996,-0.894377 5.21469,-0.450526 1.23338,0.823552 1.36419,2.000242 1.51508,13.629299 l 0.15012,11.569401 -1.04877,1.048776 c -1.25225,1.252251 -3.37471,1.708719 -5.40416,1.162247 -2.45136,-0.660083 -2.7612,-1.306407 -3.00055,-6.259156 -0.11599,-2.399917 -0.34235,-4.686765 -0.50303,-5.081884 -0.59489,-1.462853 -2.11158,-3.144034 -3.27492,-3.630109 -2.41698,-1.00988 -7.02592,-0.260137 -9.39355,1.528062 -3.49503,2.63968 -2.86754,6.071771 2.29699,12.563551 2.45515,3.086106 4.66686,4.749352 7.79432,5.861469 2.50735,0.891607 2.746,1.087534 8.11947,6.665805 8.54243,8.86802 10.28444,12.05092 10.2227,18.67838 -0.0403,4.32446 -0.85651,6.79639 -3.0772,9.31923 -1.88427,2.14064 -4.29837,3.34931 -8.36675,4.18899 -4.27588,0.88251 -8.66981,0.844 -11.69096,-0.10246 z"
   id="path23" /></svg>
