<?xml version="1.0" encoding="UTF-8" standalone="no"?>
<svg
   version="1.1"
   id="Layer_1"
   x="0px"
   y="0px"
   width="100%"
   viewBox="0 0 736 352"
   enable-background="new 0 0 736 352"
   xml:space="preserve"
   sodipodi:docname="botas jusaino sin fondo.svg"
   inkscape:version="1.3.2 (091e20e, 2023-11-25, custom)"
   xmlns:inkscape="http://www.inkscape.org/namespaces/inkscape"
   xmlns:sodipodi="http://sodipodi.sourceforge.net/DTD/sodipodi-0.dtd"
   xmlns="http://www.w3.org/2000/svg"
   xmlns:svg="http://www.w3.org/2000/svg"><defs
   id="defs7" /><sodipodi:namedview
   id="namedview7"
   pagecolor="#ffffff"
   bordercolor="#000000"
   borderopacity="0.25"
   inkscape:showpageshadow="2"
   inkscape:pageopacity="0.0"
   inkscape:pagecheckerboard="0"
   inkscape:deskcolor="#d1d1d1"
   showgrid="false"
   inkscape:zoom="1.9685622"
   inkscape:cx="247.64267"
   inkscape:cy="230.37118"
   inkscape:window-width="2560"
   inkscape:window-height="1369"
   inkscape:window-x="-8"
   inkscape:window-y="-8"
   inkscape:window-maximized="1"
   inkscape:current-layer="Layer_1" />
<path
   fill="#000000"
   opacity="1"
   stroke="none"
   d="m 529.50298,353 c -18.0956,-3.43034 -34.61123,-9.07246 -49.48427,-18.4112 -22.86856,-14.35904 -43.94675,-30.51434 -59.58812,-51.91314 -3.4823,-4.76408 -6.09137,-10.0729 -9.28407,-15.43592 -4.57893,1.96491 -7.25644,5.44458 -10.34497,8.33517 -28.46004,26.6357 -61.96765,45.20069 -101.36516,54.38936 -15.43886,3.6008 -31.0339,5.22377 -46.7553,1.66945 -7.01366,-1.58568 -13.35128,-4.66094 -18.8478,-9.0387 -1.70226,-1.35578 -3.96465,-2.68339 -2.48441,-5.68489 0.82457,0.24429 1.77007,0.27935 2.33121,0.72626 17.51835,13.9507 37.868,12.88921 58.45506,8.98313 41.73599,-7.91886 75.68924,-28.5387 105.20143,-56.1155 1.73208,-1.61854 3.95633,-3.15697 3.92469,-5.87498 -2.04879,-1.85041 -4.56394,-1.12657 -6.85337,-1.2351 -32.38437,-1.53517 -64.22661,2.45697 -96.0199,7.61592 -27.62642,4.48287 -54.90306,10.81904 -82.89094,13.40235 -37.64668,3.47474 -75.11094,3.54224 -112.01702,-5.45972 -16.343696,-3.98644 -31.555332,-10.09363 -42.639772,-22.5815 -2.676455,-3.01541 -6.008318,-3.24312 -9.365836,-2.4932 -11.632502,2.5981 -22.743161,0.18009 -33.883654,-2.44639 -4.792259,-1.1298 -9.6039457,-2.18924 -15.265865,-3.47591 2.1241997,-8.03225 0.092847,-16.40702 1.2374311,-25.6089 3.5209976,2.38193 4.1164887,5.35594 5.2834342,7.96887 5.6181477,12.57964 16.3700367,18.44521 30.8382997,16.87378 5.583108,-0.60638 8.569922,-3.15833 8.619226,-8.58702 0.05442,-5.99276 0.422078,-11.98371 0.690974,-17.974 0.166691,-3.71364 -0.1354,-7.13007 -3.960453,-9.53363 -2.229704,-1.40108 -2.646242,-3.67177 0.32602,-4.52532 4.092333,-1.17522 3.688602,-3.91813 3.697127,-6.69539 0.01965,-6.40035 -0.16693,-12.80589 0.05464,-19.19972 0.206261,-5.95186 1.067398,-12.00981 -8.921615,-12.5648 5.521664,-3.47454 42.432196,-3.21369 48.17703,0.31634 -11.276478,1.08858 -8.444759,8.3923 -8.524394,14.39256 -0.08758,6.59941 0.101794,13.20306 -0.05505,19.80029 -0.166522,7.00371 6.120605,4.86982 9.819852,5.71533 4.093275,0.93555 5.422016,-1.70167 5.438787,-5.36425 0.04024,-8.79272 0.274508,-17.59021 0.721088,-26.37318 0.193446,-3.80511 -2.518455,-5.16525 -5.409348,-6.58604 3.261666,-3.73599 37.948158,-2.83254 44.569058,-0.12806 -10.79835,1.58901 -9.41538,8.77062 -9.56006,15.15163 -0.13143,5.7977 0.29108,11.61899 -0.11724,17.39451 -0.35134,4.96994 2.12296,6.87147 6.99011,7.3249 5.67288,0.52849 10.91702,2.45917 15.99274,4.71692 2.40997,1.07199 5.29994,1.93026 5.68245,5.10975 -2.48952,1.47232 -4.13031,-0.48265 -6.02693,-1.06665 -4.50386,-1.38678 -8.87225,-3.31596 -13.48098,-4.20445 -6.31711,-1.21782 -8.91232,1.00686 -9.0821,6.82863 -0.0699,2.39833 -0.0758,4.80196 0.007,7.19973 0.3938,11.4455 5.01384,16.47984 17.09519,19.39252 9.10833,2.1959 18.02604,1.57352 26.86556,-0.8717 8.14236,-2.25238 13.20463,-8.5753 13.54741,-16.49113 0.0605,-1.39813 -0.0656,-2.80603 0.0471,-4.19886 0.49327,-6.09099 0.57159,-11.94866 -7.94519,-12.91692 0.17079,-1.13762 0.16004,-1.79784 0.28924,-1.82206 8.08778,-1.51847 8.32661,-6.88258 7.82949,-12.94886 -0.35823,-4.3717 0.0219,-8.7945 0.0603,-13.19462 0.0855,-9.79353 0.0824,-9.79355 -9.00353,-15.03558 3.80599,-3.17065 29.07669,-3.05301 35.67391,1.05255 -11.92857,0.50489 -10.57165,8.208 -11.20267,14.82515 -0.2465,2.5849 -0.65354,5.20374 -0.44544,7.76961 0.56686,6.9898 -4.35692,16.24499 9.80764,17.82345 -3.67197,3.29486 -8.97083,3.04781 -9.6012,7.23533 -0.5028,3.33999 -0.43406,6.78898 -0.25896,10.17368 0.4932,9.53303 -4.21094,16.01677 -13.31058,20.07213 -15.74683,7.0179 -32.45775,7.76624 -49.47287,6.47056 -9.13231,-0.69545 -17.92037,-2.64662 -26.12239,-6.5189 -9.596252,-4.53044 -15.980439,-10.92255 -14.602474,-21.77199 0.175483,-1.38146 0.160238,-2.80972 0.0083,-4.19526 -0.361316,-3.29534 1.621982,-7.88886 -4.280573,-8.52 -5.435062,-0.58114 -10.521631,2.92589 -11.088724,7.74696 -1.179663,10.02881 -3.538869,19.37431 -13.922383,25.03624 2.906554,6.1526 7.843589,9.59664 13.238228,12.5877 16.753169,9.28874 35.593936,12.04114 54.459416,14.4445 16.54691,2.108 33.24806,1.84437 49.892,1.3282 23.77127,-0.73728 47.35479,-3.48093 70.89856,-6.47437 43.8696,-5.57765 87.62786,-12.23859 132.14749,-11.44476 1.90512,0.034 3.92437,-0.17375 5.71196,-0.7453 4.80632,-1.53697 6.49757,-3.82294 2.96175,-8.3914 -4.39278,-5.67566 -8.14266,-11.78923 -11.9459,-17.83412 -1.42076,-2.25818 -2.99342,-3.24567 -5.74222,-2.40478 -8.68105,2.65562 -17.22424,0.94039 -25.47311,-1.40502 -5.16637,-1.46898 -7.59762,-0.10426 -9.53369,4.11076 -2.60887,5.67977 -5.60075,11.2094 -8.30807,16.56562 1.36855,2.98098 3.96148,2.69625 6.25427,2.96175 2.21421,0.25635 3.74707,1.27876 3.80726,3.39277 0.0653,2.29469 -1.70854,3.10397 -3.8818,3.10112 -10.60705,-0.014 -21.21465,-0.0379 -31.82032,-0.17493 -2.05993,-0.0266 -3.84166,-0.92224 -3.99165,-3.17594 -0.15705,-2.35838 1.51603,-3.15558 3.68909,-3.24722 6.74869,-0.2847 10.39842,-4.19741 13.09869,-9.33035 2.743,-5.21411 6.71729,-10.15116 8.0695,-15.64688 1.85171,-7.52583 7.21988,-12.97472 10.69845,-19.4873 3.73409,-6.9909 7.54943,-13.94488 11.35319,-20.90385 4.55689,-8.33672 4.56779,-8.33163 -3.6312,-12.30887 3.88258,-2.67272 40.11475,-2.87813 46.61946,-0.26413 -0.0571,0.37316 -0.0325,1.04032 -0.1852,1.07691 -7.11863,1.70659 -7.80359,4.99317 -4.17443,10.73334 3.68905,5.83493 6.47991,12.20887 9.11792,18.54095 2.57502,6.18081 6.23489,10.77115 16.56687,10.66337 -9.39908,5.43155 -5.74678,10.48146 -3.09612,15.38388 2.392,4.42408 3.62506,9.38836 6.92085,13.32345 15.85865,-10.25015 22.04371,-24.38224 21.11729,-41.70116 -0.29777,-5.56546 0.0134,-11.15935 0.93138,-16.74344 0.71383,-4.34251 -1.02068,-7.86847 -6.51116,-8.70285 -0.35042,0.36903 -0.87965,0.68969 -0.83603,0.91613 0.58692,3.04518 0.31235,5.68649 -3.64494,6.4598 -1.63101,0.31876 -3.09872,-0.30547 -3.68148,-1.81157 -1.27474,-3.29452 0.84115,-5.25185 3.45795,-6.96882 1.88668,-1.23799 4.10711,-1.68836 6.19678,-1.21806 10.09357,2.27154 19.93164,-0.15297 29.86217,-1.06637 2.55634,-0.23513 5.1718,-0.0508 6.89175,2.48727 -10.41055,5.84292 -4.04701,14.93004 -6.39686,24.21833 7.20649,-4.37204 13.12657,-7.46613 18.37353,-11.33855 3.01547,-2.22554 1.28894,-7.94935 -2.32915,-9.68609 -1.47406,-0.70757 -3.47591,-0.5028 -4.56859,-2.54669 1.31543,-2.14758 3.76019,-2.04362 6.00917,-2.05902 11.86808,-0.0813 22.9412,-2.12605 34.01127,-6.87523 21.89765,-9.39433 45.10092,-13.84108 69.42918,-9.9523 6.39737,1.0226 12.63488,2.70434 18.63584,5.06436 10.91493,4.29252 15.69844,8.57124 22.95649,20.87689 8.90428,-4.34746 18.33048,-7.7191 28.46163,-8.56647 26.15439,-2.18758 49.0718,3.31341 64.90052,24.49077 1.93755,2.59225 3.55671,5.58255 4.43865,8.60842 1.41498,4.85477 2.39018,9.68457 10.12347,10.932 -8.0477,2.49959 -8.71095,8.94114 -11.59514,14.11583 -10.35437,18.57759 -27.8236,27.41656 -49.59294,29.40359 -14.62515,1.33491 -28.94208,-0.38172 -42.22331,-6.87703 -13.45679,-6.58117 -22.84103,-16.37915 -27.2264,-29.90668 -1.7056,-5.26146 -4.05653,-6.56549 -9.80327,-4.09897 -9.75361,4.18621 -9.92243,3.851 -9.91395,13.96548 0.006,6.2004 0.17129,12.40575 -0.0553,18.5989 -0.10161,2.77775 1.66334,6.76104 -2.3889,7.92135 -4.24842,1.21656 -8.96652,1.51624 -12.79617,-1.89536 -9.5047,-8.46725 -18.9462,-17.00102 -28.66315,-25.25699 -7.26638,-6.17395 -14.00346,-13.22019 -24.47028,-14.9191 1.60961,-4.94377 -6.18402,-13.75837 -16.12458,-17.94306 0,7.28921 0.0313,14.20506 -0.008,21.12056 -0.0467,8.20023 -0.0324,16.4034 -0.28538,24.59892 -0.13196,4.27366 1.02055,7.05027 6.36152,6.93413 2.77833,-0.0604 5.44751,0.57268 5.34102,3.83462 -0.10702,3.2799 -3.08482,2.86108 -5.34724,2.87053 -9.74272,0.0408 -19.48635,-0.0104 -29.2289,-0.099 -2.59567,-0.0236 -5.69484,0.0443 -5.78464,-3.32992 -0.0955,-3.58875 3.17331,-3.26857 5.67842,-3.24209 4.99559,0.0529 7.04547,-2.12441 6.85107,-6.64925 -0.17156,-3.99347 -0.23301,-8.01244 0.0501,-11.99633 0.50171,-7.06064 0.21152,-13.70919 -8.09798,-17.26599 2.2983,-3.55508 9.05034,-1.91273 8.23983,-7.68462 -0.51289,-3.65261 -0.0958,-7.41664 -0.0958,-11.3848 -12.38609,3.86369 -18.69052,11.50608 -18.72914,21.88658 -0.026,7.00035 -0.0549,14.00072 -0.0556,21.00108 -4.7e-4,5.48796 -1.63205,11.38404 6.48237,15.53266 -18.10763,3.51809 -34.51638,-2.03776 -51.08879,1.4339 1.30118,2.67845 3.6912,3.03984 5.88233,3.33234 17.74811,2.36936 34.23537,8.43081 50.40792,15.13409 9.48778,3.9326 17.39325,9.94405 20.13844,19.91831 1.40035,5.08793 1.26701,9.99368 -3.73006,13.73476 -2.78082,-1.95275 -1.67633,-3.89975 -1.45513,-5.49085 1.04109,-7.48832 -1.97617,-13.36048 -8.16792,-17.90601 -16.30229,-11.96801 -36.07196,-15.50958 -55.47131,-19.91978 -0.44688,0.40376 -0.89375,0.80749 -1.34063,1.21121 4.40526,5.93121 8.31953,12.24398 13.30778,17.72223 15.09361,16.57608 31.24201,32.42259 51.40326,43.68956 26.00955,14.5353 53.9848,21.55249 84.28489,12.56783 9.86772,-2.92605 18.8152,-7.44539 22.24053,-17.6103 3.3116,-9.82761 -0.46525,-18.15628 -6.92257,-25.59093 -9.48559,-10.9213 -21.81501,-18.07175 -36.37736,-21.94139 -1.4425,-0.38329 -2.88292,-0.78511 -4.28617,-1.27228 -0.2987,-0.10372 -0.43066,-0.61725 -0.81145,-1.20949 2.16252,-1.39329 4.59622,-0.9911 6.71735,-0.53617 20.59597,4.41767 37.20181,14.12443 46.82539,32.02776 8.30287,15.44644 3.65154,28.86211 -12.16687,38.16714 -7.4448,4.37937 -15.93126,6.06328 -24.4974,8.82096 C 555.28408,353 542.69797,353 529.50298,353 M 640.49599,212.96297 c 1.70417,2.28985 5.66721,0.78543 7.359,4.04528 -4.86955,2.28549 -8.95327,5.0566 -8.08782,11.18096 1.96736,13.92144 6.10222,27.32166 29.87406,26.40249 10.74689,-0.41552 17.7014,-4.29402 21.40204,-13.30927 3.35037,-8.16223 7.657,-16.54776 -2.48778,-23.57424 -0.1774,-0.1229 0.0465,-0.74019 0.13344,-1.65716 7.89958,-0.76013 6.49515,-6.25847 5.925,-11.15344 -0.7231,-6.20906 -3.24776,-11.9753 -5.93315,-17.64645 -1.2709,-2.68394 -3.63141,-4.5688 -6.64487,-5.36785 -8.58145,-2.2755 -17.22197,-3.81616 -26.06858,-0.95486 -4.67036,1.51053 -8.795,3.77082 -10.76887,8.05282 -3.39414,7.36267 -5.91111,14.97663 -4.70247,23.98172 m -99.10095,-10.12901 c 6.60981,4.91671 11.5236,12.10121 20.99033,13.21229 1.48413,0.1742 2.93233,1.02504 2.36076,2.91614 -0.6416,2.12289 -0.099,3.78813 2.52759,3.7384 2.66192,-0.0504 2.7233,-2.17231 2.73717,-3.99623 0.0628,-8.19012 -0.27786,-16.39874 0.21069,-24.56579 0.48887,-8.1731 0.35962,-15.6685 -9.8609,-18.92081 -0.21379,-0.068 -0.2195,-0.69378 -0.30735,-1.06294 8.56272,-3.72964 33.24639,-2.03452 37.49291,2.79311 -4.79152,1.68483 -10.51225,2.46283 -10.57584,8.83396 -0.0816,8.17437 -0.25114,16.34801 -0.32608,24.52241 -0.0194,2.10972 0.50187,3.90886 3.25475,4.4779 5.32844,1.10143 15.48529,-3.4606 17.24593,-8.23893 2.28272,-6.19552 5.84895,-11.57414 10.90571,-16.07671 2.73052,-2.43128 2.9811,-4.96078 1.78863,-8.13749 -2.65058,-7.06128 -8.74091,-10.70393 -15.48774,-13.65913 -18.38843,-8.05441 -37.25772,-9.42204 -56.6616,-3.31926 -11.19262,3.52021 -22.25302,7.25795 -30.65585,12.28199 7.97831,8.28612 15.83955,16.45069 24.36089,25.20109 m -175.03491,-3.77258 c -0.82191,-1.5709 -1.14259,-3.44738 -3.60309,-4.62805 -4.93664,6.48685 -8.41418,13.68601 -11.8747,20.8937 -0.4717,0.98252 -0.37099,1.86969 0.32968,2.77747 3.78179,4.89997 18.31674,6.77457 23.38403,2.97181 -0.53672,-3.91656 -5.74302,-2.98849 -7.25949,-5.72544 0.36857,-2.56532 4.3169,-1.31155 4.42894,-4.56354 -1.50927,-3.28499 -3.26804,-7.11308 -5.40537,-11.72595 m 62.04714,49.31574 c -0.75883,1.257 -2.72532,2.13164 -1.55431,4.02828 8.02515,-1.11391 9.19003,-2.51016 7.16212,-8.64013 -2.7363,0.20989 -3.62285,2.43581 -5.60781,4.61185 z"
   id="path1"
   style="stroke-width:1.24869" />
<path
   fill="#000000"
   opacity="1"
   stroke="none"
   d="m 238.00567,257.27038 c -3.8004,-1.12588 -7.03259,-2.28239 -10.34419,-3.19264 -2.95817,-0.81307 -5.93642,-1.25239 -8.33674,1.39112 -2.34649,2.58426 -5.48269,2.26304 -8.33011,1.20609 -2.81567,-1.04516 -1.95409,-3.73492 -2.00317,-5.82774 -0.0936,-3.99518 0.0455,-7.99452 0.0398,-11.99209 -0.003,-2.17408 -0.17186,-4.07643 -2.00556,-6.01279 -3.4532,-3.64656 -1.91808,-6.67998 3.25926,-7.3172 3.16744,-0.38984 5.94322,0.5471 8.55253,2.16672 4.03891,2.50701 7.22189,5.83945 9.67364,9.58469 9.37402,14.31968 35.64391,19.00244 51.28923,12.71664 1.57095,-0.63114 3.13374,-1.42124 4.4563,-2.41479 7.54789,-5.67028 6.66353,-12.10446 -2.33249,-15.51761 -12.41408,-4.71001 -25.60764,-7.14573 -38.39929,-10.76462 -8.07847,-2.28554 -16.0988,-4.52904 -23.10819,-9.17367 -13.66625,-9.05568 -13.7317,-25.03966 0.44802,-33.37064 15.00471,-8.81572 31.55782,-10.10804 48.68963,-6.82076 4.00577,0.76864 7.95187,1.80092 11.93076,2.69153 2.81937,0.63107 5.37206,0.3953 8.0818,-0.9582 8.42344,-4.20741 13.48145,-1.42201 13.78734,7.0004 0.21411,5.89491 -1.19889,11.85708 1.72514,17.69856 1.48786,2.97234 -1.84079,4.22415 -4.48345,4.42667 -5.99561,0.45947 -9.99674,-2.21335 -13.21275,-6.94158 -10.48101,-15.40963 -30.87626,-21.67999 -48.66026,-15.33348 -2.43825,0.87011 -4.80202,1.80717 -6.50373,3.77345 -3.84084,4.43785 -3.36271,7.58774 1.50965,11.09639 6.5748,4.73463 14.64569,5.65369 22.29936,7.62552 13.07209,3.36781 26.71717,5.00017 38.90053,11.04676 1.69462,0.84105 3.30879,0.009 5.0015,-0.23702 4.60244,-0.66815 9.31621,-1.42252 13.42373,1.23493 -0.13136,2.0529 -1.45229,2.29456 -2.71771,2.60288 -4.24279,1.03377 -5.31532,3.09292 -3.73938,7.12199 4.32043,11.04553 1.54535,18.71046 -8.53925,25.72802 -14.81047,10.30613 -31.74881,10.33133 -49.00417,8.70056 -3.6354,-0.34358 -7.21099,-1.22696 -11.3478,-1.93809 z"
   id="path2"
   style="stroke-width:1.24869" />
<path
   fill="#000000"
   opacity="1"
   stroke="none"
   d="m 204.96129,69.567838 c -0.74051,-6.548935 1.83704,-12.85157 -2.79549,-18.519158 -1.54188,-1.8864 2.56995,-3.447717 2.60034,-5.706538 0.0807,-5.994941 0.0951,-11.990806 0.10218,-17.986342 0.002,-2.234512 -1.66591,-2.92578 -3.67767,-3.532992 -5.03356,-1.519263 -7.37176,-6.893018 -5.06357,-12.900879 1.88953,-4.9181465 7.04581,-3.2206269 9.86425,-1.9436728 4.41247,1.9991628 7.98579,1.0389118 12.26797,0.368439 9.37576,-1.4679856 19.01163,-2.4309543 27.48698,3.1572278 3.65405,2.409253 6.1793,5.61936 5.54925,10.167174 -0.47031,3.394536 0.90553,6.207545 3.94023,8.506307 -6.22831,5.407148 -1.15029,15.922023 -12.60673,18.935713 13.96913,3.482923 7.53572,16.773483 14.9034,23.553135 0.26188,1.112055 -1.25182,1.692419 -1.75963,2.738374 -7.02346,14.465876 -15.49833,19.206608 -32.10219,17.507879 -6.59399,-0.674613 -13.02512,-2.380631 -19.81293,-1.151939 -3.13147,0.566858 -6.75609,-0.418801 -6.38291,-4.112342 0.37808,-3.74198 -3.58712,-9.331553 3.9145,-10.804538 5.44512,-1.069184 2.90096,-4.946176 3.57201,-8.275848 m 22.84095,-15.069983 c -10.28599,-0.109339 -10.28567,-0.109339 -10.27409,9.220548 0.003,2.795859 0.11787,5.59658 -0.0224,8.386321 -0.16581,3.297789 1.35229,4.837085 4.94956,4.682067 1.94171,-0.08366 3.89087,-0.0071 5.83602,-0.03733 7.9382,-0.123228 12.83825,-4.344173 12.92206,-11.11465 0.0797,-6.439607 -4.55415,-10.641773 -13.41115,-11.136954 M 237.8379,41.489454 c 3.00461,-5.177862 2.50622,-10.138413 -1.89857,-14.292772 -4.73808,-4.468666 -10.95794,-2.446723 -16.64969,-2.408869 -1.40757,0.0094 -2.46152,1.135404 -2.60393,2.343381 -0.67927,5.761002 -0.66296,11.543082 0.0236,17.304615 0.12194,1.023218 1.15946,1.565172 2.24492,1.937035 5.08627,1.742441 14.56695,-0.343441 18.88359,-4.88339 z"
   id="path3"
   style="stroke-width:1.24869" />
<path
   fill="#000000"
   opacity="1"
   stroke="none"
   d="m 267.81415,30.52081 c 0.27987,-2.742557 0.61384,-4.922542 0.73385,-7.112525 0.57629,-10.516448 4.26269,-14.2501226 15.72274,-15.0691792 5.37206,-0.3839402 10.82203,-0.3485775 16.20174,-0.017946 9.62409,0.5914896 14.576,5.1336372 15.18836,14.0369682 0.47943,6.969704 0.46663,13.972928 0.51631,20.962207 0.0908,12.7858 0.0386,25.572433 0.10173,38.35847 0.0305,6.163173 -3.63918,9.574713 -9.65477,11.161 -8.79009,2.317944 -17.59813,1.443738 -26.23825,-0.595995 -5.68806,-1.342817 -9.13697,-5.14142 -10.41079,-10.453863 -0.51266,-2.137911 -1.02853,-4.337298 -1.02671,-6.508336 0.0125,-14.744865 -2.90865,-29.422622 -1.13425,-44.760801 m 14.43392,-4.096233 c -1.55652,2.172127 -1.02074,4.628977 -1.02618,6.98124 -0.0141,6.116905 1.79675,12.491454 1.25698,18.14223 -0.60369,6.319428 -0.75923,12.551531 -0.41393,18.795363 0.37507,6.782141 2.27765,7.583783 12.21948,7.4491 5.95363,-0.08066 8.60662,-2.264178 8.28103,-7.98772 -0.38074,-6.693937 -1.28953,-13.538491 -0.94625,-20.029226 0.33153,-6.268803 0.42614,-12.626917 0.85708,-18.931045 0.29951,-4.380964 -2.3351,-6.731258 -6.69434,-7.388162 -4.51208,-0.679933 -9.06345,-0.854429 -13.53387,2.96822 z"
   id="path4"
   style="stroke-width:1.24869" />
<path
   fill="#000000"
   opacity="1"
   stroke="none"
   d="m 428.78262,42.237508 c 0.006,4.202908 3.07852,5.981142 5.69711,7.863871 -3.86075,12.657718 1.57776,26.567493 10.86583,28.17159 1.41247,5.039352 1.33679,10.114075 -0.39454,15.582199 -6.46192,-1.302676 -13.01036,-1.353714 -19.61076,0.138043 -3.96493,0.896107 -6.32426,-1.092204 -5.84153,-4.977665 0.54555,-4.391119 -3.13692,-10.586614 5.51154,-11.804262 0.3447,-0.04852 0.82401,-0.480816 0.89625,-0.800688 1.09335,-4.838963 -2.14578,-8.746646 -3.40263,-13.079997 -0.90725,-3.128057 -3.79433,-2.752466 -6.40194,-2.575379 -6.12751,0.416106 -12.02679,0.653195 -12.35039,8.695625 -0.18468,4.588853 -2.37036,9.303215 5.79177,8.775197 0.19341,5.37956 1.24636,10.099527 0.29832,14.688131 -1.3854,1.410374 -2.94625,1.289985 -4.38339,0.862523 -4.9132,-1.461374 -9.69656,-1.17386 -14.6604,0.04311 -4.93838,1.210707 -8.10047,-0.256198 -7.38002,-5.725529 0.41465,-3.148053 0.64402,-6.316937 0.99791,-9.892451 6.08986,0.435737 7.28903,-3.375272 7.80331,-7.531041 0.80443,-6.500425 5.4621,-12.625469 1.81158,-19.623732 -1.00366,-1.924052 2.4403,-3.045519 3.02761,-4.974799 2.26195,-7.429899 4.52774,-14.85879 6.96938,-22.869696 -6.96014,-0.513174 -8.65761,-3.739204 -8.19436,-9.180122 0.61102,-7.1763287 1.53669,-8.3415325 8.89301,-6.0587618 5.85731,1.8176075 11.43257,1.4279533 17.18374,0.026838 3.00822,-0.7328671 6.46169,-2.3934913 8.0985,1.9412561 1.84139,4.8765687 0.11423,10.7786807 -3.55811,12.3167217 -0.5716,0.239406 -1.11316,0.539968 -2.17773,1.06175 1.44222,6.115513 2.8997,12.295872 4.50994,18.92727 m -10.78911,1.96709 c -1.43825,-3.58687 -1.03911,-7.77378 -4.3843,-11.635682 -3.69362,4.789856 -3.40743,10.106768 -4.78756,14.847794 -1.5524,5.33278 0.25922,6.957176 6.18101,6.306077 7.40313,-0.813965 3.2925,-5.31455 2.99085,-9.518189 z"
   id="path5"
   style="stroke-width:1.24869" />
<path
   fill="#000000"
   opacity="1"
   stroke="none"
   d="m 482.53584,8.7941831 c 1.72095,-0.1953258 2.99323,-0.4081955 4.19653,-0.8012738 6.48784,-2.1192815 8.31544,-1.122136 8.50658,5.1437267 0.22533,7.388063 0.003,14.789365 0.30807,22.17317 0.17367,4.201479 -1.76554,5.703948 -6.07574,5.745766 -4.16004,0.04036 -6.75718,-1.072004 -6.42818,-5.417295 0.0903,-1.192395 0.003,-2.396729 -0.0127,-3.595457 -0.11343,-8.295461 -5.35068,-11.645516 -13.87995,-8.880753 -5.4108,1.753915 -7.56233,5.927952 -4.44742,10.322513 4.08573,5.764198 8.10111,11.968794 16.48054,13.345462 1.38064,0.226825 1.93969,1.074853 2.81441,2.018299 8.46104,9.125936 21.21681,15.964171 19.22708,30.586476 -0.90216,6.629925 -4.55113,11.607681 -12.00359,13.397497 -6.99927,1.680984 -14.0596,2.431779 -20.96895,-0.220542 -2.93852,-1.128024 -5.47285,-0.480258 -8.08724,0.609145 -4.77491,1.989648 -6.94682,0.101545 -7.30477,-4.271609 -0.57006,-6.965372 -1.00092,-13.940725 -1.60623,-20.903268 -0.32731,-3.76445 1.25142,-5.533472 5.46915,-5.606742 4.23684,-0.07361 5.5671,1.680233 5.7057,5.429719 0.36421,9.85287 1.8906,11.183681 11.16959,11.235452 4.02274,0.02245 8.1435,-0.09702 10.14102,-3.881304 2.2045,-4.1765 1.9406,-8.595858 -0.87016,-12.552794 -2.39438,-3.370786 -5.72212,-5.993266 -9.25119,-8.326657 -4.4969,-2.973302 -8.99626,-5.781486 -13.26259,-9.194024 -9.45031,-7.559142 -11.53159,-16.55858 -10.32952,-26.880416 0.96664,-8.3009544 12.90429,-14.3741336 22.70077,-11.9719627 2.49635,0.6121299 4.88835,1.587615 7.80881,2.4968718 z"
   id="path6"
   style="stroke-width:1.24869" />
<path
   fill="#000000"
   opacity="1"
   stroke="none"
   d="m 365.96797,94.062891 c -6.61143,-1.241454 -12.54801,-2.146352 -18.90652,-0.237464 -2.83007,0.849594 -7.63714,2.116906 -9.04907,-2.924818 -1.85626,-6.628359 0.18116,-11.789621 5.54973,-13.130962 3.31331,-0.827838 3.10959,-2.988776 3.00957,-5.127602 -0.33135,-7.085524 -1.54844,-14.494005 -1.19732,-21.147425 0.39974,-7.573774 0.50893,-15.352151 1.13708,-23.011419 0.1542,-1.880457 0.66083,-4.015832 -1.06868,-5.65747 -7.69154,1.04512 -10.65892,4.09226 -10.96071,11.440346 -0.13287,3.235297 0.42665,6.644181 -4.90509,6.6532 -5.71422,0.0097 -5.13877,-3.660166 -5.1346,-7.085166 0.008,-6.791738 0.14587,-13.586973 -0.0484,-20.373958 -0.12216,-4.2678006 1.98508,-6.2076561 6.24687,-5.1067077 6.59513,1.7037277 12.82015,0.3306041 19.15491,-0.929831 2.98569,-0.5940736 6.015,-0.5740933 9.0066,0.099467 5.08762,1.1454852 10.24479,1.8552492 15.3694,0.521086 5.13492,-1.3368469 6.70163,0.8376625 6.73759,5.0951977 0.0607,7.189806 0.16007,14.379869 0.32695,21.568156 0.0718,3.091713 -0.25019,5.461594 -4.70093,5.450092 -4.05573,-0.01049 -5.3924,-1.749629 -5.26129,-5.130029 0.094,-2.421743 -0.28431,-4.766882 -1.35882,-7.012976 -1.62924,-3.405725 -4.45892,-5.076024 -9.64388,-5.858096 0,6.727166 -0.48954,12.85406 0.10927,18.888804 1.02173,10.296931 -0.85122,20.527073 -0.19853,30.801461 0.22778,3.58544 0.60433,6.442344 5.54525,6.187538 0.60524,-0.03121 1.31161,0.203319 1.83846,0.509466 3.68458,2.140979 2.89648,13.07867 -1.59784,15.51911 z"
   id="path7"
   style="stroke-width:1.24869" />
<path
   style="fill:#391515;fill-opacity:1;stroke-width:0.448533"
   d="m 340.93885,94.018793 c -2.43731,-0.906911 -3.99806,-6.046061 -3.0222,-9.951376 0.77992,-3.121252 2.00078,-4.460041 5.43336,-5.958211 2.66104,-1.161441 3.03256,-1.476867 3.30197,-2.803521 0.16698,-0.822169 -0.0524,-5.822316 -0.48777,-11.111462 -0.50436,-6.129113 -0.69119,-11.570835 -0.51516,-15.005315 0.1519,-2.963787 0.51069,-9.705569 0.79729,-14.981737 0.4633,-8.528596 0.43968,-9.707845 -0.2128,-10.627746 -0.66043,-0.931095 -0.91683,-0.996749 -2.56041,-0.655613 -6.10246,1.266602 -8.80449,4.20163 -9.23331,10.02949 -0.49457,6.721337 -1.05937,7.613679 -4.81897,7.613679 -1.76208,0 -2.61474,-0.244256 -3.60815,-1.033603 l -1.3008,-1.033603 -0.0532,-12.869257 c -0.0292,-7.07809 0.13262,-13.597249 0.35975,-14.48702 0.24865,-0.97395 0.88489,-1.9033889 1.59876,-2.3354759 1.0626,-0.643166 1.50906,-0.6573675 4.29841,-0.1367256 4.3172,0.8058235 10.20407,0.6541379 15.67048,-0.4037777 5.42632,-1.0501566 8.82099,-1.1236518 13.19534,-0.2856809 5.999,1.1491937 9.0894,1.254996 13.42795,0.4597183 4.63227,-0.849118 5.98882,-0.571705 6.86804,1.4045069 0.33572,0.7545999 0.6087,5.8905689 0.74517,14.0205739 0.25709,15.313858 0.20753,15.530823 -3.62707,15.877094 -4.16617,0.376212 -5.35652,-0.820823 -5.73434,-5.766584 -0.47531,-6.221609 -2.60157,-9.49361 -7.20271,-11.083877 -4.68185,-1.618162 -4.21156,-4.391173 -4.22186,24.894575 -0.006,14.166906 0.1802,26.462889 0.4115,27.324398 0.54562,2.032288 1.3287,2.586942 4.25568,3.014366 3.04312,0.444382 3.96024,1.305676 4.65678,4.373257 0.69553,3.0632 -0.0594,7.055574 -1.79955,9.517411 -1.12211,1.587402 -1.25609,1.647374 -3.11909,1.396108 -1.07064,-0.14439 -4.5797,-0.378962 -7.79792,-0.521276 -5.0862,-0.224898 -6.3105,-0.139699 -9.36323,0.651601 -3.80333,0.985859 -4.77384,1.058552 -6.3419,0.475083 z"
   id="path17" /><path
   style="fill:#391515;fill-opacity:1;stroke-width:0.448533"
   d="m 288.76091,93.574615 c -10.49943,-1.507135 -14.44956,-3.380642 -16.98664,-8.056639 -1.69249,-3.119356 -2.36621,-7.046334 -2.84287,-16.570358 -0.25316,-5.058271 -0.66953,-12.009757 -0.92527,-15.447742 -0.25576,-3.437998 -0.46772,-8.869811 -0.47103,-12.070703 -0.008,-7.264002 1.55803,-22.353389 2.61349,-25.190042 1.04136,-2.798786 4.00317,-5.523659 6.98761,-6.4286466 7.11494,-2.1574935 24.42101,-2.0504658 30.04844,0.1858312 3.0681,1.2192394 6.11413,4.3325764 7.19926,7.3583264 1.25986,3.512987 1.72751,16.538729 1.57628,43.904966 -0.13016,23.553071 -0.14787,23.952711 -1.13682,25.65024 -1.76973,3.037732 -4.55371,4.766968 -9.72888,6.042988 -3.37372,0.831843 -12.4604,1.177752 -16.33357,0.621779 z M 299.5726,77.010713 c 0.78574,-0.42878 1.82255,-1.383782 2.30399,-2.122227 0.99356,-1.523902 1.03694,-4.101193 0.25438,-15.11183 -0.30174,-4.245477 -0.29818,-9.975644 0.0101,-16.812763 0.25751,-5.704707 0.38908,-11.703501 0.29239,-13.330651 -0.16352,-2.751625 -0.29241,-3.057159 -1.84358,-4.370329 -1.88692,-1.597416 -4.94557,-2.382002 -9.1689,-2.351962 -4.20827,0.02994 -8.76986,1.969846 -9.8682,4.196654 -0.70817,1.435758 -0.60603,8.549899 0.22178,15.446961 0.59211,4.933417 0.62534,7.167932 0.19457,13.081784 -0.57326,7.870002 -0.22018,17.146026 0.73372,19.275874 1.09358,2.441699 3.71398,3.171971 10.74923,2.995656 3.51526,-0.08809 5.04971,-0.313038 6.12017,-0.897167 z"
   id="path18" /><path
   style="fill:#391515;fill-opacity:1;stroke-width:0.448533"
   d="m 219.45993,93.147586 c -4.26524,-0.619641 -7.67993,-0.818688 -12.70231,-0.740473 -8.85204,0.137874 -8.71986,0.230022 -9.36954,-6.532858 -0.56012,-5.830537 -0.23404,-6.515456 3.63884,-7.643208 1.41876,-0.413131 2.88362,-1.061517 3.25526,-1.440863 0.54263,-0.553884 0.69023,-2.596842 0.7495,-10.3734 0.0766,-10.050414 -0.18776,-12.059815 -1.89777,-14.425747 -1.23534,-1.709206 -1.1658,-2.302504 0.4781,-4.079133 l 1.38105,-1.492553 V 36.246922 c 0,-7.473857 -0.15474,-10.359796 -0.58334,-10.878719 -0.32084,-0.38846 -1.93238,-1.347006 -3.58121,-2.130103 -2.40253,-1.141059 -3.21345,-1.801126 -4.0834,-3.323777 -1.96382,-3.437258 -1.24606,-9.028258 1.42563,-11.1049507 1.66161,-1.291578 3.74537,-1.2113799 7.4076,0.2850988 3.43072,1.4018799 5.99175,1.4887969 12.94825,0.4394416 9.08462,-1.3703684 15.49268,-1.3162869 20.2496,0.170899 2.02548,0.6332403 4.81792,1.8474203 6.20542,2.6981783 4.53552,2.781001 6.2121,5.672102 6.2121,10.712148 0,3.493024 0.6125,5.144138 2.65825,7.166014 0.74713,0.738413 0.97198,1.240825 0.64006,1.430312 -1.00587,0.574271 -2.39496,3.738189 -3.36548,7.665484 -1.51739,6.140263 -3.20887,8.516253 -7.16626,10.066261 l -1.86669,0.731148 1.92019,0.601496 c 2.6578,0.832537 5.47005,3.179243 6.69513,5.58682 0.56651,1.113303 1.53976,4.301164 2.16282,7.084127 1.21622,5.432589 2.01674,7.562678 3.57289,9.507018 0.98528,1.231075 0.98532,1.232059 0.0565,2.205123 -0.51107,0.535427 -1.19169,1.541219 -1.5125,2.235127 -2.32804,5.035624 -7.22835,10.789232 -11.1884,13.136657 -5.64409,3.345706 -13.50549,4.190893 -24.34029,2.616861 z m 15.40023,-17.394722 c 2.28263,-1.113255 4.11368,-2.773362 5.2872,-4.793589 0.79764,-1.373113 1.00282,-2.470826 1.00728,-5.388699 0.006,-3.243788 -0.14465,-3.90043 -1.30354,-5.721682 -2.55476,-4.01489 -7.15799,-5.647946 -15.26803,-5.416568 -5.98501,0.170759 -6.50706,0.460094 -7.03702,3.900071 -0.53271,3.457861 -0.48492,14.778942 0.0682,16.155356 0.89071,2.216512 1.48198,2.363999 8.84576,2.206467 5.4682,-0.117016 7.08021,-0.297628 8.40013,-0.941356 z m -4.99511,-29.58586 c 6.18713,-1.765323 9.33318,-4.840221 9.95852,-9.733271 0.56572,-4.426666 -2.05651,-8.998684 -6.36343,-11.095008 -2.55607,-1.244121 -2.59254,-1.248278 -8.79678,-1.002829 -6.51444,0.257721 -7.28925,0.485152 -8.06375,2.36692 -0.5748,1.396596 -0.55193,16.472068 0.0271,17.878995 0.25127,0.610488 1.04403,1.40408 1.7617,1.763537 1.93901,0.971184 7.76505,0.88065 11.47662,-0.178344 z"
   id="path19" /><path
   style="fill:#391515;fill-opacity:1;stroke-width:0.448533"
   d="m 256.32712,259.49633 c -8.43241,-0.4836 -15.66883,-1.73181 -23.30765,-4.02035 -9.77789,-2.92939 -10.58722,-2.92879 -14.10926,0.0108 -0.98248,0.81993 -2.25823,1.52097 -2.835,1.55785 -2.99002,0.19116 -5.71376,-0.58033 -6.43325,-1.82222 -0.24685,-0.42609 -0.44883,-4.86757 -0.44883,-9.86994 0,-9.70052 -0.11253,-10.31075 -2.49748,-13.54641 -1.60008,-2.17084 -1.5664,-3.37842 0.13106,-4.69784 3.05254,-2.37273 8.17764,-1.71685 13.0562,1.67084 3.25391,2.25954 5.33627,4.39343 8.20005,8.40296 6.34367,8.88163 17.1659,14.22512 31.32495,15.46671 16.07439,1.40957 30.05301,-4.58775 30.05301,-12.89379 0,-3.01636 -1.98891,-5.43709 -6.0124,-7.31774 -3.25805,-1.52287 -13.94376,-4.70726 -26.65472,-7.94322 -7.05843,-1.79694 -15.45856,-4.06649 -18.66693,-5.04347 -14.2871,-4.35054 -21.69708,-9.07527 -25.56164,-16.29857 -1.67508,-3.13093 -1.73875,-3.41647 -1.73875,-7.79878 0,-4.22968 0.10544,-4.75463 1.50344,-7.48102 4.46635,-8.71069 18.95178,-15.72111 35.40698,-17.13568 8.33094,-0.71616 17.17486,0.23851 29.97411,3.23561 6.23317,1.45957 8.24666,1.4158 12.3717,-0.26894 6.12043,-2.49969 9.84147,-1.98206 11.77856,1.63856 0.75737,1.41563 0.93273,3.00241 1.16091,10.50499 0.23028,7.57088 0.41263,9.20046 1.27241,11.37018 1.17738,2.97128 0.88099,3.8918 -1.55605,4.83242 -3.22847,1.24612 -7.90544,0.40279 -11.05145,-1.99273 -0.92856,-0.70704 -2.82965,-2.78705 -4.22464,-4.62225 -5.0471,-6.63973 -9.54209,-10.37372 -16.2248,-13.47797 -9.63338,-4.47489 -20.82383,-5.24855 -30.88352,-2.1352 -5.25394,1.62605 -7.04711,2.61548 -8.80669,4.85933 -1.83186,2.33603 -2.4878,4.68765 -1.825,6.54287 1.13895,3.18798 7.68751,7.29147 14.70452,9.21425 1.79669,0.49232 10.44158,2.54982 19.21087,4.57219 17.40312,4.01354 22.21291,5.37055 28.46367,8.0307 l 4.12619,1.75597 2.80003,-0.57202 c 4.18291,-0.85454 10.83913,-0.75052 12.72467,0.19884 1.31957,0.66439 1.45663,0.88481 1.01951,1.63933 -0.27778,0.47944 -0.85881,0.97421 -1.29119,1.09947 -3.08961,0.89506 -4.46186,1.73099 -5.07813,3.09349 -0.6061,1.33999 -0.55282,1.80107 0.64917,5.61915 1.03724,3.29475 1.30598,5.01066 1.2928,8.25477 -0.0152,3.73664 -0.15178,4.35354 -1.55944,7.04193 -2.59569,4.95737 -8.37412,9.70974 -16.26763,13.37901 -9.0651,4.21391 -19.82257,5.77013 -34.19036,4.94613 z"
   id="path20" /><path
   style="fill:#391515;fill-opacity:1;stroke-width:0.448533"
   d="m 523.03088,351.41667 c -21.90382,-5.12483 -36.10567,-11.74365 -57.53731,-26.81548 -9.92401,-6.97907 -14.34164,-10.49423 -22.65858,-18.0297 -11.49604,-10.41582 -20.76147,-21.07684 -25.73418,-29.61027 -1.22359,-2.09975 -3.05149,-5.22259 -4.06201,-6.93964 l -1.83732,-3.12191 -1.4861,0.70616 c -0.81737,0.38839 -5.68618,4.50916 -10.81959,9.15727 -9.87194,8.93867 -16.64737,14.37094 -25.43369,20.39173 -22.10844,15.14977 -46.47161,25.91324 -73.02155,32.26044 -10.71916,2.56259 -17.1677,3.48432 -26.22356,3.74832 -18.13225,0.52859 -30.82333,-2.97609 -40.56751,-11.20281 -1.72842,-1.45925 -2.52271,-2.45981 -2.52271,-3.17786 0,-1.73289 1.23107,-1.67615 3.85597,0.17777 8.35024,5.89761 16.12455,8.83409 26.46555,9.9964 18.77718,2.11053 49.89022,-4.68432 75.33648,-16.45292 14.63374,-6.76793 30.26205,-16.47366 43.91078,-27.27013 6.30938,-4.99089 18.91897,-16.19404 19.9005,-17.68087 1.3819,-2.09331 1.14087,-3.18524 -0.87482,-3.96324 -1.51477,-0.58466 -4.29205,-0.64441 -21.3503,-0.45939 -33.56112,0.36405 -54.29089,2.82594 -111.54919,13.2477 -28.92452,5.26463 -40.83357,6.9817 -58.09529,8.37623 -39.88451,3.2222 -72.52241,1.49614 -102.39331,-5.41509 -20.132697,-4.65809 -33.629962,-11.23884 -43.295605,-21.10924 -1.877244,-1.91702 -3.980264,-3.75911 -4.673363,-4.09351 -1.442791,-0.69613 -5.793549,-0.78349 -8.539961,-0.17148 -1.026682,0.22879 -3.966714,0.5396 -6.533419,0.69072 -6.356105,0.37417 -12.482276,-0.50367 -28.040372,-4.01803 L 2.6102674,247.7826 2.9799231,246.0213 c 0.203311,-0.96869 0.3935624,-6.22311 0.4227815,-11.67649 0.029219,-5.45337 0.2109204,-10.28711 0.4037832,-10.74165 0.3167835,-0.7466 0.4702504,-0.6816 1.588611,0.67287 0.6808733,0.82462 1.9911261,3.22513 2.9116713,5.33447 5.2551639,12.04165 14.0951229,17.88275 27.0639249,17.88275 7.227946,0 10.365743,-1.20108 12.388394,-4.74205 0.876351,-1.53417 1.688912,-24.93937 0.952329,-27.43073 -0.353566,-1.19588 -1.296721,-2.46982 -2.872408,-3.87988 -2.898639,-2.59389 -2.88032,-3.44854 0.103932,-4.85035 1.326241,-0.62299 2.373321,-1.47043 2.663263,-2.15548 0.284669,-0.6726 0.522968,-7.1404 0.589579,-16.00171 0.09692,-12.89364 0.01169,-15.08349 -0.640924,-16.45591 -0.886147,-1.86372 -2.45244,-2.90981 -5.38769,-3.59829 l -2.131616,-0.49997 2.094731,-0.48725 c 9.126928,-2.12298 40.97011,-1.57049 43.487003,0.75452 0.347719,0.32122 0.233597,0.45646 -0.385213,0.45646 -0.483641,0 -1.811232,0.41673 -2.950191,0.92607 -1.590965,0.71145 -2.279024,1.36076 -2.969121,2.8019 -0.842092,1.75855 -0.88959,2.85905 -0.759853,17.60181 l 0.138405,15.72595 1.207155,1.11461 c 1.064008,0.98244 1.798083,1.1678 6.190858,1.5632 5.840893,0.52574 6.96773,0.15297 7.709393,-2.55032 0.244108,-0.88977 0.586655,-8.41995 0.761229,-16.73374 L 95.877345,173.93611 94.713,172.65787 c -0.640378,-0.70304 -1.709699,-1.54786 -2.376268,-1.8774 -1.62446,-0.80312 -1.531281,-1.09099 0.538104,-1.66255 6.466159,-1.78599 25.930834,-1.80422 37.660424,-0.0353 l 3.24325,0.48913 -2.84348,1.19234 c -2.34407,0.98295 -3.07762,1.56033 -4.17661,3.28753 l -1.33313,2.09517 -0.14439,14.73694 c -0.18277,18.65608 -0.50635,17.89105 8.1508,19.27113 9.31418,1.48483 20.92758,6.72742 20.08456,9.06671 -0.30879,0.85685 -1.63902,0.74266 -4.26268,-0.36594 -5.28513,-2.23318 -14.92757,-4.9879 -17.45931,-4.9879 -5.56755,0 -6.60544,1.78216 -6.59541,11.32499 0.0129,12.19293 2.49005,17.04926 10.49325,20.57076 5.62526,2.47517 9.90466,3.21607 18.4336,3.19146 6.75157,-0.0195 8.25132,-0.15875 12.17501,-1.13062 2.46119,-0.60961 5.50624,-1.59648 6.76676,-2.19302 4.39239,-2.07875 8.32554,-6.85348 9.48975,-11.52027 0.26366,-1.05694 0.48452,-4.91585 0.4908,-8.57537 0.0101,-5.78629 -0.11028,-6.88585 -0.92198,-8.43479 -0.94712,-1.80735 -3.12719,-3.26885 -5.7167,-3.83244 -1.91369,-0.41651 -1.57213,-1.44165 0.68881,-2.06741 2.85279,-0.78955 5.29096,-3.2121 5.8394,-5.80197 0.24378,-1.15125 0.41203,-7.81599 0.37386,-14.81054 -0.083,-15.22608 0.0195,-14.86919 -5.2423,-18.24832 l -3.43768,-2.2077 1.71358,-0.54803 c 6.43194,-2.05703 24.73722,-1.5285 30.97503,0.89436 l 1.43303,0.55661 -2.43534,0.51928 c -2.7664,0.5899 -5.20741,2.12813 -6.205,3.91019 -1.11552,1.99269 -1.60062,6.05079 -2.14765,17.96566 -0.49921,10.87325 -0.48389,11.38114 0.39892,13.22475 1.1426,2.38612 3.37301,3.99427 6.5968,4.75641 l 2.48192,0.58675 -2.04151,1.09551 c -1.12282,0.60253 -2.92969,1.51 -4.01524,2.0166 -3.16091,1.47511 -3.43674,2.36924 -3.58371,11.61695 -0.1087,6.84271 -0.27151,8.41441 -1.08648,10.49176 -2.67004,6.80581 -8.72537,11.22277 -20.24896,14.77027 -12.82695,3.94873 -27.87766,4.96677 -44.74146,3.02635 -16.87791,-1.94206 -30.67322,-8.61005 -35.139491,-16.98475 l -1.494356,-2.80205 -0.233325,-9.32247 c -0.259645,-10.37327 -0.277925,-10.43327 -3.418151,-11.21438 -4.758344,-1.18363 -10.50281,1.58314 -11.915043,5.73873 -0.26392,0.77661 -0.714237,2.96396 -1.000685,4.86079 -1.649676,10.92363 -5.663213,17.49664 -13.462823,22.04817 -0.08964,0.0523 0.435389,1.12665 1.166684,2.38745 3.880044,6.68944 15.756215,13.68346 30.927036,18.2133 6.653344,1.98661 12.922044,3.36301 21.601384,4.74297 19.50313,3.10084 31.69971,3.91228 53.10268,3.53296 28.2739,-0.5011 48.3448,-2.25769 94.268,-8.25024 58.20649,-7.5954 79.79418,-9.52662 110.36821,-9.87341 15.05921,-0.17082 16.88806,-0.45338 19.17352,-2.96243 1.77574,-1.94946 1.3187,-3.40426 -2.98872,-9.51386 -2.03055,-2.8801 -5.21269,-7.62468 -7.07142,-10.54352 -1.85873,-2.91883 -3.81672,-5.68324 -4.35108,-6.14311 -1.04577,-0.90001 -3.28129,-1.08911 -5.14349,-0.43508 -0.62807,0.2206 -2.77223,0.61055 -4.76477,0.86655 -4.51282,0.57982 -9.619,0.0613 -16.88091,-1.71414 -9.10086,-2.22508 -9.85796,-1.94895 -13.37699,4.87893 -8.55838,16.60551 -7.97221,15.25499 -7.13404,16.43667 0.74369,1.04849 3.21872,1.97176 5.29876,1.97662 1.71755,0.004 3.31202,0.90901 3.89595,2.21126 0.45759,1.02053 0.42154,1.42112 -0.2077,2.30827 -0.41877,0.5904 -1.23125,1.18149 -1.8055,1.31354 -0.57426,0.13208 -8.63493,0.18365 -17.91258,0.11463 -15.82653,-0.11774 -16.92912,-0.17622 -17.85026,-0.94674 -0.62249,-0.52069 -0.98178,-1.34532 -0.98178,-2.25331 0,-1.76193 1.15639,-2.53131 4.43341,-2.9497 3.46694,-0.44264 5.82029,-1.57473 8.17765,-3.93391 2.94455,-2.94684 10.29623,-15.69425 11.90908,-20.64969 1.46802,-4.51041 3.37124,-8.22745 6.94657,-13.56675 3.0849,-4.60693 17.75978,-31.59603 18.17306,-33.42276 0.4218,-1.86432 -0.51721,-3.19856 -3.36108,-4.77572 -1.36876,-0.7591 -2.30304,-1.48615 -2.07617,-1.61568 0.22684,-0.12951 1.87176,-0.49038 3.65533,-0.80191 4.62353,-0.80757 34.33126,-0.70625 38.2074,0.13031 3.06749,0.66204 3.79298,1.41393 1.80632,1.87201 -3.98723,0.91936 -5.94204,3.72921 -4.80621,6.90844 0.31684,0.88685 1.90361,3.96712 3.52615,6.84504 1.62254,2.87794 4.22865,8.13354 5.79134,11.67913 1.56269,3.54557 3.35703,7.2595 3.98741,8.25316 2.16809,3.41752 5.88751,5.52264 10.67631,6.04256 l 2.67131,0.29003 -1.67174,1.27293 c -3.90739,2.97527 -4.43181,6.86994 -1.61753,12.01262 0.82965,1.51605 2.38907,4.72291 3.46537,7.12634 1.07629,2.40343 2.52586,5.26669 3.22124,6.36281 1.49409,2.35511 1.34504,2.39206 6.37883,-1.58105 6.53994,-5.16189 11.42293,-11.89711 13.93064,-19.2149 2.03728,-5.94499 2.45796,-9.13319 2.42221,-18.35719 -0.0174,-4.48738 0.26899,-10.79669 0.63641,-14.02066 0.42638,-3.74131 0.52191,-6.46033 0.26406,-7.51647 -0.49012,-2.00746 -2.41179,-3.9561 -4.54173,-4.60546 -2.40399,-0.7329 -2.93716,-0.33273 -2.93716,2.20446 0,1.85919 -0.21245,2.39844 -1.36412,3.4623 -1.34531,1.24276 -3.32736,1.64355 -4.55676,0.92143 -0.89431,-0.5253 -1.6075,-2.7317 -1.30043,-4.02318 0.28116,-1.18263 2.92687,-3.72162 4.88864,-4.6915 1.2471,-0.61654 4.07594,-0.62512 7.4131,-0.0224 3.97481,0.71777 9.4423,0.53851 19.64708,-0.64419 9.86605,-1.14344 11.22609,-1.09257 13.12007,0.49081 0.75634,0.63228 0.6868,0.77574 -1.09448,2.25786 -3.50108,2.91307 -3.85264,4.20807 -3.85264,14.19202 0,4.80122 0.0649,8.72959 0.14429,8.72971 0.28494,4.2e-4 12.05083,-7.02892 14.91722,-8.91205 4.3177,-2.83658 4.77212,-3.39803 4.77212,-5.8962 0,-1.48964 -0.34432,-2.68684 -1.128,-3.92217 -1.13206,-1.78442 -1.78334,-2.22491 -5.09137,-3.44337 -3.56066,-1.31154 -1.21353,-3.24374 3.95319,-3.25433 7.5002,-0.0154 17.81218,-1.54703 24.99208,-3.71211 1.91589,-0.57773 7.08896,-2.4759 11.4957,-4.21817 17.76578,-7.02388 29.71822,-9.64665 45.82979,-10.05662 10.43398,-0.2655 16.10625,0.16952 24.42891,1.87354 12.82441,2.62572 23.36166,7.28492 28.79872,12.7338 1.94299,1.94718 5.54501,6.72786 7.81971,10.37852 0.7018,1.12624 1.37734,2.0477 1.50125,2.0477 0.12394,0 1.73696,-0.70321 3.58447,-1.56267 11.79092,-5.48513 24.82917,-7.95939 38.63335,-7.33141 18.52595,0.84277 31.82657,5.89952 43.16513,16.41085 6.38069,5.91515 9.73654,10.67215 12.01273,17.02842 2.34705,6.55395 3.45288,8.23914 6.26453,9.54627 1.2338,0.57359 2.34657,1.10595 2.47276,1.18301 0.12616,0.0771 -0.16505,0.34406 -0.64727,0.59334 -1.62883,0.84204 -4.53797,3.50434 -5.28704,4.83841 -0.40941,0.72913 -1.63392,3.21677 -2.72111,5.52809 -10.30738,21.91223 -32.61002,33.47972 -62.71174,32.52604 -11.69984,-0.37067 -19.84683,-2.26359 -29.60552,-6.87868 -13.56876,-6.41699 -22.7176,-16.11897 -27.37328,-29.02832 -2.54916,-7.06841 -4.68003,-7.75151 -12.81881,-4.10935 -5.20831,2.33077 -6.65093,3.511 -7.2613,5.94059 -0.22909,0.91206 -0.42155,8.46648 -0.42766,16.78761 -0.0129,16.96269 0.18527,16.00835 -3.5112,16.9421 -2.78913,0.70455 -6.29831,0.55894 -8.40013,-0.34856 -1.08842,-0.46996 -6.04989,-4.53286 -11.90016,-9.74494 -12.08558,-10.76718 -26.46648,-23.19846 -29.53211,-25.52837 -3.28669,-2.49795 -7.61565,-4.74696 -11.18513,-5.81102 -2.97896,-0.88802 -3.15004,-1.01049 -3.15043,-2.25522 -5.5e-4,-2.02942 -2.38978,-6.22465 -5.10949,-8.97177 -2.20924,-2.23148 -8.78131,-6.67769 -10.87368,-7.3564 -0.76955,-0.2496 -0.82335,0.9477 -0.93222,20.73751 -0.15451,28.0793 -0.15747,27.73141 0.2449,29.08004 0.49996,1.67544 2.35385,2.62475 5.76239,2.95066 4.00429,0.38286 5.30842,1.21787 5.30842,3.39896 0,3.06452 0.18254,3.03543 -18.88744,3.00784 -18.2395,-0.0264 -19.73007,-0.18489 -20.48683,-2.17839 -1.0793,-2.84317 0.80469,-4.26372 5.65474,-4.26372 2.90396,0 4.88494,-0.87872 5.7489,-2.55006 0.76166,-1.47347 1.10125,-21.77602 0.41612,-24.87852 -0.65734,-2.97679 -2.78566,-5.94627 -5.33032,-7.43705 -1.95397,-1.1447 -2.04194,-1.27402 -1.28966,-1.89646 0.44404,-0.36739 1.99709,-1.15197 3.45119,-1.74352 1.45414,-0.59154 2.87167,-1.4687 3.15003,-1.94924 0.72755,-1.25578 0.68817,-14.72549 -0.043,-14.72549 -0.30209,0 -2.2945,0.78034 -4.42757,1.7341 -4.77766,2.13623 -9.22072,5.83764 -11.26937,9.38826 -2.67543,4.63696 -2.81805,5.79859 -2.93731,23.92611 -0.10781,16.38865 -0.0993,16.55738 0.94492,18.54986 0.57955,1.10594 1.89286,2.67431 2.91847,3.48525 l 1.86472,1.47447 -2.72242,0.35885 c -3.54879,0.46778 -16.53589,0.45719 -28.85614,-0.0235 -9.66759,-0.37722 -17.54723,0.0587 -18.61487,1.02992 -0.55754,0.50717 2.09362,2.91533 3.50486,3.18363 0.6104,0.11605 4.36485,0.79352 8.34324,1.50549 11.52896,2.06327 22.85177,5.51275 38.40003,11.69853 10.15383,4.03961 13.86275,6.07496 18.05558,9.90835 5.4822,5.01223 8.42207,10.96024 8.4017,16.99878 -0.0117,3.37801 -0.96381,5.84199 -2.89151,7.4803 -1.07605,0.91451 -1.20452,0.93274 -1.81156,0.25694 -0.48684,-0.54196 -0.6534,-2.16853 -0.6534,-6.38029 0,-5.5658 -0.0246,-5.69925 -1.60055,-8.6633 -1.99432,-3.75108 -5.35922,-6.90456 -11.20808,-10.50389 -10.32239,-6.35231 -19.82203,-9.71764 -41.52601,-14.71103 -7.56691,-1.7409 -9.60654,-2.07382 -10.15046,-1.65682 -0.37438,0.28703 -0.59099,0.83878 -0.48134,1.22613 0.26429,0.93359 8.24305,11.97243 11.21921,15.52208 3.42511,4.08511 9.95197,10.97745 16.92956,17.87753 20.12043,19.8969 42.00634,33.41239 65.19449,40.26037 19.4962,5.75766 38.81965,5.62952 57.60096,-0.38198 13.41331,-4.29331 20.63106,-11.91341 21.45101,-22.64683 0.49169,-6.43553 -1.90459,-12.90118 -7.11966,-19.21048 -8.85228,-10.70963 -20.81311,-18.23856 -35.90822,-22.60292 -3.08005,-0.89052 -5.7536,-1.83178 -5.94127,-2.09168 -0.20496,-0.28389 0.21602,-0.6889 1.05445,-1.01437 1.80734,-0.70158 6.2279,0.10526 13.87746,2.53288 17.40705,5.52423 30.39314,15.79661 37.71117,29.83069 6.52259,12.50864 4.83813,23.32165 -5.01641,32.20168 -5.80354,5.22961 -10.47765,7.56579 -22.88682,11.43905 l -8.91131,2.78149 -19.87715,-0.0316 -19.87721,-0.0316 z m 152.13547,-97.24613 c 9.32386,-1.81636 13.69383,-6.0471 18.02894,-17.4547 1.33964,-3.52509 1.55738,-4.66573 1.56383,-8.19082 0.007,-3.67016 -0.12161,-4.29686 -1.23613,-6.03537 -0.684,-1.06695 -1.99652,-2.60845 -2.91671,-3.42555 -1.9624,-1.74256 -2.2081,-3.04089 -0.57541,-3.04089 1.82438,0 4.20535,-1.79423 4.88355,-3.68007 1.19642,-3.32666 -0.62374,-12.89356 -3.91874,-20.59749 -3.39962,-7.94844 -4.66412,-9.0888 -12.12651,-10.93591 -4.06257,-1.00558 -5.55998,-1.15169 -12.10293,-1.18087 -6.66992,-0.0298 -7.80377,0.0741 -10.62438,0.97415 -4.65147,1.48405 -8.49891,4.01917 -10.15723,6.69277 -3.30294,5.32492 -6.05822,15.03591 -6.04524,21.3063 0.009,4.33633 0.52948,5.21073 3.66072,6.14949 1.37552,0.41237 2.80708,1.03262 3.18131,1.37832 0.59613,0.55067 0.39854,0.79564 -1.59447,1.97706 -5.57769,3.30633 -6.52354,5.94906 -5.00308,13.97856 1.50722,7.95964 3.60823,12.51367 7.52171,16.30378 4.46331,4.32255 10.61981,6.33717 19.52733,6.38996 2.5667,0.0152 6.13675,-0.25871 7.93344,-0.60872 z m -244.99042,-2.17203 c 1.52671,-0.36733 3.27285,-1.0948 3.88032,-1.61661 0.98699,-0.84775 1.07867,-1.21779 0.86164,-3.47738 -0.29135,-3.03332 -0.77474,-3.63165 -2.38612,-2.95341 -1.16575,0.49066 -5.05356,4.67722 -5.96609,6.42455 -0.50218,0.9616 -0.24042,2.29076 0.45116,2.29076 0.21079,0 1.63238,-0.30056 3.15909,-0.66791 z m -59.5422,-29.11242 c 5.28863,-1.04773 5.3641,-3.31085 0.18582,-5.57096 -3.47144,-1.51513 -3.82419,-2.47484 -1.31578,-3.57982 3.05951,-1.34776 3.02177,-1.8898 -0.69848,-10.03181 -2.04991,-4.48636 -3.84736,-7.77691 -4.66839,-8.54637 l -1.33511,-1.2512 -2.08351,2.97559 c -3.98995,5.69833 -10.12316,17.671 -10.12316,19.7615 0,4.27816 11.64457,7.90604 20.03861,6.24307 z m 198.21858,-0.30402 c 1.37287,-0.80639 1.54591,-3.03088 1.54591,-19.87267 0,-18.9899 -0.12616,-19.99517 -2.93721,-23.39969 -0.88055,-1.06649 -2.58284,-2.34746 -4.07144,-3.06378 -3.43807,-1.65443 -3.59855,-1.87089 -1.78446,-2.40633 5.81997,-1.71774 20.10158,-1.76976 27.35228,-0.0996 3.86214,0.8896 7.57453,2.34669 7.57453,2.97295 0,0.18318 -1.15843,0.6968 -2.57427,1.14138 -3.14067,0.98615 -6.06638,3.21358 -6.68463,5.08919 -0.66524,2.01812 -1.06919,28.04663 -0.46032,29.66011 0.93573,2.47957 4.45513,3.18585 9.28451,1.86322 5.76537,-1.57899 10.05083,-4.7624 11.61717,-8.62969 2.1691,-5.35546 5.1904,-9.85019 9.73523,-14.48291 3.21202,-3.2741 3.74805,-4.76196 2.89668,-8.04017 -1.50278,-5.78679 -6.49338,-10.55418 -15.18091,-14.50193 -14.7152,-6.68681 -30.44685,-8.90163 -45.7773,-6.44486 -9.91106,1.58828 -29.61121,8.20915 -38.69057,13.00322 -2.05336,1.08422 -3.81095,2.03275 -3.90578,2.10786 -0.29353,0.23249 21.84041,23.03206 26.05558,26.83916 8.98809,8.11793 13.01109,10.71455 18.18986,11.74053 3.15255,0.62455 3.7065,1.19628 3.42155,3.53152 -0.17048,1.3974 -0.0277,2.06833 0.55492,2.60649 0.81126,0.74944 2.86791,0.95625 3.83867,0.38602 z"
   id="path21" /><path
   style="fill:#391515;fill-opacity:1;stroke-width:0.448533"
   d="m 385.48488,93.348133 c -1.68965,-0.846892 -1.94382,-2.023035 -1.56451,-7.239271 0.53722,-7.38785 0.56462,-7.469018 2.62389,-7.773198 3.40841,-0.503479 5.10019,-2.582236 5.82783,-7.16084 0.16956,-1.066966 0.91894,-4.073854 1.66527,-6.68199 1.54525,-5.400028 1.78737,-10.072233 0.65202,-12.582352 -0.76396,-1.689031 -0.77515,-1.658559 1.63207,-4.445958 0.78653,-0.910744 8.26342,-24.102434 7.84173,-24.323288 -0.0737,-0.03858 -1.18399,-0.308764 -2.46735,-0.600384 -4.71232,-1.070799 -6.32372,-4.193006 -5.37002,-10.404822 0.79623,-5.1861062 1.54527,-5.5750644 7.76817,-4.033773 6.02382,1.4919816 11.68579,1.5367968 17.73907,0.1404065 5.33779,-1.2313348 6.4535,-1.0259265 7.64978,1.408363 1.29527,2.6356845 1.20003,6.4033045 -0.23375,9.2481555 -0.92381,1.832978 -1.53822,2.437652 -3.26383,3.212105 -1.46294,0.656571 -2.05681,1.162263 -1.90459,1.621814 0.12161,0.36727 1.17886,4.838622 2.34931,9.936338 2.9684,12.928449 2.78131,12.420229 5.42158,14.728745 l 2.30043,2.011404 -0.46643,1.868467 c -1.29428,5.184527 -0.15877,14.425099 2.32532,18.923112 1.49918,2.714626 4.9101,5.864058 7.24182,6.686658 1.89528,0.668632 2.06156,0.857009 2.39622,2.714771 0.5086,2.823348 0.35105,8.253177 -0.31376,10.813114 l -0.56423,2.172695 -1.93727,-0.321607 c -3.2114,-0.533122 -13.39666,-0.364128 -16.50939,0.273937 -3.46363,0.709989 -5.36771,0.212343 -6.13139,-1.602488 -0.41879,-0.995208 -0.75923,-7.064024 -0.58712,-10.466101 0.0753,-1.486492 2.10459,-3.311188 4.05941,-3.649957 2.33593,-0.404814 2.69417,-1.062681 2.39038,-4.389807 -0.27697,-3.033221 -3.50905,-11.574159 -4.63804,-12.256222 -1.29224,-0.780691 -3.03369,-0.885392 -7.41338,-0.445666 -8.37346,0.840686 -10.17072,2.716786 -10.56174,11.025122 -0.21023,4.467349 -0.15748,4.864962 0.74468,5.613309 0.53402,0.442978 1.90599,0.902771 3.04883,1.021755 l 2.07788,0.216364 0.31095,4.366945 c 0.17102,2.401828 0.242,5.626138 0.15775,7.165136 -0.13739,2.50964 -0.27614,2.852428 -1.34543,3.324187 -0.95746,0.422407 -1.69263,0.402977 -3.73338,-0.09877 -3.25133,-0.799293 -9.21712,-0.797865 -12.80796,0.0036 -3.52969,0.787304 -4.80887,0.783403 -6.41082,-0.01956 z m 32.07623,-40.035397 c 1.01896,-0.393293 1.70745,-1.007294 1.89228,-1.687508 0.39153,-1.441126 -2.89954,-14.59855 -4.3026,-17.201371 -0.6071,-1.126239 -1.29505,-2.047707 -1.52876,-2.047707 -0.99646,0 -2.94558,5.153135 -4.24338,11.218759 -0.7605,3.554393 -1.38273,6.857909 -1.38273,7.341152 0,0.483233 0.51547,1.354776 1.14547,1.936756 0.96487,0.891322 1.59263,1.058156 3.98173,1.058156 1.55991,0 3.55702,-0.278209 4.43799,-0.618237 z"
   id="path22" /><path
   style="fill:#ffffff;fill-opacity:1;stroke-width:0.448533"
   d="m 542.16448,352.25136 -16.80024,-0.2446 -6.63595,-1.81291 c -18.32308,-5.00575 -30.28621,-10.48053 -46.69248,-21.36826 -11.65699,-7.73595 -19.83041,-14.14017 -29.76461,-23.32183 -13.8928,-12.84041 -20.15915,-20.31972 -27.29285,-32.57582 -1.86309,-3.20089 -3.4604,-5.89981 -3.54959,-5.9976 -0.63232,-0.69325 -4.03799,1.97329 -15.09966,11.82261 -21.93304,19.52917 -44.53518,33.20643 -70.80502,42.84632 -11.93786,4.38068 -26.72987,8.40018 -37.46318,10.18002 -5.7751,0.95765 -22.12414,1.35806 -27.66068,0.67745 -11.28087,-1.38676 -19.99127,-4.93745 -26.60561,-10.84545 -1.91171,-1.70756 -2.61177,-2.62052 -2.40011,-3.13002 0.16435,-0.39562 0.51984,-0.7193 0.79,-0.7193 0.27017,0 2.32406,1.15965 4.56423,2.57699 11.15745,7.05931 20.35852,9.39637 35.17711,8.93493 8.50838,-0.26495 15.82973,-1.22419 25.19194,-3.30064 35.26266,-7.82092 66.66379,-24.59501 96.0984,-51.33464 7.91746,-7.19253 8.31312,-7.63069 8.16679,-9.04363 -0.25902,-2.50068 -0.72243,-2.56912 -17.42072,-2.57311 -33.75852,-0.009 -54.05076,2.04661 -99.86807,10.11205 -39.01051,6.86721 -46.20101,8.07371 -55.1403,9.25203 -30.72431,4.04983 -64.42116,4.75677 -91.62843,1.9223 -20.02627,-2.08636 -40.626862,-6.82394 -52.863847,-12.15724 -7.839093,-3.41654 -13.483118,-7.08498 -20.385523,-13.24994 l -6.125704,-5.47123 -4.763086,0.2717 c -2.6197,0.14944 -7.598129,0.37756 -11.063183,0.50691 -7.43096,0.27741 -10.468393,-0.15862 -27.880306,-4.00224 L 2.9303949,247.7088 3.1518128,245.76887 c 0.1217744,-1.06697 0.3539315,-6.55286 0.5158916,-12.1909 0.2593339,-9.02776 0.3777056,-10.18716 0.9920026,-9.71621 0.3836416,0.29413 2.1283636,3.25812 3.8771611,6.58665 3.2944069,6.27034 5.4086089,9.02012 9.1043429,11.84127 5.04856,3.85383 10.64906,5.35653 19.116149,5.12911 4.798671,-0.12887 5.86837,-0.29182 7.474796,-1.13868 3.332937,-1.75701 3.88172,-2.975 4.414146,-9.79687 0.258334,-3.31006 0.471546,-9.4237 0.473807,-13.58585 l 0.0039,-7.56757 -1.334255,-1.91655 c -0.733842,-1.05411 -1.888859,-2.38686 -2.566706,-2.96168 -1.777699,-1.50749 -1.560654,-2.40518 0.904142,-3.73953 1.175129,-0.63616 2.308035,-1.57322 2.517569,-2.08234 0.617044,-1.49921 1.075689,-25.47187 0.564244,-29.49165 -0.387006,-3.04169 -0.660125,-3.79073 -1.77362,-4.86437 -0.723889,-0.69798 -2.267615,-1.52755 -3.430493,-1.8435 l -2.114311,-0.57442 2.800043,-0.59656 c 3.905132,-0.83199 33.069785,-0.84658 37.91554,-0.0189 3.701975,0.63226 4.530893,1.12062 2.560781,1.5087 -2.140229,0.42158 -4.329373,1.94857 -5.037244,3.51359 -0.54421,1.2032 -0.671922,4.5553 -0.671922,17.63617 v 16.1506 l 1.386705,0.91214 c 1.550066,1.0196 5.417586,1.72688 9.463447,1.73065 3.415773,0.004 4.362113,-0.7809 4.767088,-3.9497 0.161581,-1.26429 0.474481,-8.70049 0.695333,-16.52488 l 0.401545,-14.22619 -2.290313,-2.07828 c -1.259669,-1.14305 -2.2903,-2.14776 -2.2903,-2.2327 0,-1.34258 28.035688,-1.86739 37.030718,-0.69319 l 4.59695,0.60008 -2.49692,1.1243 c -1.80423,0.81243 -2.91765,1.70587 -4.01358,3.22074 l -1.5167,2.09644 v 14.59983 c 0,19.16217 -0.43951,18.12635 8.39714,19.78987 9.40547,1.7706 19.60326,6.16389 19.60326,8.44527 0,0.95005 -1.22,0.73871 -6.27492,-1.08699 -10.63996,-3.84289 -17.05628,-4.83658 -19.54644,-3.02715 -1.76106,1.27966 -2.17451,3.28974 -2.16833,10.54225 0.0101,12.54443 2.3265,17.00565 10.72278,20.6565 5.98131,2.60077 8.49198,3.01901 18.20026,3.03189 7.60903,0.01 9.06991,-0.10478 12.31177,-0.96758 7.84285,-2.08746 12.00155,-4.98861 14.87582,-10.37754 l 1.5128,-2.83633 0.15237,-8.04703 c 0.14039,-7.41527 0.0774,-8.18271 -0.80218,-9.77541 -0.98308,-1.7801 -3.04978,-3.24946 -5.30026,-3.76833 -1.82696,-0.42122 -1.60262,-0.90063 0.98923,-2.11389 2.50757,-1.17381 4.53956,-3.13932 5.07766,-4.91151 0.19242,-0.63377 0.34986,-7.36008 0.34986,-14.94738 0,-16.08078 0.18537,-15.38574 -5.05881,-18.96825 l -3.15527,-2.15547 2.00701,-0.58223 c 4.98199,-1.44523 22.36662,-1.03488 28.5409,0.67367 l 2.39986,0.6641 -2.01137,0.55435 c -2.50552,0.69055 -4.91518,2.1892 -5.83646,3.6299 -1.04892,1.64032 -1.63405,5.40658 -2.17019,13.96849 -0.66184,10.56964 -0.61655,15.95658 0.14836,17.64772 0.87987,1.94528 3.70303,4.10359 6.16256,4.71127 1.14055,0.28179 2.07374,0.62134 2.07374,0.75452 0,0.1332 -1.31252,0.8979 -2.91671,1.69934 -3.55523,1.77613 -4.52271,2.51735 -5.11016,3.91502 -0.24915,0.59276 -0.61649,4.91539 -0.81629,9.60585 l -0.36329,8.52811 -1.70798,3.19239 c -3.08853,5.77279 -8.82226,9.53313 -19.45308,12.75786 -8.15853,2.47478 -14.85211,3.46805 -25.17789,3.73619 -17.42561,0.45249 -30.40636,-1.72707 -41.23192,-6.92313 -5.40079,-2.59227 -9.99825,-6.30329 -12.424226,-10.02868 l -1.633359,-2.50822 -0.493515,-9.83966 c -0.57634,-11.49068 -0.594671,-11.53399 -5.026525,-11.8735 -3.305057,-0.25318 -5.599761,0.48135 -8.067051,2.58226 -2.287273,1.94758 -2.652154,2.80431 -3.724855,8.74581 -1.821573,10.08925 -5.174751,15.91733 -11.855123,20.60504 l -1.633358,1.14614 1.125499,1.96806 c 2.788557,4.87607 9.090537,9.58881 18.460091,13.80485 10.108333,4.54845 19.935052,7.26942 34.870312,9.65534 19.10828,3.05257 28.53578,3.6572 52.17893,3.34647 29.20845,-0.38389 44.81158,-1.72856 96.13469,-8.28482 58.21778,-7.43702 83.0863,-9.64149 109.43488,-9.70089 9.02627,-0.0204 15.21376,-0.5768 16.95028,-1.52437 1.94747,-1.0627 3.0381,-2.95944 2.68928,-4.67702 -0.24627,-1.21268 -3.28354,-5.95841 -13.05459,-20.3977 -1.53309,-2.26554 -2.45415,-3.19269 -3.38644,-3.40885 -0.70433,-0.1633 -3.55239,0.0532 -6.32904,0.48105 -6.06561,0.93469 -10.02638,0.72995 -17.40311,-0.89965 -2.82338,-0.6237 -6.40855,-1.22933 -7.96704,-1.34584 -2.49656,-0.18664 -2.98072,-0.0911 -4.07004,0.80347 -1.61439,1.3257 -11.06324,19.04963 -11.06324,20.75217 0,0.37269 0.55912,1.08391 1.2425,1.58047 1.23992,0.90098 1.71131,1.04759 4.85915,1.51129 3.17321,0.46745 4.76322,3.09115 2.84505,4.69472 -0.76155,0.63665 -2.6833,0.71277 -17.85025,0.70711 -17.84283,-0.007 -18.8546,-0.10658 -19.57081,-1.93357 -0.18589,-0.47421 -0.16642,-1.28783 0.0433,-1.80803 0.37191,-0.92259 1.07025,-1.19554 5.82503,-2.27669 3.10203,-0.70534 6.05593,-2.82662 8.3156,-5.97168 4.09852,-5.70436 8.27161,-13.61839 11.22337,-21.28448 0.70299,-1.82579 2.652,-5.51167 4.3311,-8.19084 4.57508,-7.29998 19.16965,-34.11741 19.52819,-35.88295 0.3863,-1.90216 -0.46407,-3.23434 -3.08881,-4.83889 -1.10572,-0.67594 -1.70261,-1.30426 -1.4557,-1.53235 0.9492,-0.87684 10.61635,-1.29034 25.05287,-1.07161 13.8646,0.21006 18.4336,0.58721 18.4336,1.52162 0,0.17399 -0.88566,0.60136 -1.96815,0.9497 -2.29869,0.73972 -4.0986,2.88756 -4.0986,4.89083 0,0.77557 1.62439,4.46958 3.90553,8.8815 2.14803,4.15451 5.1404,10.26957 6.64971,13.58899 2.38591,5.24737 3.07934,6.34715 5.31128,8.42347 2.63809,2.4542 5.89111,3.86278 8.92075,3.86278 1.64778,0 1.72848,0.61108 0.20266,1.53461 -0.62907,0.38077 -1.59903,1.56105 -2.15546,2.62286 -1.63859,3.12684 -1.17383,5.18551 3.2347,14.32797 2.10144,4.35796 4.2489,8.47897 4.77216,9.15779 0.9082,1.17823 1.01094,1.20577 2.26422,0.60709 2.08726,-0.99709 8.62125,-6.89551 11.205,-10.11509 2.92518,-3.64505 6.16892,-9.90637 7.49677,-14.4709 0.78441,-2.69643 1.09648,-5.51773 1.43056,-12.93289 0.235,-5.21626 0.6543,-12.73777 0.93178,-16.71443 0.48788,-6.99246 0.47181,-7.29263 -0.48848,-9.12509 -1.17807,-2.24806 -2.85686,-3.3765 -5.10802,-3.43348 -1.63749,-0.0414 -1.64251,-0.0357 -2.01439,2.29347 -0.4282,2.68203 -0.93869,3.39201 -3.01542,4.19391 -1.8055,0.69718 -2.87065,0.38445 -3.4452,-1.01154 -0.81272,-1.97466 -0.47731,-3.11915 1.49277,-5.0935 2.43252,-2.43778 4.31443,-2.95524 8.64473,-2.37695 5.04756,0.67407 11.34542,0.53224 21.10149,-0.47525 9.42829,-0.97363 11.85963,-0.86814 12.82207,0.5563 0.38378,0.56799 0.18521,0.94587 -0.96794,1.84221 -0.79792,0.62021 -1.93451,2.04459 -2.52578,3.16531 -0.9942,1.88444 -1.08863,2.71016 -1.25592,10.98288 -0.14095,6.96898 -0.0518,8.94526 0.40381,8.94526 1.00857,0 18.12658,-10.72115 18.93277,-11.85774 0.56242,-0.79292 0.71465,-1.74905 0.57086,-3.58523 -0.25479,-3.25423 -1.60469,-5.02488 -4.89012,-6.41432 -2.61305,-1.1051 -3.10743,-1.94963 -1.58267,-2.70347 0.50027,-0.24733 3.91282,-0.63682 7.58344,-0.86556 12.47893,-0.77761 18.06809,-2.09132 33.9278,-7.9746 13.48507,-5.00238 20.47971,-7.02572 29.35925,-8.49271 5.21045,-0.86083 7.48913,-0.97955 18.98786,-0.98935 11.85788,-0.01 13.5634,0.0816 18.43359,0.99183 10.07758,1.8833 19.59519,5.18344 25.62042,8.88364 4.24219,2.60521 7.29629,5.69869 11.48491,11.63306 1.93822,2.74604 3.69946,4.99278 3.91385,4.99278 0.21439,0 2.36043,-0.86133 4.76898,-1.91406 5.34976,-2.33828 11.42421,-4.24593 17.52055,-5.50221 3.9964,-0.82355 6.01518,-0.94846 15.55907,-0.96272 11.76026,-0.0176 15.20982,0.36701 23.18555,2.585 9.4358,2.62403 18.38188,7.82051 25.40749,14.75838 5.74952,5.67767 8.2753,9.54754 11.16116,17.10051 1.88993,4.9464 3.16707,6.75185 5.77457,8.16345 l 2.13147,1.15391 -1.73303,1.38489 c -2.91255,2.32743 -3.71341,3.38388 -5.78835,7.63578 -1.09919,2.25248 -2.98954,5.69898 -4.20074,7.65888 -8.29942,13.42941 -22.39439,22.20218 -40.77124,25.37617 -6.53618,1.1289 -24.24806,1.1504 -30.19833,0.0367 -12.15045,-2.27424 -24.21638,-8.09385 -32.31614,-15.58662 -5.51813,-5.10461 -9.4064,-10.88082 -12.43913,-18.4789 -2.74768,-6.88409 -4.24547,-7.90184 -9.30957,-6.32592 -5.99395,1.86529 -9.86832,4.24128 -11.00164,6.74687 -0.48464,1.07155 -0.64447,4.36794 -0.66973,13.81522 -0.0386,14.41633 -0.35905,18.77478 -1.45499,19.78714 -0.8583,0.79288 -6.25411,1.31793 -8.87555,0.86365 -1.90982,-0.33098 -4.028,-2.03031 -20.20337,-16.20827 -24.3826,-21.37176 -26.01502,-22.59951 -33.27165,-25.02396 -3.11602,-1.04107 -3.52697,-1.44323 -4.01143,-3.92562 -0.45619,-2.33723 -3.48708,-6.34916 -6.97817,-9.2367 -3.9251,-3.24652 -8.69967,-5.97392 -9.37149,-5.3533 -0.32444,0.29971 -0.48791,8.65463 -0.49333,25.21075 l -0.008,24.76248 1.17998,1.09168 c 0.87188,0.8066 2.15071,1.26324 4.89736,1.7487 3.99417,0.70595 4.66044,1.07682 5.13257,2.85715 0.22577,0.85135 0.0474,1.38564 -0.69003,2.06682 -0.98523,0.91015 -1.16038,0.91749 -18.86959,0.79178 -19.16674,-0.13606 -19.08536,-0.12623 -19.54806,-2.36217 -0.39051,-1.8871 1.2583,-2.97996 5.0628,-3.35571 3.65843,-0.36131 5.51034,-1.08944 6.34959,-2.49653 0.40125,-0.67264 0.63403,-4.45436 0.76745,-12.4675 0.23629,-14.18792 0.0233,-15.13689 -4.27832,-19.05321 l -2.78319,-2.53394 1.12291,-0.79747 c 0.61759,-0.43861 1.35391,-0.80179 1.63625,-0.80706 0.28229,-0.005 1.3848,-0.59278 2.45003,-1.30558 l 1.9367,-1.29599 v -7.32593 c 0,-6.35312 -0.0968,-7.32593 -0.7288,-7.32593 -1.87501,0 -7.92277,3.31617 -11.1932,6.13756 -3.99739,3.44852 -6.02384,6.76288 -6.77728,11.08461 -0.26632,1.52767 -0.5255,9.96575 -0.57595,18.75126 -0.10319,17.95866 -0.23219,17.19463 3.5109,20.78083 l 1.86778,1.78947 -4.08242,0.31414 c -2.24532,0.17278 -11.78083,0.17229 -21.19004,-9.9e-4 -17.51482,-0.32271 -22.69882,-0.13493 -24.16448,0.87528 -0.78169,0.53878 -0.74228,0.66062 0.62743,1.93995 1.31195,1.22537 2.12487,1.48893 7.94389,2.57561 12.28861,2.29482 21.04333,4.70942 32.92733,9.08154 19.14558,7.04366 25.19707,10.54131 30.20494,17.45793 2.92078,4.03399 4.26881,7.90966 4.27926,12.30299 0.009,3.64254 -0.69039,5.6493 -2.50649,7.19522 -0.92556,0.78782 -1.26307,0.88011 -1.57684,0.43109 -0.21958,-0.31421 -0.50896,-3.19019 -0.64309,-6.39109 -0.22013,-5.25426 -0.37175,-6.06252 -1.56022,-8.31751 -3.42627,-6.5007 -14.24087,-13.71021 -27.83634,-18.55697 -7.50677,-2.67616 -25.9861,-7.45023 -33.38247,-8.62426 -1.90579,-0.30251 -2.74111,0.22955 -2.38988,1.52226 0.31324,1.15289 6.85754,10.35155 10.85649,15.25981 7.85599,9.64243 27.14964,28.04442 37.08863,35.37459 27.67625,20.41169 57.98038,29.98909 84.43525,26.6851 16.11179,-2.01222 26.99937,-6.0696 33.49205,-12.4812 7.40036,-7.3079 8.77028,-17.88777 3.56371,-27.52236 -6.53403,-12.09097 -21.19326,-22.82674 -38.68913,-28.33417 -6.63409,-2.08833 -7.30558,-2.4102 -6.30009,-3.01995 1.44725,-0.87763 4.37483,-0.40653 12.36684,1.99006 17.60857,5.2803 31.24672,15.70801 38.67948,29.57419 1.17764,2.19703 2.56417,5.52908 3.08116,7.40455 1.09873,3.98588 1.23435,9.76142 0.30463,12.97171 -1.83434,6.33409 -7.39457,12.77669 -14.78723,17.13388 -3.45461,2.03612 -8.00844,3.83083 -17.3574,6.84068 -7.61821,2.45262 -8.02692,2.53476 -12.1685,2.44545 -2.35708,-0.0507 -11.84567,-0.20248 -21.0858,-0.33701 z M 676.5682,253.95928 c 8.21806,-1.94161 12.33175,-6.00703 16.37169,-16.17974 1.37243,-3.45587 1.75204,-5.09853 1.93926,-8.39233 0.27515,-4.84155 -0.12082,-5.98132 -3.35044,-9.64412 -2.2123,-2.50912 -2.47481,-3.71988 -0.80635,-3.71988 1.18254,0 3.20066,-1.51064 4.0536,-3.03433 1.9311,-3.44965 -0.96167,-16.85295 -5.41355,-25.08285 -2.42875,-4.48994 -3.98087,-5.58224 -10.29827,-7.2475 -4.41215,-1.16304 -15.72962,-1.65459 -20.0842,-0.87232 -4.11209,0.73872 -8.56963,2.80661 -11.11164,5.15485 -3.99691,3.69219 -7.40904,13.35417 -7.81588,22.13176 -0.27945,6.02895 0.0395,6.72732 3.61499,7.91502 3.59492,1.19415 3.63411,1.50123 0.46275,3.62359 -4.80407,3.21496 -5.5983,6.37311 -3.76312,14.96369 1.16865,5.47056 2.46978,8.84937 4.49337,11.66825 4.84247,6.74568 11.32288,9.50812 22.4145,9.55479 4.18349,0.0177 6.58602,-0.19927 9.29329,-0.83888 z M 432.72961,251.2395 c 2.08001,-0.98161 2.10136,-1.01438 2.23962,-3.43516 0.25707,-4.50112 -1.31914,-5.34502 -4.40566,-2.3588 -2.98047,2.88365 -4.36738,4.83177 -4.36738,6.13465 0,1.18706 0.0301,1.19966 2.21669,0.92689 1.21919,-0.15208 3.1617,-0.72249 4.31673,-1.26758 z m -61.3696,-28.36324 c 2.46842,-0.57417 3.70933,-1.69097 3.27699,-2.94928 -0.17038,-0.49589 -1.65628,-1.61577 -3.30878,-2.49374 -1.66862,-0.88656 -2.99952,-1.89198 -2.99952,-2.266 0,-0.3698 0.72269,-1.03186 1.60597,-1.47127 1.99933,-0.99465 2.26858,-1.62285 1.6318,-3.80737 -0.68886,-2.36321 -4.418,-10.39748 -6.08341,-13.10643 -2.21861,-3.6088 -2.41514,-3.63066 -4.59187,-0.51049 -4.46471,6.39981 -10.29607,18.03243 -10.29607,20.53901 0,2.27399 3.68145,4.67185 9.10012,5.92725 2.95906,0.68555 9.00403,0.75723 11.66477,0.13832 z m 198.1644,-0.6687 c 0.52151,-0.58071 0.64047,-4.24441 0.64047,-19.72266 0,-20.96969 0.0699,-20.4207 -3.01172,-23.66287 -0.82234,-0.86516 -2.68355,-2.20115 -4.13613,-2.96887 l -2.64105,-1.39584 2.09444,-0.615 c 3.3208,-0.97511 18.30078,-1.18421 23.64713,-0.33007 4.05095,0.64718 8.75347,2.03528 9.65873,2.85107 0.23235,0.20941 -0.88342,0.92091 -2.5667,1.63682 -1.63779,0.69651 -3.69424,1.96403 -4.57,2.81672 l -1.59219,1.55033 -0.41618,7.45167 c -0.22886,4.09841 -0.35239,11.00925 -0.27445,15.35741 l 0.14168,7.90575 1.3094,1.03949 c 3.48916,2.77006 14.59556,-0.4783 18.20566,-5.32472 0.66006,-0.88608 1.85111,-2.95786 2.64683,-4.60397 1.98253,-4.10138 4.41529,-7.70862 7.36565,-10.92161 3.99225,-4.3476 4.77295,-5.6045 4.77295,-7.68427 0,-2.56426 -1.57279,-6.21712 -3.79509,-8.81418 -4.94356,-5.7773 -17.6583,-11.60815 -30.97208,-14.20345 -5.97145,-1.16405 -17.09941,-1.59987 -22.86699,-0.89559 -7.44475,0.9091 -17.4868,3.59245 -28.7004,7.66907 -7.75411,2.81895 -17.73358,7.4851 -17.73358,8.29179 0,0.36836 13.86384,14.86061 21.42978,22.40113 9.53292,9.5009 16.99979,14.90181 22.13356,16.00954 3.31521,0.71536 4.03732,1.4019 4.03732,3.83844 0,1.10133 0.25201,2.23523 0.56002,2.51975 0.83399,0.7704 3.88086,0.64158 4.63294,-0.19588 z"
   id="path28" /><path
   style="fill:#ffffff;fill-opacity:1;stroke-width:0.448533"
   d="m 253.68047,259.12444 c -5.98659,-0.53765 -12.05341,-1.55617 -16.71364,-2.80591 -2.18535,-0.58605 -5.78189,-1.55052 -7.99229,-2.14328 -5.41762,-1.45283 -6.65154,-1.40084 -9.18707,0.38702 -3.20558,2.26036 -3.95306,2.52794 -6.19421,2.21748 -3.90971,-0.54159 -3.86111,-0.40667 -4.29097,-11.9099 l -0.37997,-10.16758 -1.53125,-2.20435 c -1.94349,-2.79778 -1.84258,-4.20789 0.40204,-5.61733 1.37876,-0.86575 2.03797,-0.99303 4.22926,-0.81655 5.29689,0.42662 9.71356,3.50279 15.62698,10.88407 6.72651,8.39618 13.66375,12.53064 25.08909,14.95257 6.06636,1.28593 16.74307,1.28142 21.88067,-0.01 9.33396,-2.3449 14.84181,-6.75996 14.84181,-11.89712 0,-2.52248 -0.51704,-3.68958 -2.40937,-5.43864 -2.79647,-2.58472 -9.94103,-4.95559 -33.7578,-11.20224 -19.62127,-5.14624 -25.96155,-7.42278 -32.34047,-11.61207 -3.86203,-2.53634 -7.48719,-6.69789 -8.95831,-10.28381 -1.27906,-3.1177 -1.29641,-9.11929 -0.0352,-12.18536 4.48569,-10.9054 23.76943,-19.06385 43.43406,-18.37581 6.73494,0.23564 11.21759,0.86612 20.59375,2.89647 7.48184,1.62016 9.60728,1.61763 14.40675,-0.0171 4.55657,-1.55199 7.722,-1.69458 9.46718,-0.42647 2.04211,1.48386 2.57724,3.80539 3.0795,13.35936 0.33247,6.32453 0.69786,9.48393 1.285,11.11097 0.81171,2.24935 0.80973,2.28339 -0.18741,3.2045 -1.40386,1.29682 -5.89015,1.58714 -8.77873,0.56809 -2.81252,-0.99224 -4.30211,-2.21808 -7.49845,-6.17076 -7.51457,-9.29274 -14.57102,-13.9733 -24.932,-16.53746 -5.37889,-1.33119 -14.36645,-1.33081 -19.72242,8.4e-4 -5.62472,1.39845 -8.98837,2.96376 -11.07543,5.15403 -4.51909,4.74255 -3.36124,8.79361 3.71165,12.98626 3.86445,2.29076 7.44306,3.35617 26.06188,7.75909 19.31052,4.56648 24.37016,5.98457 30.52979,8.55673 3.79511,1.58477 3.95731,1.61284 6.45955,1.11775 5.58371,-1.10477 13.76686,-0.43106 13.76686,1.13341 0,0.35895 -1.24404,1.22203 -2.79626,1.93994 -4.18804,1.93699 -4.39776,2.59747 -2.81564,8.86667 2.48749,9.85661 1.25722,14.58489 -5.37646,20.66343 -6.03113,5.5264 -14.28903,9.42204 -23.74678,11.20248 -5.56268,1.04719 -17.37561,1.46783 -24.14564,0.85981 z"
   id="path29" /><path
   style="fill:#ffffff;fill-opacity:1;stroke-width:0.448533"
   d="m 284.32752,92.57936 c -10.04359,-2.152712 -13.16584,-5.342818 -14.40935,-14.722535 -1.19615,-9.022682 -2.2948,-34.535828 -1.84736,-42.900543 0.8154,-15.243589 2.25588,-20.724502 6.12773,-23.315442 3.58404,-2.3983342 5.91721,-2.759445 17.82908,-2.759445 12.50309,0 14.56786,0.3696668 18.09807,3.24019 3.43479,2.792934 4.43194,5.202777 4.99179,12.063732 0.66466,8.145665 0.62657,59.192345 -0.0459,61.429812 -1.10498,3.676768 -5.87045,6.515083 -12.64343,7.530405 -5.01567,0.751875 -13.13632,0.497874 -18.10067,-0.566174 z m 15.53152,-15.482967 c 2.38499,-1.444271 2.87693,-2.667304 2.79868,-6.957882 -0.0394,-2.156709 -0.0933,-12.730271 -0.11991,-23.496796 l -0.0484,-19.575503 -1.74142,-1.608658 c -2.06929,-1.911539 -4.28356,-2.559865 -8.754,-2.563122 -4.0911,-0.003 -7.19769,0.940274 -9.39144,2.851526 l -1.68327,1.466497 0.40803,8.509423 c 0.22441,4.680183 0.34735,14.135229 0.27321,21.011212 -0.1497,13.881667 0.2302,17.862101 1.8575,19.462224 1.55684,1.53085 3.30083,1.851616 9.52399,1.751727 4.46758,-0.07165 5.87892,-0.246284 6.87693,-0.850648 z"
   id="path30" /><path
   style="fill:#ffffff;fill-opacity:1;stroke-width:0.448533"
   d="m 218.99326,92.921092 c -2.1817,-0.306652 -7.05059,-0.572175 -10.81978,-0.590045 -3.76916,-0.01788 -7.37895,-0.217205 -8.02173,-0.442955 -1.78613,-0.627323 -2.25835,-1.923229 -2.50905,-6.885572 -0.26621,-5.269152 -0.25969,-5.27988 4.18397,-6.904907 1.63036,-0.596215 2.77919,-1.301788 2.9556,-1.815228 0.49549,-1.442122 0.31902,-19.948083 -0.20745,-21.754153 -0.2728,-0.935908 -0.80864,-2.083631 -1.19072,-2.550517 -1.00394,-1.226718 -0.8823,-2.300631 0.44228,-3.904866 l 1.16668,-1.412991 V 36.136046 c 0,-11.914587 0.40481,-10.682906 -4.36164,-13.271281 -1.80183,-0.978469 -3.00738,-1.993939 -3.55017,-2.990411 -2.67981,-4.919681 -0.48882,-11.6429059 3.79254,-11.6377248 0.85391,0.00104 3.02259,0.4819247 4.81928,1.0686485 3.80941,1.2439893 6.66502,1.3447883 12.60018,0.4447691 7.10498,-1.0774109 13.54388,-1.2612068 17.42009,-0.4972507 4.19225,0.8262429 8.00638,2.3992439 10.62638,4.3824649 3.21082,2.430453 3.98612,3.989675 4.65332,9.358564 0.50448,4.059423 0.78643,5.000478 1.95471,6.52412 1.35348,1.765174 1.35806,1.791569 0.53393,3.073752 -0.45718,0.711309 -1.4971,3.427216 -2.31092,6.03535 -2.24282,7.187879 -3.73049,9.281812 -7.67715,10.805876 l -1.86669,0.720863 2.07044,0.748311 c 2.70716,0.978429 5.41935,3.113475 6.54549,5.152616 0.49607,0.898283 1.62722,4.366812 2.51363,7.707849 1.5228,5.739757 2.10699,7.287505 3.53731,9.371592 0.53562,0.780452 0.32404,1.349194 -1.84426,4.957615 -5.55543,9.245143 -10.3217,13.214762 -17.83041,14.850134 -3.55555,0.774378 -12.03962,0.764369 -17.62586,-0.02077 z m 16.10023,-17.080713 c 1.86183,-0.946252 4.32367,-3.223205 5.24915,-4.854892 0.43375,-0.764753 0.8359,-2.802526 0.95653,-4.84696 0.17744,-3.007008 0.056,-3.817823 -0.8231,-5.495332 -2.43715,-4.650699 -7.03654,-6.462193 -15.77681,-6.213809 -7.68216,0.218322 -7.33935,-0.314417 -7.33935,11.405633 v 9.294422 l 1.15107,0.86175 c 1.05938,0.793089 1.70997,0.849748 8.16678,0.711237 5.41182,-0.116054 7.33577,-0.313168 8.41573,-0.862049 z M 230.35795,46.15952 c 3.75659,-1.071841 6.69169,-3.072143 8.23558,-5.612669 0.97407,-1.602826 1.16669,-2.489231 1.16669,-5.368576 0,-2.980006 -0.17319,-3.720924 -1.2742,-5.451042 -0.7008,-1.101249 -1.96081,-2.537098 -2.80004,-3.190777 -2.79319,-2.17566 -4.18593,-2.464267 -10.84954,-2.248245 -3.34208,0.108339 -6.41557,0.334182 -6.82997,0.50186 -1.53681,0.62182 -1.81325,2.312332 -1.81325,11.088296 v 8.634804 l 1.36412,1.260127 c 1.30499,1.205497 1.54564,1.260129 5.55093,1.260129 2.88711,0 5.13759,-0.271283 7.24968,-0.873907 z"
   id="path31" /><path
   style="fill:#ffffff;fill-opacity:1;stroke-width:0.448533"
   d="m 340.18509,93.252733 c -2.38249,-2.431917 -2.94684,-8.022939 -1.14014,-11.295123 0.82848,-1.500461 1.66721,-2.210991 3.97524,-3.367597 1.60887,-0.806241 3.16348,-1.877155 3.4547,-2.379818 0.39663,-0.684629 0.37582,-3.584032 -0.0829,-11.555808 -0.37101,-6.44695 -0.4906,-13.589297 -0.30336,-18.119054 0.98949,-23.938754 0.99349,-22.487914 -0.0645,-23.35938 -0.90652,-0.746804 -1.11062,-0.753976 -3.44642,-0.121076 -5.52132,1.496038 -7.56092,4.047211 -8.34742,10.441044 -0.79342,6.45034 -0.99335,6.739448 -4.66087,6.739448 -1.82413,0 -2.62733,-0.226259 -3.50401,-0.987082 l -1.13742,-0.98708 7.3e-4,-13.181069 c 6.5e-4,-11.685377 0.0933,-13.352279 0.81669,-14.689905 0.79409,-1.4684263 0.88469,-1.5067593 3.38265,-1.4312262 10.00235,0.3024483 13.6031,0.2091888 17.20178,-0.4455263 4.94013,-0.8987662 10.3146,-0.9032812 15.42898,-0.012961 3.89704,0.6784086 7.06395,0.6544679 13.93283,-0.105326 3.31582,-0.3667756 4.08282,0.2921234 4.47171,3.8414565 0.48228,4.401607 0.387,24.611023 -0.12186,25.847402 -0.37402,0.908777 -0.87225,1.186611 -2.5429,1.418039 -4.15688,0.575843 -5.15354,-0.438124 -5.899,-6.001439 -0.84685,-6.320152 -2.31462,-8.484612 -7.22694,-10.657315 -2.4986,-1.105121 -2.86335,-1.165232 -3.50006,-0.576803 -0.62112,0.57404 -0.71077,3.99292 -0.71077,27.108578 0,25.425558 0.0346,26.486966 0.89079,27.360741 0.48994,0.499986 1.74997,1.108851 2.80005,1.353046 3.25987,0.758093 4.03367,1.225386 4.78696,2.890834 1.08892,2.407458 0.66518,7.567215 -0.8257,10.054327 l -1.1456,1.911132 -8.15331,-0.154916 c -6.41422,-0.121889 -8.76493,-0.0072 -11.02073,0.538871 -3.81838,0.923893 -6.35528,0.897369 -7.30928,-0.07645 z"
   id="path32" /><path
   style="fill:#ffffff;fill-opacity:1;stroke-width:0.448533"
   d="m 385.18363,92.91028 c -1.10231,-0.734378 -1.11001,-0.79453 -0.8851,-6.914618 0.22853,-6.218152 0.5857,-7.492204 2.10038,-7.492204 0.37894,0 1.38122,-0.303424 2.22724,-0.674297 2.1171,-0.928034 3.16887,-3.122319 4.94596,-10.31866 1.70914,-6.921182 2.21633,-12.684114 1.36384,-15.496829 -0.53988,-1.781216 -0.50264,-1.984858 0.60917,-3.331411 0.65133,-0.788821 1.73672,-2.985957 2.41199,-4.882525 1.71427,-4.814698 6.30544,-19.517523 6.30544,-20.192653 0,-0.30668 -1.14191,-0.89011 -2.53756,-1.296513 -4.42508,-1.288545 -5.78957,-3.735398 -5.22305,-9.366223 0.33834,-3.3629332 1.01034,-5.0190185 2.17516,-5.360532 0.44348,-0.1300276 2.77415,0.1885581 5.17925,0.707965 5.56316,1.2014257 12.70453,1.2862601 17.7316,0.210641 5.10962,-1.093283 6.49808,-0.8807025 7.57718,1.1601055 1.95061,3.6890025 0.5533,10.2655885 -2.51491,11.8366645 -3.17736,1.626963 -3.10216,0.831523 -0.94995,10.048672 3.19618,13.688129 3.49634,14.540268 5.9288,16.83192 l 2.11547,1.993009 -0.43225,3.395691 c -0.76913,6.042089 0.56959,14.39111 2.89536,18.057187 1.40753,2.218672 5.44736,5.729052 7.26775,6.315256 0.89211,0.287283 1.51823,0.859662 1.74053,1.591135 0.45744,1.505214 0.4452,8.805645 -0.019,11.304207 l -0.36613,1.970948 -7.10064,-0.107534 c -3.90535,-0.05917 -8.72323,0.09458 -10.70643,0.341589 -4.0944,0.509947 -5.72182,0.27564 -6.41676,-0.92387 -0.26548,-0.458233 -0.61632,-3.129053 -0.77966,-5.935143 -0.28956,-4.974812 -0.26861,-5.132441 0.84038,-6.323431 0.62554,-0.671788 2.07283,-1.636056 3.21622,-2.142822 l 2.07889,-0.921374 -0.0649,-3.233226 c -0.0506,-2.521041 -0.43447,-4.182816 -1.74257,-7.544183 -2.26249,-5.813819 -2.5353,-5.997011 -8.45931,-5.680182 -10.19632,0.54534 -12.32887,2.695736 -12.35544,12.458879 l -0.0117,4.192118 1.37683,0.657711 c 0.75727,0.361739 1.87029,0.65771 2.47338,0.65771 2.03283,0 2.21653,0.631152 2.21653,7.615245 0,7.892793 0.0214,7.863138 -5.07629,7.021574 -2.96668,-0.48976 -8.06788,-0.404885 -15.22399,0.253294 -2.22149,0.204327 -3.02979,0.104414 -3.91203,-0.483291 z m 32.56663,-39.52454 c 2.12426,-1.009213 2.18723,-1.570635 0.86619,-7.722794 -1.34842,-6.279637 -3.18862,-11.779375 -4.27809,-12.785794 -1.0938,-1.01041 -1.89114,-0.04945 -3.26278,3.932285 -1.34914,3.916413 -3.07966,11.652946 -3.07966,13.768042 0,0.800961 0.41621,1.767244 1.01471,2.355742 0.87676,0.862121 1.46353,0.996888 4.31672,0.991391 1.81611,-0.0036 3.80642,-0.245985 4.42291,-0.538872 z"
   id="path33" /><path
   style="fill:#ffffff;fill-opacity:1;stroke-width:0.448533"
   d="m 472.86351,93.083666 c -4.55026,-1.316813 -6.80799,-1.402385 -9.98987,-0.378674 -1.51603,0.487768 -3.35356,0.886845 -4.08339,0.886845 -1.67447,0 -3.06213,-1.260587 -3.41402,-3.101401 -0.49994,-2.615229 -2.00564,-23.69607 -1.7598,-24.638111 0.6914,-2.649158 4.46645,-3.972476 7.73425,-2.711181 2.11863,0.817727 2.43711,1.559713 3.03475,7.070168 0.85851,7.915753 2.12257,8.938792 11.04479,8.938792 6.93836,0 8.67964,-0.64883 10.49448,-3.910404 0.98553,-1.771194 1.17071,-2.692256 1.16211,-5.78025 -0.008,-3.019119 -0.20686,-4.017279 -1.11421,-5.60456 -1.81186,-3.169535 -6.36472,-7.135961 -14.27578,-12.436941 -13.12275,-8.793207 -17.51013,-13.935675 -19.1882,-22.490571 -0.90308,-4.604014 -0.58937,-10.873286 0.67637,-13.516559 1.83959,-3.841657 6.00947,-7.0012471 11.19108,-8.4796765 4.43395,-1.2650977 7.6401,-1.1100721 13.55143,0.6552493 l 5.04674,1.507124 3.46142,-0.8503326 c 3.62745,-0.8911212 5.91132,-1.073394 6.77494,-0.5407025 1.60241,0.9883927 1.77236,2.4006073 1.96839,16.3573173 l 0.19504,13.885112 -1.36256,1.258697 c -1.62693,1.5029 -4.38444,2.050734 -7.02111,1.394881 -3.18481,-0.792204 -3.58735,-1.567896 -3.89832,-7.511978 -0.1507,-2.880281 -0.44478,-5.62486 -0.65353,-6.099066 -0.77289,-1.755655 -2.74338,-3.773339 -4.25479,-4.356705 -3.14015,-1.212016 -9.1281,-0.312206 -12.20413,1.833916 -4.54075,3.168034 -3.72552,7.287087 2.98426,15.078251 3.18973,3.703816 6.0632,5.699974 10.1264,7.03469 3.25756,1.07007 3.56761,1.305213 10.54884,8.000022 11.09835,10.643028 13.36158,14.463012 13.28137,22.417013 -0.0523,5.190037 -1.11278,8.156745 -3.99791,11.184552 -2.44806,2.569107 -5.58446,4.019702 -10.87011,5.027452 -5.55524,1.059151 -11.26384,1.012933 -15.18893,-0.122969 z"
   id="path34" /></svg>
