<?xml version="1.0" encoding="UTF-8" standalone="no"?>
<!-- Created with Inkscape (http://www.inkscape.org/) -->

<svg
   width="50"
   height="50"
   viewBox="0 0 13.229166 13.229167"
   version="1.1"
   id="svg1"
   inkscape:version="1.3.2 (091e20e, 2023-11-25, custom)"
   sodipodi:docname="icono-paidy.svg"
   xmlns:inkscape="http://www.inkscape.org/namespaces/inkscape"
   xmlns:sodipodi="http://sodipodi.sourceforge.net/DTD/sodipodi-0.dtd"
   xmlns="http://www.w3.org/2000/svg"
   xmlns:svg="http://www.w3.org/2000/svg">
  <sodipodi:namedview
     id="namedview1"
     pagecolor="#ffffff"
     bordercolor="#000000"
     borderopacity="0.25"
     inkscape:showpageshadow="2"
     inkscape:pageopacity="0.0"
     inkscape:pagecheckerboard="0"
     inkscape:deskcolor="#d1d1d1"
     inkscape:document-units="mm"
     inkscape:zoom="8.3597643"
     inkscape:cx="38.936504"
     inkscape:cy="31.400407"
     inkscape:window-width="2560"
     inkscape:window-height="1369"
     inkscape:window-x="-8"
     inkscape:window-y="-8"
     inkscape:window-maximized="1"
     inkscape:current-layer="svg1" />
  <defs
     id="defs1">
    <linearGradient
       id="SVGID_1_"
       gradientUnits="userSpaceOnUse"
       x1="34.8517"
       y1="266.12589"
       x2="177.68539"
       y2="397.4841"
       gradientTransform="matrix(0.07679511,0,0,-0.07606229,-1.5059982,31.833307)">
	<stop
   offset="0"
   style="stop-color:#A6009C"
   id="stop1" />

	<stop
   offset="1"
   style="stop-color:#FF009C"
   id="stop2" />

</linearGradient>
    <linearGradient
       id="SVGID_2_"
       gradientUnits="userSpaceOnUse"
       x1="35.5714"
       y1="218.2187"
       x2="132.93671"
       y2="386.8779"
       gradientTransform="matrix(0.07679511,0,0,-0.07606229,-1.5059982,31.833307)">
	<stop
   offset="9.012310e-003"
   style="stop-color:#A6009C"
   id="stop3" />

	<stop
   offset="1"
   style="stop-color:#FF009C"
   id="stop4" />

</linearGradient>
    <linearGradient
       id="SVGID_3_"
       gradientUnits="userSpaceOnUse"
       x1="67.344704"
       y1="226.9454"
       x2="215.6357"
       y2="363.32239"
       gradientTransform="matrix(0.07679511,0,0,-0.07606229,-1.5059982,31.833307)">
	<stop
   offset="0"
   style="stop-color:#A6009C"
   id="stop5" />

	<stop
   offset="1"
   style="stop-color:#FF009C"
   id="stop6" />

</linearGradient>
  </defs>
  <path
     class="st0"
     d="M 5.9047327,5.584212 C 5.8433017,5.5081573 5.2519728,4.7779514 5.2519728,4.7779514 v 4.6245868 c 0,0.380312 0.3071802,0.6845598 0.6911556,0.6845598 0.3839771,0 0.6911574,-0.3042478 0.6911574,-0.6845598 V 6.3524398 C 6.4192592,6.1622846 6.2119129,5.9569167 5.9047327,5.584212 Z"
     id="path2"
     style="fill:url(#SVGID_1_);stroke-width:0.0764278" />
  <path
     class="st1"
     d="m 12.24033,8.3072421 c -0.238064,0 -0.460771,-0.053244 -0.668118,-0.144524 -0.01531,0.144524 0.04608,0.6008909 -0.691155,1.1333275 -0.05376,0.038036 -2.9873312,1.8787384 -3.6016935,2.1829884 -0.7909895,0.395523 -1.681813,0.273824 -2.2040197,0.0077 C 4.8756777,11.403034 2.295361,9.8893849 2.1955271,9.8133235 2.0035394,9.6764023 1.688679,9.4177985 1.588845,9.0831247 1.4966895,8.7940873 1.504366,8.3377151 1.504366,8.3377151 V 4.4889615 c 0,-0.5932854 0.1766346,-1.6657632 1.2748007,-2.1373501 1.1749648,-0.433554 1.8200445,0.2433989 2.4267265,0.9812048 0.046079,0.060847 1.2440796,1.6201249 1.7662865,2.0841064 0.6757968,0.6008909 1.3669543,0.9051409 2.1886613,0.9051409 2.227059,0 3.071806,-1.7418272 3.071806,-3.0272801 0,-1.6657634 -1.382313,-3.01967284 -3.071806,-3.01967284 -1.0520941,0 -2.0120324,0.5248307 -2.5726367,1.38433324 0.099832,0.1140908 0.3686167,0.4335559 0.4070143,0.4867997 0.00766,0.00766 0.4530919,0.5780745 0.476129,0.6084982 0.076802,-0.091281 0.7141962,-1.0952979 1.6894934,-1.0952979 1.006016,0 1.651096,0.7758369 1.651096,1.6353396 0,0.8975354 -0.737234,1.627734 -1.6280574,1.627734 -0.5298869,0 -0.8677846,-0.1825496 -1.282479,-0.5552545 C 7.486708,3.9945564 6.4346142,2.6254359 6.4346142,2.6254359 6.3424587,2.5037409 5.6205858,1.6366255 5.0983791,1.2943464 4.4532994,0.86079049 3.5394388,0.60217885 2.3260747,1.0053092 1.1127124,1.4084395 0.09901598,2.7014979 0.09901598,4.4889615 l 0.0076634,3.8487518 c 0,0.144524 -0.0076634,0.623711 0.10750925,1.0800852 C 0.4138565,10.163208 0.774793,10.581551 1.5197065,11.04553 c 0.3532562,0.197763 2.4036859,1.41476 2.7185463,1.582097 0.5990037,0.319462 1.1980037,0.479192 1.9966753,0.479192 0.6143605,0 1.2210408,-0.152128 1.7278889,-0.410736 0.8217088,-0.410738 3.486499,-2.106925 3.655448,-2.213414 0.783311,-0.5248286 1.420711,-1.3463006 1.351595,-2.3579309 -0.207347,0.1140908 -0.460772,0.1825496 -0.729554,0.1825496 z"
     id="path4"
     style="fill:url(#SVGID_2_);stroke-width:0.0764278" />
  <path
     class="st2"
     d="m 12.24033,7.5694362 c 0.45309,0 0.814027,-0.3574919 0.814027,-0.8062588 0,-0.4411613 -0.368616,-0.8062607 -0.814027,-0.8062607 -0.453091,0 -0.814029,0.3574921 -0.814029,0.8062607 0,0.4411614 0.360938,0.8062588 0.814029,0.8062588 z"
     id="path6"
     style="fill:url(#SVGID_3_);stroke-width:0.0764278" />
</svg>
