<?xml version="1.0" encoding="utf-8"?>
<!-- Generator: Adobe Illustrator 19.2.1, SVG Export Plug-In . SVG Version: 6.00 Build 0)  -->
<svg version="1.1" id="layer" xmlns="http://www.w3.org/2000/svg" xmlns:xlink="http://www.w3.org/1999/xlink" x="0px" y="0px"
	 viewBox="0 0 652 652" style="enable-background:new 0 0 652 652;" xml:space="preserve">
<style type="text/css">
	.st0{fill:url(#SVGID_1_);}
	.st1{fill:url(#SVGID_2_);}
	.st2{fill:url(#SVGID_3_);}
	.st3{fill:#1C1C1C;}
</style>
<linearGradient id="SVGID_1_" gradientUnits="userSpaceOnUse" x1="34.8517" y1="266.1259" x2="177.6854" y2="397.4841" gradientTransform="matrix(1 0 0 -1 0 652)">
	<stop  offset="0" style="stop-color:#A6009C"/>
	<stop  offset="1" style="stop-color:#FF009C"/>
</linearGradient>
<path class="st0" d="M96.5,306.9c-0.8-1-8.5-10.6-8.5-10.6v60.8c0,5,4,9,9,9c5,0,9-4,9-9L106,317
	C103.2,314.5,100.5,311.8,96.5,306.9z"/>
<linearGradient id="SVGID_2_" gradientUnits="userSpaceOnUse" x1="35.5714" y1="218.2187" x2="132.9367" y2="386.8779" gradientTransform="matrix(1 0 0 -1 0 652)">
	<stop  offset="9.012310e-003" style="stop-color:#A6009C"/>
	<stop  offset="1" style="stop-color:#FF009C"/>
</linearGradient>
<path class="st1" d="M179,342.7c-3.1,0-6-0.7-8.7-1.9c-0.2,1.9,0.6,7.9-9,14.9c-0.7,0.5-38.9,24.7-46.9,28.7
	c-10.3,5.2-21.9,3.6-28.7,0.1c-2.6-1.1-36.2-21-37.5-22c-2.5-1.8-6.6-5.2-7.9-9.6c-1.2-3.8-1.1-9.8-1.1-9.8v-50.6
	c0-7.8,2.3-21.9,16.6-28.1c15.3-5.7,23.7,3.2,31.6,12.9c0.6,0.8,16.2,21.3,23,27.4c8.8,7.9,17.8,11.9,28.5,11.9
	c29,0,40-22.9,40-39.8c0-21.9-18-39.7-40-39.7c-13.7,0-26.2,6.9-33.5,18.2c1.3,1.5,4.8,5.7,5.3,6.4c0.1,0.1,5.9,7.6,6.2,8
	c1-1.2,9.3-14.4,22-14.4c13.1,0,21.5,10.2,21.5,21.5c0,11.8-9.6,21.4-21.2,21.4c-6.9,0-11.3-2.4-16.7-7.3
	c-5.4-4.9-19.1-22.9-19.1-22.9c-1.2-1.6-10.6-13-17.4-17.5c-8.4-5.7-20.3-9.1-36.1-3.8c-15.8,5.3-29,22.3-29,45.8l0.1,50.6
	c0,1.9-0.1,8.2,1.4,14.2c2.6,9.8,7.3,15.3,17,21.4c4.6,2.6,31.3,18.6,35.4,20.8c7.8,4.2,15.6,6.3,26,6.3c8,0,15.9-2,22.5-5.4
	c10.7-5.4,45.4-27.7,47.6-29.1c10.2-6.9,18.5-17.7,17.6-31C185.8,341.8,182.5,342.7,179,342.7z"/>
<linearGradient id="SVGID_3_" gradientUnits="userSpaceOnUse" x1="67.3447" y1="226.9454" x2="215.6357" y2="363.3224" gradientTransform="matrix(1 0 0 -1 0 652)">
	<stop  offset="0" style="stop-color:#A6009C"/>
	<stop  offset="1" style="stop-color:#FF009C"/>
</linearGradient>
<path class="st2" d="M179,333c5.9,0,10.6-4.7,10.6-10.6c0-5.8-4.8-10.6-10.6-10.6c-5.9,0-10.6,4.7-10.6,10.6
	C168.4,328.2,173.1,333,179,333z"/>
<path class="st3" d="M251.6,399.4c-5.6,0-10-4.6-10-10v-73.7c0-13.9,9.6-35.8,38.5-35.8c5,0,35.8,0,35.8,40.5
	c0,39.2-22.6,41.5-31.9,41.5c-12.3,0-20.2-7.6-22.6-11.9v39.5C261.6,394.7,257.3,399.4,251.6,399.4z M295.5,321
	c0-7.6-1.3-13.6-4.3-17.9c-3-4.3-7.3-6.3-12.6-6.3c-5.3,0-9.6,2-12.6,6.3c-2.7,3.7-4,9.6-4,17.9c0,7.6,1.3,13.3,4.3,16.9
	c3,4.3,7.3,6.3,12.6,6.3c5,0,9.3-2,12.3-6.3C294.1,334,295.5,328.3,295.5,321z M431.5,360.5c-6,0-11-4.6-11-10.3v-58.1
	c0-5.6,5-10.3,11-10.3c6,0,11,4.6,11,10.3v58.1C442.5,355.9,437.5,360.5,431.5,360.5z M431.7,245.8c-6.3,0-11.4,5.3-11.4,11.6
	s5.2,11.6,11.4,11.6c6.3,0,11.4-5.3,11.4-11.6S438,245.8,431.7,245.8z M524.5,243.4c-5.6,0-10,4.6-10,10v38.8
	c-2.3-3.7-5.6-7-9.6-9.3c-3.7-2-8-3-12.9-3c-9.3,0-16.9,4-22.9,11.6c-5.6,7.6-8.6,17.6-8.6,29.9c0,12.6,3,22.6,8.6,29.9
	c3,3.7,7,6.6,11.9,8.3c5,1.7,10,2.7,15.3,2.7c9.6,0,18.3-2.3,26.6-7.3c8-5,12.3-14.6,12.3-28.5v-73
	C534.8,247.7,530.1,243.4,524.5,243.4z M510.6,338.6c-3,4.3-7,6.3-12.6,6.3c-5.6,0-10-2-12.6-6.3c-3-4.3-4.3-10.3-4.3-17.9
	c0-7,1.3-12.6,4.3-16.6c3-4.3,7-6.3,12.3-6.3c5.3,0,9.6,2,12.6,6c3,4.3,4.3,10,4.3,16.9C514.5,328.3,513.2,334.6,510.6,338.6z
	 M392.5,360.8c5.6,0,10-4.6,10-10v-36.2c0-13.9-9.6-35.8-38.5-35.8c-5,0-35.8,0-35.8,40.5c0,39.2,22.6,41.5,31.9,41.5
	c12.3,0,20.2-7.6,22.6-11.9v2C382.5,356.2,386.8,360.8,392.5,360.8z M348.7,320c0-7.6,1.3-13.6,4.3-17.9c3-4.3,7.3-6.3,12.6-6.3
	s9.6,2,12.6,6.3c2.7,3.7,4,9.6,4,17.9c0,7.6-1.3,13.3-4.3,16.9c-3,4.3-7.3,6.3-12.6,6.3c-5,0-9.3-2-12.3-6.3
	C350,332.9,348.7,327.3,348.7,320z M559.7,393.4c0,3,2.3,5.3,5,5.6c6,0.7,15.6,0.7,20.9-3.7c3.7-3,6.6-7.3,9-13.9l25.9-86.6
	c2.3-6.6-2.7-13.3-9.6-13.3c-4.6,0-8.6,3-9.6,7.3l-13.9,48.5l-13.9-48.1c-1.3-4.6-5.3-7.6-10.3-7.6c-7.3,0-12.3,7.3-10,13.9
	l22.6,74.7c1.3,4.3,1,7.3-1.3,9c-2.3,2-5.3,3-9.3,3c-3,0-5.6,2.7-5.6,5.6v5.6H559.7z"/>
</svg>
