<?xml version="1.0" encoding="UTF-8" standalone="no"?>
<!-- Created with Inkscape (http://www.inkscape.org/) -->

<svg
   width="664"
   height="220"
   viewBox="0 0 175.68333 58.208333"
   version="1.1"
   id="svg1"
   inkscape:version="1.3.2 (091e20e, 2023-11-25, custom)"
   sodipodi:docname="paidy-logo2.svg"
   xmlns:inkscape="http://www.inkscape.org/namespaces/inkscape"
   xmlns:sodipodi="http://sodipodi.sourceforge.net/DTD/sodipodi-0.dtd"
   xmlns="http://www.w3.org/2000/svg"
   xmlns:svg="http://www.w3.org/2000/svg">
  <sodipodi:namedview
     id="namedview1"
     pagecolor="#ffffff"
     bordercolor="#000000"
     borderopacity="0.25"
     inkscape:showpageshadow="2"
     inkscape:pageopacity="0.0"
     inkscape:pagecheckerboard="0"
     inkscape:deskcolor="#d1d1d1"
     inkscape:document-units="mm"
     inkscape:zoom="1.0449705"
     inkscape:cx="396.6619"
     inkscape:cy="408.14548"
     inkscape:window-width="2560"
     inkscape:window-height="1369"
     inkscape:window-x="-8"
     inkscape:window-y="-8"
     inkscape:window-maximized="1"
     inkscape:current-layer="svg1" />
  <defs
     id="defs1">
    <linearGradient
       id="SVGID_1_"
       gradientUnits="userSpaceOnUse"
       x1="34.8517"
       y1="266.12589"
       x2="177.68539"
       y2="397.4841"
       gradientTransform="matrix(0.26458333,0,0,-0.26458333,3.9643476,115.59376)">
	<stop
   offset="0"
   style="stop-color:#A6009C"
   id="stop1" />

	<stop
   offset="1"
   style="stop-color:#FF009C"
   id="stop2" />

</linearGradient>
    <linearGradient
       id="SVGID_2_"
       gradientUnits="userSpaceOnUse"
       x1="35.5714"
       y1="218.2187"
       x2="132.93671"
       y2="386.8779"
       gradientTransform="matrix(0.26458333,0,0,-0.26458333,3.9643476,115.59376)">
	<stop
   offset="9.012310e-003"
   style="stop-color:#A6009C"
   id="stop3" />

	<stop
   offset="1"
   style="stop-color:#FF009C"
   id="stop4" />

</linearGradient>
    <linearGradient
       id="SVGID_3_"
       gradientUnits="userSpaceOnUse"
       x1="67.344704"
       y1="226.9454"
       x2="215.6357"
       y2="363.32239"
       gradientTransform="matrix(0.26458333,0,0,-0.26458333,3.9643476,115.59376)">
	<stop
   offset="0"
   style="stop-color:#A6009C"
   id="stop5" />

	<stop
   offset="1"
   style="stop-color:#FF009C"
   id="stop6" />

</linearGradient>
  </defs>
  <path
     class="st0"
     d="m 29.49664,24.286054 c -0.211666,-0.264583 -2.248959,-2.804583 -2.248959,-2.804583 v 16.086665 c 0,1.322917 1.058334,2.38125 2.381251,2.38125 1.322917,0 2.38125,-1.058333 2.38125,-2.38125 V 26.958345 C 31.269349,26.296886 30.554974,25.582512 29.49664,24.286054 Z"
     id="path2"
     style="fill:url(#SVGID_1_);stroke-width:0.264583" />
  <path
     class="st1"
     d="m 51.324765,33.758136 c -0.820208,0 -1.5875,-0.185208 -2.301875,-0.502708 -0.05292,0.502708 0.15875,2.090208 -2.38125,3.942292 -0.185208,0.132291 -10.292291,6.535208 -12.408958,7.593541 -2.725208,1.375833 -5.794375,0.9525 -7.593543,0.02646 -0.687916,-0.291041 -9.577916,-5.556249 -9.921875,-5.820833 -0.661458,-0.47625 -1.74625,-1.375833 -2.090208,-2.54 -0.3175,-1.005416 -0.291042,-2.592916 -0.291042,-2.592916 V 20.476054 c 0,-2.06375 0.608542,-5.794375 4.392084,-7.434791 4.048125,-1.508125 6.270625,0.846666 8.360833,3.413125 0.15875,0.211666 4.286251,5.635624 6.085418,7.249583 2.328333,2.090208 4.709583,3.14854 7.540625,3.14854 7.672916,0 10.583333,-6.058957 10.583333,-10.530415 0,-5.794375 -4.7625,-10.5039584 -10.583333,-10.5039584 -3.624792,0 -6.932084,1.825625 -8.863542,4.8154164 0.343958,0.396875 1.27,1.508125 1.402292,1.693334 0.02646,0.02646 1.561041,2.010833 1.640416,2.116666 0.264584,-0.3175 2.460625,-3.81 5.820834,-3.81 3.466041,0 5.688541,2.69875 5.688541,5.688542 0,3.122083 -2.54,5.662083 -5.609166,5.662083 -1.825625,0 -2.989792,-0.635 -4.418542,-1.931458 -1.42875,-1.296458 -5.053542,-6.058958 -5.053542,-6.058958 -0.3175,-0.423334 -2.804583,-3.439584 -4.603751,-4.6302094 -2.2225,-1.508125 -5.371041,-2.407708 -9.551458,-1.005416 -4.180417,1.402291 -7.6729164,5.9002084 -7.6729164,12.1179164 l 0.02646,13.387916 c 0,0.502708 -0.02646,2.169583 0.370417,3.757083 0.6879164,2.592917 1.9314584,4.048125 4.4979164,5.662083 1.217083,0.687917 8.281458,4.92125 9.36625,5.503333 2.06375,1.11125 4.1275,1.666875 6.879168,1.666875 2.116666,0 4.206875,-0.529166 5.953125,-1.42875 2.831041,-1.42875 12.012083,-7.328958 12.594166,-7.699375 2.69875,-1.825624 4.894792,-4.683124 4.656667,-8.202083 -0.714375,0.396875 -1.5875,0.635 -2.513542,0.635 z"
     id="path4"
     style="fill:url(#SVGID_2_);stroke-width:0.264583" />
  <path
     class="st2"
     d="m 51.324765,31.191678 c 1.561042,0 2.804583,-1.243542 2.804583,-2.804583 0,-1.534584 -1.27,-2.804583 -2.804583,-2.804583 -1.561042,0 -2.804583,1.243541 -2.804583,2.804583 0,1.534583 1.243541,2.804583 2.804583,2.804583 z"
     id="path6"
     style="fill:url(#SVGID_3_);stroke-width:0.264583" />
  <path
     class="st3"
     d="m 70.533515,48.760011 c -1.481667,0 -2.645833,-1.217083 -2.645833,-2.645833 V 26.614386 c 0,-3.677707 2.539999,-9.472082 10.186458,-9.472082 1.322916,0 9.472086,0 9.472086,10.715624 0,10.371667 -5.979586,10.980208 -8.440211,10.980208 -3.254375,0 -5.344584,-2.010833 -5.979584,-3.148541 v 10.451041 c 0.05292,1.375833 -1.084791,2.619375 -2.592916,2.619375 z M 82.148723,28.016678 c 0,-2.010833 -0.343958,-3.598332 -1.137708,-4.736041 -0.79375,-1.137708 -1.931459,-1.666875 -3.33375,-1.666875 -1.402292,0 -2.54,0.529167 -3.33375,1.666875 -0.714375,0.978959 -1.058334,2.54 -1.058334,4.736041 0,2.010833 0.343959,3.518958 1.137709,4.471458 0.79375,1.137709 1.931458,1.666875 3.33375,1.666875 1.322916,0 2.460625,-0.529166 3.254375,-1.666875 0.767291,-1.031875 1.137708,-2.54 1.137708,-4.471458 z M 118.13206,38.46772 c -1.5875,0 -2.91042,-1.217084 -2.91042,-2.725209 v -15.37229 c 0,-1.481667 1.32292,-2.725208 2.91042,-2.725208 1.5875,0 2.91042,1.217083 2.91042,2.725208 v 15.37229 c 0,1.508125 -1.32292,2.725209 -2.91042,2.725209 z m 0.0529,-30.3477074 c -1.66688,0 -3.01625,1.402291 -3.01625,3.0691664 0,1.666875 1.37583,3.069167 3.01625,3.069167 1.66687,0 3.01625,-1.402292 3.01625,-3.069167 0,-1.6668754 -1.34938,-3.0691664 -3.01625,-3.0691664 z m 24.55333,-0.635 c -1.48167,0 -2.64583,1.217083 -2.64583,2.6458334 v 10.265833 c -0.60855,-0.978958 -1.48167,-1.852083 -2.54,-2.460625 -0.97896,-0.529166 -2.11667,-0.79375 -3.41313,-0.79375 -2.46062,0 -4.47146,1.058334 -6.05896,3.069167 -1.48166,2.010833 -2.27541,4.656666 -2.27541,7.91104 0,3.33375 0.79375,5.979584 2.27541,7.911042 0.79375,0.978958 1.85209,1.74625 3.14854,2.196042 1.32292,0.449791 2.64584,0.714375 4.04813,0.714375 2.54,0 4.84187,-0.608542 7.03792,-1.931459 2.11666,-1.322916 3.25437,-3.862916 3.25437,-7.540625 V 10.157304 C 145.4635,8.6227206 144.21996,7.4850126 142.73829,7.4850126 Z m -3.67771,25.1883324 c -0.79375,1.137708 -1.85208,1.666875 -3.33375,1.666875 -1.48167,0 -2.64583,-0.529167 -3.33375,-1.666875 -0.79375,-1.137709 -1.13771,-2.725209 -1.13771,-4.736042 0,-1.852083 0.34396,-3.333749 1.13771,-4.392082 0.79375,-1.137709 1.85208,-1.666875 3.25438,-1.666875 1.40229,0 2.54,0.529166 3.33375,1.5875 0.79375,1.137708 1.1377,2.645832 1.1377,4.471457 -0.0265,2.010833 -0.37041,3.677708 -1.05833,4.736042 z m -31.24729,5.87375 c 1.48167,0 2.64583,-1.217084 2.64583,-2.645834 v -9.577916 c 0,-3.677708 -2.54,-9.472082 -10.18645,-9.472082 -1.322924,0 -9.472094,0 -9.472094,10.715623 0,10.371667 5.97959,10.980209 8.44021,10.980209 3.254384,0 5.344584,-2.010834 5.979584,-3.148542 v 0.529167 c -0.0529,1.402291 1.0848,2.619375 2.59292,2.619375 z m -11.588754,-10.795 c 0,-2.010833 0.34396,-3.598333 1.13771,-4.736041 0.79375,-1.137708 1.93146,-1.666875 3.333754,-1.666875 1.40229,0 2.54,0.529167 3.33375,1.666875 0.71437,0.978958 1.05833,2.54 1.05833,4.736041 0,2.010833 -0.34396,3.518958 -1.13771,4.471458 -0.79375,1.137708 -1.93145,1.666875 -3.33375,1.666875 -1.322914,0 -2.460624,-0.529167 -3.254374,-1.666875 -0.79375,-1.058333 -1.13771,-2.54 -1.13771,-4.471458 z m 55.827084,19.420416 c 0,0.79375 0.60854,1.402292 1.32292,1.481667 1.5875,0.185208 4.1275,0.185208 5.52979,-0.978959 0.97896,-0.79375 1.74625,-1.931458 2.38125,-3.677708 l 6.85271,-22.912915 c 0.60854,-1.74625 -0.71438,-3.518958 -2.54,-3.518958 -1.21708,0 -2.27542,0.79375 -2.54,1.931458 l -3.67771,12.83229 -3.67771,-12.726457 c -0.34396,-1.217083 -1.40229,-2.010833 -2.72521,-2.010833 -1.93145,0 -3.25437,1.931458 -2.64583,3.677708 l 5.97958,19.764374 c 0.34396,1.137708 0.26459,1.931458 -0.34395,2.38125 -0.60855,0.529166 -1.4023,0.79375 -2.46063,0.79375 -0.79375,0 -1.48167,0.714375 -1.48167,1.481666 v 1.481667 z"
     id="path7"
     style="fill:#1c1c1c;stroke-width:0.264583" />
</svg>
