<?xml version="1.0" encoding="UTF-8" standalone="no"?>
<!-- Generator: Adobe Illustrator 19.2.1, SVG Export Plug-In . SVG Version: 6.00 Build 0)  -->

<svg
   version="1.1"
   id="layer"
   x="0px"
   y="0px"
   viewBox="0 0 425104 425104"
   xml:space="preserve"
   sodipodi:docname="paidy-logo2.svg"
   inkscape:export-filename="paidy-logo-login.svg"
   inkscape:export-xdpi="125.19265"
   inkscape:export-ydpi="125.19265"
   inkscape:version="1.3.2 (091e20e, 2023-11-25, custom)"
   width="425104"
   height="425104"
   xmlns:inkscape="http://www.inkscape.org/namespaces/inkscape"
   xmlns:sodipodi="http://sodipodi.sourceforge.net/DTD/sodipodi-0.dtd"
   xmlns="http://www.w3.org/2000/svg"
   xmlns:svg="http://www.w3.org/2000/svg"><defs
   id="defs7" /><sodipodi:namedview
   id="namedview7"
   pagecolor="#ffffff"
   bordercolor="#000000"
   borderopacity="0.25"
   inkscape:showpageshadow="2"
   inkscape:pageopacity="0.0"
   inkscape:pagecheckerboard="0"
   inkscape:deskcolor="#d1d1d1"
   showgrid="false"
   inkscape:zoom="1.7990798"
   inkscape:cx="326.27792"
   inkscape:cy="148.13129"
   inkscape:window-width="2560"
   inkscape:window-height="1369"
   inkscape:window-x="-8"
   inkscape:window-y="-8"
   inkscape:window-maximized="1"
   inkscape:current-layer="layer"
   inkscape:export-bgcolor="#00000000" />
<style
   type="text/css"
   id="style1">
	.st0{fill:url(#SVGID_1_);}
	.st1{fill:url(#SVGID_2_);}
	.st2{fill:url(#SVGID_3_);}
	.st3{fill:#1C1C1C;}
</style>
<linearGradient
   id="SVGID_1_"
   gradientUnits="userSpaceOnUse"
   x1="34.8517"
   y1="266.12589"
   x2="177.68539"
   y2="397.4841"
   gradientTransform="matrix(1,0,0,-1,8.3375959,439.11338)">
	<stop
   offset="0"
   style="stop-color:#A6009C"
   id="stop1" />
	<stop
   offset="1"
   style="stop-color:#FF009C"
   id="stop2" />
</linearGradient>
<path
   class="st0"
   d="m 104.8376,94.013384 c -0.8,-1 -8.500004,-10.6 -8.500004,-10.6 v 60.799996 c 0,5 4.000004,9 9.000004,9 5,0 9,-4 9,-9 v -40.1 c -2.8,-2.5 -5.5,-5.199996 -9.5,-10.099996 z"
   id="path2"
   style="fill:url(#SVGID_1_)" />
<linearGradient
   id="SVGID_2_"
   gradientUnits="userSpaceOnUse"
   x1="35.5714"
   y1="218.2187"
   x2="132.93671"
   y2="386.8779"
   gradientTransform="matrix(1,0,0,-1,8.3375959,439.11338)">
	<stop
   offset="9.012310e-003"
   style="stop-color:#A6009C"
   id="stop3" />
	<stop
   offset="1"
   style="stop-color:#FF009C"
   id="stop4" />
</linearGradient>
<path
   class="st1"
   d="m 187.3376,129.81338 c -3.1,0 -6,-0.7 -8.7,-1.9 -0.2,1.9 0.6,7.9 -9,14.9 -0.7,0.5 -38.9,24.7 -46.9,28.7 -10.3,5.2 -21.9,3.6 -28.700004,0.1 -2.6,-1.1 -36.2,-21 -37.5,-22 -2.5,-1.8 -6.6,-5.2 -7.9,-9.6 -1.2,-3.8 -1.1,-9.8 -1.1,-9.8 V 79.613384 c 0,-7.8 2.3,-21.9 16.6,-28.1 15.3,-5.7 23.7,3.2 31.6,12.9 0.6,0.8 16.200004,21.3 23.000004,27.4 8.8,7.9 17.8,11.899996 28.5,11.899996 29,0 40,-22.899996 40,-39.799996 0,-21.9 -18,-39.7 -40,-39.7 -13.7,0 -26.2,6.9 -33.5,18.2 1.3,1.5 4.8,5.7 5.3,6.4 0.1,0.1 5.9,7.6 6.2,8 1,-1.2 9.3,-14.4 22,-14.4 13.1,0 21.5,10.2 21.5,21.5 0,11.8 -9.6,21.4 -21.2,21.4 -6.9,0 -11.3,-2.4 -16.7,-7.3 -5.4,-4.9 -19.1,-22.9 -19.1,-22.9 -1.2,-1.6 -10.6,-13 -17.400004,-17.5 -8.4,-5.7 -20.3,-9.1 -36.1,-3.8 -15.8,5.3 -29,22.3 -29,45.8 l 0.1,50.599996 c 0,1.9 -0.1,8.2 1.4,14.2 2.6,9.8 7.3,15.3 17,21.4 4.6,2.6 31.3,18.6 35.4,20.8 7.8,4.2 15.6,6.3 26.000004,6.3 8,0 15.9,-2 22.5,-5.4 10.7,-5.4 45.4,-27.7 47.6,-29.1 10.2,-6.9 18.5,-17.7 17.6,-31 -2.7,1.5 -6,2.4 -9.5,2.4 z"
   id="path4"
   style="fill:url(#SVGID_2_)" />
<linearGradient
   id="SVGID_3_"
   gradientUnits="userSpaceOnUse"
   x1="67.344704"
   y1="226.9454"
   x2="215.6357"
   y2="363.32239"
   gradientTransform="matrix(1,0,0,-1,8.3375959,439.11338)">
	<stop
   offset="0"
   style="stop-color:#A6009C"
   id="stop5" />
	<stop
   offset="1"
   style="stop-color:#FF009C"
   id="stop6" />
</linearGradient>
<path
   class="st2"
   d="m 187.3376,120.11338 c 5.9,0 10.6,-4.7 10.6,-10.6 0,-5.8 -4.8,-10.599996 -10.6,-10.599996 -5.9,0 -10.6,4.699996 -10.6,10.599996 0,5.8 4.7,10.6 10.6,10.6 z"
   id="path6"
   style="fill:url(#SVGID_3_)" />
<path
   class="st3"
   d="m 259.9376,186.51338 c -5.6,0 -10,-4.6 -10,-10 v -73.7 c 0,-13.899996 9.6,-35.799996 38.5,-35.799996 5,0 35.8,0 35.8,40.499996 0,39.2 -22.6,41.5 -31.9,41.5 -12.3,0 -20.2,-7.6 -22.6,-11.9 v 39.5 c 0.2,5.2 -4.1,9.9 -9.8,9.9 z m 43.9,-78.4 c 0,-7.6 -1.3,-13.599996 -4.3,-17.899996 -3,-4.3 -7.3,-6.3 -12.6,-6.3 -5.3,0 -9.6,2 -12.6,6.3 -2.7,3.7 -4,9.6 -4,17.899996 0,7.6 1.3,13.3 4.3,16.9 3,4.3 7.3,6.3 12.6,6.3 5,0 9.3,-2 12.3,-6.3 2.9,-3.9 4.3,-9.6 4.3,-16.9 z m 136,39.5 c -6,0 -11,-4.6 -11,-10.3 V 79.213384 c 0,-5.6 5,-10.3 11,-10.3 6,0 11,4.6 11,10.3 v 58.099996 c 0,5.7 -5,10.3 -11,10.3 z m 0.2,-114.699996 c -6.3,0 -11.4,5.3 -11.4,11.6 0,6.3 5.2,11.6 11.4,11.6 6.3,0 11.4,-5.3 11.4,-11.6 0,-6.3 -5.1,-11.6 -11.4,-11.6 z m 92.8,-2.4 c -5.6,0 -10,4.6 -10,10 v 38.8 c -2.3,-3.7 -5.6,-7 -9.6,-9.3 -3.7,-2 -8,-3 -12.9,-3 -9.3,0 -16.9,4 -22.9,11.6 -5.6,7.6 -8.6,17.6 -8.6,29.899996 0,12.6 3,22.6 8.6,29.9 3,3.7 7,6.6 11.9,8.3 5,1.7 10,2.7 15.3,2.7 9.6,0 18.3,-2.3 26.6,-7.3 8,-5 12.3,-14.6 12.3,-28.5 V 40.613384 c -0.4,-5.8 -5.1,-10.1 -10.7,-10.1 z m -13.9,95.199996 c -3,4.3 -7,6.3 -12.6,6.3 -5.6,0 -10,-2 -12.6,-6.3 -3,-4.3 -4.3,-10.3 -4.3,-17.9 0,-7 1.3,-12.599996 4.3,-16.599996 3,-4.3 7,-6.3 12.3,-6.3 5.3,0 9.6,2 12.6,6 3,4.3 4.3,9.999996 4.3,16.899996 -0.1,7.6 -1.4,13.9 -4,17.9 z m -118.1,22.2 c 5.6,0 10,-4.6 10,-10 v -36.2 c 0,-13.899996 -9.6,-35.799996 -38.5,-35.799996 -5,0 -35.8,0 -35.8,40.499996 0,39.2 22.6,41.5 31.9,41.5 12.3,0 20.2,-7.6 22.6,-11.9 v 2 c -0.2,5.3 4.1,9.9 9.8,9.9 z m -43.8,-40.8 c 0,-7.599996 1.3,-13.599996 4.3,-17.899996 3,-4.3 7.3,-6.3 12.6,-6.3 5.3,0 9.6,2 12.6,6.3 2.7,3.7 4,9.6 4,17.899996 0,7.6 -1.3,13.3 -4.3,16.9 -3,4.3 -7.3,6.3 -12.6,6.3 -5,0 -9.3,-2 -12.3,-6.3 -3,-4 -4.3,-9.6 -4.3,-16.9 z m 211,73.4 c 0,3 2.3,5.3 5,5.6 6,0.7 15.6,0.7 20.9,-3.7 3.7,-3 6.6,-7.3 9,-13.9 l 25.9,-86.599996 c 2.3,-6.6 -2.7,-13.3 -9.6,-13.3 -4.6,0 -8.6,3 -9.6,7.3 l -13.9,48.499996 -13.9,-48.099996 c -1.3,-4.6 -5.3,-7.6 -10.3,-7.6 -7.3,0 -12.3,7.3 -10,13.9 l 22.6,74.699996 c 1.3,4.3 1,7.3 -1.3,9 -2.3,2 -5.3,3 -9.3,3 -3,0 -5.6,2.7 -5.6,5.6 v 5.6 z"
   id="path7" />
</svg>
